<svg width="464" height="456" viewBox="0 0 464 456" fill="none" xmlns="http://www.w3.org/2000/svg">
<path d="M145.216 186.722C162.029 154.991 128.596 124.845 101.134 118.768C60.9776 110.098 25.1684 142.591 11.8477 179.469C-46.8431 342.058 194.423 423.296 305.57 392.184C338.804 382.898 355.403 366.879 377.553 341.182C394.44 321.695 409.287 300.21 425.294 280.039C448.609 251.365 463.797 212.965 460.984 173.794C458.171 134.623 439.378 99.4278 418.64 67.2965C391.425 25.2628 356.902 5.75838 309.096 3.46548C280.211 2.09722 250.493 4.81773 230.995 29.5309C212.857 52.475 222.328 82.4616 230.423 107.758C239.613 137.115 252.475 166.463 256.856 196.974C260.6 223.332 258.564 250.015 232.872 260.828C212.394 269.576 184.511 272.171 164.289 260.097C150.436 251.611 142.554 234.029 140.65 217.572C139.732 210.472 139.662 203.297 140.442 196.215C141.706 189.239 147.07 183.849 147.233 177.006" fill="#38B6FF" fill-opacity="0.27"/>
<mask id="mask0_1_1970" style="mask-type:alpha" maskUnits="userSpaceOnUse" x="2" y="3" width="460" height="396">
<path d="M145.02 186.695C161.88 155.069 128.378 124.986 100.854 118.905C60.608 110.229 24.7084 142.6 11.3477 179.36C-47.5191 341.43 194.28 422.617 305.69 391.682C339.003 382.449 355.644 366.489 377.852 340.884C394.782 321.467 409.668 300.056 425.718 279.956C449.094 251.384 464.326 213.108 461.517 174.049C458.707 134.99 439.879 99.8829 419.102 67.8293C391.836 25.8971 357.238 6.42289 309.323 4.0997C280.372 2.71308 250.585 5.40266 231.036 30.0287C212.851 52.8919 222.336 82.7983 230.443 108.027C239.646 137.306 252.53 166.578 256.914 197.003C260.66 223.288 258.612 249.891 232.859 260.653C212.331 269.359 184.383 271.925 164.118 259.871C150.236 251.399 142.34 233.862 140.436 217.451C139.517 210.371 139.449 203.217 140.233 196.157C141.502 189.202 146.879 183.832 147.044 177.009" fill="#514F43"/>
</mask>
<g mask="url(#mask0_1_1970)">
<path d="M19.113 563.883C53.4862 548.814 87.5751 533.094 121.447 517.035C155.319 500.976 189.315 484.493 223.14 468.031C256.966 451.569 291.154 434.955 325.303 418.765C358.322 403.121 391.733 388.242 424.644 372.396C456.403 357.117 487.7 340.401 517.019 320.464C520.637 318.025 524.34 315.631 527.762 312.898L524.663 308.724C520.448 311.956 515.828 314.579 510.925 316.523C509.07 317.328 510.427 320.61 512.326 319.961C517.744 318.286 522.928 315.913 527.762 312.898C530.443 311.096 527.918 306.526 525.173 308.395C517.831 313.161 510.793 318.445 503.429 323.21C496.065 327.976 488.528 332.606 480.904 337.033C465.593 345.977 449.934 354.289 434.035 362.242C401.6 378.497 368.443 393.2 335.702 408.758C301.596 424.97 267.493 441.496 233.67 458.204C199.847 474.912 166.129 491.398 132.238 507.725C98.347 524.052 64.645 539.956 30.3171 555.294C26.0529 557.212 21.7885 559.114 17.524 561.002C15.6476 561.83 17.3006 564.689 19.1558 563.884L19.113 563.883Z" fill="#514F43"/>
<path d="M55.3066 472.135C89.2897 451.105 123.549 430.563 158.083 410.509C192.617 390.454 227.487 371.113 262.691 352.483C280.208 343.265 297.834 334.263 315.569 325.48C333.603 316.543 351.812 308.011 369.584 298.602C404.489 280.021 438.174 259.144 472.229 238.987C483.154 232.405 494.824 227.778 506.165 222.185C516.994 216.832 529.122 210.756 536.654 200.71C538.091 198.795 539.241 196.659 540.065 194.374C540.462 193.328 539.298 192.464 538.401 192.654C532.352 193.88 526.141 193.695 520.047 194.674C519.128 194.842 519.357 196.5 520.277 196.399C526.544 195.713 532.887 196.236 539.132 195.325L537.614 193.249C532.833 204.379 520.816 210.948 510.907 216.245C499.869 222.088 488.176 226.58 477.181 232.535C469.467 236.695 462.038 241.461 454.52 245.981C446.002 251.071 437.554 256.146 429.178 261.207C412.268 271.321 395.293 281.321 378.057 290.804C343.392 309.88 307.354 326.21 272.34 344.611C237.327 363.011 203.112 382.07 169.075 401.891C135.038 421.712 101.117 442.497 67.5406 463.532C63.2818 466.144 59.0235 468.801 54.9363 471.437C54.8516 471.487 54.7898 471.57 54.7646 471.668C54.7394 471.766 54.7528 471.872 54.8019 471.961C54.851 472.051 54.9316 472.117 55.0263 472.146C55.1209 472.174 55.2217 472.162 55.3064 472.113L55.3066 472.135Z" fill="#514F43"/>
<path d="M-16.8663 320.725C13.9717 299.527 45.4979 279.456 77.7123 260.511C109.927 241.567 142.528 223.514 175.515 206.353C208.608 189.096 242.116 172.695 275.864 156.878C309.613 141.06 344.576 126.868 378.756 111.436C395.515 103.851 411.753 95.3417 428.163 87.0362C442.229 79.9107 457.363 74.9006 470.666 66.178C473.815 64.1372 476.808 61.8472 479.617 59.3275C482.059 57.1195 479.403 52.2118 476.309 53.4501C468.416 56.6224 460.566 59.8174 452.52 62.5628C444.473 65.3083 436.338 67.8067 428.248 70.4621C427.83 70.6283 427.489 70.9518 427.292 71.37C427.094 71.7882 427.053 72.2715 427.177 72.7264C427.301 73.1813 427.581 73.5755 427.963 73.8329C428.345 74.0903 428.801 74.1926 429.245 74.12C445.925 70.9554 462.285 66.2999 478.148 60.2047L474.84 54.3274C463.096 64.8579 447.816 70.3809 433.765 76.7683C426.174 80.2126 418.846 84.2415 411.537 88.0917C403.397 92.3348 395.148 96.3752 386.833 100.281C353.021 116.142 318.312 129.935 284.478 145.795C250.644 161.656 217.243 178.059 184.171 195.339C151.1 212.618 118.846 230.354 86.9254 249.459C55.005 268.563 23.6058 288.48 -7.11922 309.544C-10.9703 312.205 -14.8426 314.888 -18.672 317.572C-20.5017 318.848 -18.7598 322.045 -16.8877 320.725L-16.8663 320.725Z" fill="#514F43"/>
<path d="M-31.1298 230.928C2.06026 212.464 34.0066 191.435 68.2217 175.041C103.012 158.297 138.939 144.138 174.67 129.685C192.418 122.492 210.145 115.23 227.696 107.587C244.757 100.116 261.814 92.2206 278.873 84.6383C312.374 69.7795 346.025 54.8775 377.322 35.4739C389.714 27.7915 402.059 19.7506 413.972 11.302C425.311 3.29395 436.962 -5.71694 444.495 -17.8637C446.102 -20.4758 447.419 -23.2739 448.423 -26.2057C448.577 -26.8442 448.486 -27.5254 448.169 -28.1051C447.852 -28.6849 447.334 -29.1179 446.725 -29.3128C435.008 -34.5743 423.219 -24.2897 413.807 -18.6523C412.316 -17.7753 413.642 -15.5227 415.156 -16.2653C420.122 -18.6895 424.914 -21.5184 430.076 -23.6494C434.705 -25.5854 440.129 -27.0868 445.054 -24.7468L443.936 -27.601C439.001 -14.6405 427.483 -5.02389 417.021 2.88272C405.878 11.2734 394.042 18.694 382.42 26.2961C351.856 46.2899 318.701 61.5555 285.543 76.3736C251.296 91.6263 217.309 107.285 182.561 121.525C147.812 135.765 112.376 149.728 78.2642 165.721C44.1525 181.713 12.2191 201.803 -20.4731 220.854C-24.5625 223.222 -28.6519 225.589 -32.7844 227.911C-34.6376 228.963 -32.9404 231.958 -31.0658 230.907L-31.1298 230.928Z" fill="#514F43"/>
<path d="M62.1669 370.034C123.586 335.841 184.482 300.724 245.792 266.306C275.935 249.393 306.514 233.268 336.57 216.153C366.627 199.037 395.605 181.193 425.864 165.109C432.626 161.285 439.593 157.858 446.732 154.842C452.941 152.41 459.259 150.292 465.512 147.95C476.181 143.961 489.481 139.599 496.456 129.615C497.449 128.195 495.714 125.714 494.093 126.41C488.328 128.589 482.727 131.199 477.335 134.22C477.035 134.449 476.83 134.787 476.758 135.17C476.685 135.552 476.751 135.952 476.943 136.292C477.134 136.633 477.438 136.89 477.795 137.015C478.153 137.139 478.539 137.123 478.88 136.968C484.183 134.478 489.642 132.353 495.223 130.607L493.177 126.959C486.383 135.581 474.793 139.626 465.02 143.291C453.697 147.16 442.608 151.705 431.806 156.902C401.714 172.518 372.691 190.205 343.32 207.306C313.501 224.581 283.03 240.775 253.015 257.689C222.999 274.604 192.562 292.163 162.466 309.658C128.751 329.392 95.0344 348.925 61.0571 368.075C59.843 368.776 60.9528 370.736 62.1671 370.057L62.1669 370.034Z" fill="#514F43"/>
<path d="M127.151 217.31C166.478 196.353 202.18 167.482 244.628 153.047C255.372 149.076 266.693 146.945 278.159 146.735C278.642 146.688 279.088 146.455 279.411 146.081C279.733 145.707 279.909 145.218 279.905 144.71C279.9 144.201 279.715 143.708 279.386 143.327C279.057 142.945 278.606 142.701 278.121 142.642C274.994 142.382 272.846 144.033 270.139 145.298C268.604 146.018 269.72 148.603 271.3 148.13C273.448 147.137 275.791 146.66 278.159 146.735L278.121 142.642C256.714 142.613 236.154 151.09 217.315 160.416C196.004 170.964 175.934 183.853 155.754 196.45C145.813 202.661 135.851 208.871 125.562 214.429C123.815 215.37 125.382 218.161 127.15 217.221L127.151 217.31Z" fill="#514F43"/>
<path d="M-52.6414 141.719C-19.9772 122.817 12.6865 103.856 45.3497 84.8351C77.728 65.9002 109.969 46.725 142.071 27.3095C174.174 7.89398 206.229 -12.1188 238.235 -32.7289C270.171 -53.228 301.848 -73.9092 334.047 -93.7786C350.316 -103.834 366.644 -113.755 383.03 -123.541C397.236 -132.055 412.201 -139.62 425.277 -149.892C428.471 -152.321 431.468 -155.017 434.241 -157.954L430.185 -161.247C430.458 -161.915 430.398 -161.445 429.673 -161.051C428.949 -160.657 428.48 -160.372 427.884 -159.998C426.435 -159.143 425.03 -158.265 423.625 -157.341C422.22 -156.418 423.043 -153.052 425.07 -153.856C427.738 -154.898 433.128 -155.595 434.643 -158.486C434.939 -159.045 435.031 -159.7 434.902 -160.333C434.772 -160.965 434.431 -161.533 433.939 -161.932C433.447 -162.332 432.838 -162.536 432.223 -162.508C431.608 -162.479 431.027 -162.221 430.587 -161.779C424.443 -156.181 417.888 -151.089 410.981 -146.549C404.061 -142.155 396.904 -138.011 389.81 -133.866C373.77 -124.501 357.969 -114.709 342.168 -104.96C309.905 -85.0695 278.055 -64.5468 246.357 -43.8212C214.659 -23.0955 182.975 -3.13047 150.904 16.5838C118.832 36.2981 87.0122 55.3887 54.9558 74.4094C22.8994 93.4302 -9.84177 112.51 -42.3273 131.436L-54.5334 138.542C-54.9074 138.804 -55.1693 139.207 -55.2665 139.669C-55.3637 140.132 -55.2889 140.619 -55.0571 141.033C-54.8252 141.447 -54.4537 141.757 -54.0172 141.901C-53.5808 142.045 -53.1119 142.011 -52.7049 141.808L-52.6414 141.719Z" fill="#514F43"/>
</g>
<path d="M348.096 101.446C356.873 96.5626 370.55 106.528 376.597 112.123C383.664 118.628 389.364 126.907 393.748 135.431C413.652 174.128 424.114 220.166 407.758 262.097C402.249 276.292 393.655 289.086 382.597 299.552C376.38 305.405 363.584 310.926 361.718 319.88C361.318 322.103 361.477 324.39 362.18 326.537C364.651 334.742 372.111 340.429 377.812 346.403C405.18 375.144 385.392 419.699 356.129 438.9" stroke="#CCDDE2" stroke-width="4.72" stroke-miterlimit="10"/>
<path d="M133.47 252.335C142.015 243.257 152.935 237.122 163.915 231.476C175.805 225.364 187.505 219.21 198.314 211.273C204.895 206.451 211.12 201.163 216.943 195.449" stroke="#CCDDE2" stroke-width="4.72" stroke-miterlimit="10"/>
<path d="M119.598 367.322C108.679 339.108 105.907 306.768 117.298 278.586" stroke="#CCDDE2" stroke-width="4.72" stroke-miterlimit="10"/>
<path d="M262.687 75.6571V45.4145C262.687 43.3315 261.86 41.3338 260.387 39.8609C258.915 38.388 256.917 37.5605 254.835 37.5605H154.704C152.622 37.5605 150.624 38.388 149.152 39.8609C147.679 41.3338 146.852 43.3315 146.852 45.4145V187.627C146.86 189.705 147.691 191.694 149.163 193.16C150.635 194.626 152.627 195.449 154.704 195.449H254.849C255.821 195.457 256.785 195.271 257.685 194.904" stroke="black" stroke-width="4.72" stroke-linecap="round" stroke-linejoin="round"/>
<path d="M251.657 42.3654H157.901C153.75 42.3654 150.385 45.7307 150.385 49.8821V183.155C150.385 187.307 153.75 190.672 157.901 190.672H251.657C255.807 190.672 259.172 187.307 259.172 183.155V49.8821C259.172 45.7307 255.807 42.3654 251.657 42.3654Z" fill="#38B6FF"/>
<path d="M250.197 53.8414H160.548C158.471 53.8414 156.788 55.5251 156.788 57.6021V77.8469C156.788 79.9239 158.471 81.6076 160.548 81.6076H250.197C252.274 81.6076 253.957 79.9239 253.957 77.8469V57.6021C253.957 55.5251 252.274 53.8414 250.197 53.8414Z" fill="#38B6FF"/>
<path d="M204.776 65.5393C206.363 65.5393 207.65 64.2527 207.65 62.6656C207.65 61.0786 206.363 59.792 204.776 59.792C203.19 59.792 201.903 61.0786 201.903 62.6656C201.903 64.2527 203.19 65.5393 204.776 65.5393Z" fill="#D7E8F0"/>
<path d="M196.753 75.6571C196.753 73.5288 197.598 71.4876 199.103 69.9827C200.608 68.4777 202.648 67.6322 204.776 67.6322C206.904 67.6322 208.945 68.4777 210.45 69.9827C211.955 71.4876 212.8 73.5288 212.8 75.6571H196.753Z" fill="#D7E8F0"/>
<path d="M205.363 111.365C202.302 111.363 199.309 112.27 196.763 113.97C194.216 115.67 192.232 118.087 191.059 120.915C189.887 123.743 189.58 126.856 190.176 129.859C190.773 132.862 192.247 135.621 194.412 137.786C196.577 139.951 199.335 141.425 202.337 142.022C205.34 142.619 208.452 142.312 211.28 141.139C214.108 139.967 216.524 137.982 218.224 135.435C219.924 132.888 220.83 129.895 220.828 126.833C220.827 122.731 219.197 118.797 216.297 115.897C213.397 112.996 209.464 111.366 205.363 111.365ZM205.363 138.568C204.764 138.568 204.189 138.33 203.766 137.906C203.342 137.482 203.104 136.908 203.104 136.308C203.104 135.709 203.342 135.135 203.766 134.711C204.189 134.287 204.764 134.049 205.363 134.049C205.962 134.049 206.537 134.287 206.96 134.711C207.384 135.135 207.622 135.709 207.622 136.308C207.622 136.908 207.384 137.482 206.96 137.906C206.537 138.33 205.962 138.568 205.363 138.568ZM208.227 121.173C207.742 124.527 207.331 128.062 206.347 131.337C206.107 132.114 204.633 132.114 204.393 131.337C203.686 128.884 203.143 126.387 202.767 123.862C202.467 122.014 201.381 119.057 202.421 117.265C203.317 115.676 205.862 115.477 207.331 116.309C209.151 117.348 208.453 119.506 208.227 121.173Z" fill="#D7E8F0"/>
<path d="M205.363 138.568C206.611 138.568 207.622 137.556 207.622 136.309C207.622 135.061 206.611 134.049 205.363 134.049C204.116 134.049 203.104 135.061 203.104 136.309C203.104 137.556 204.116 138.568 205.363 138.568Z" fill="white"/>
<path d="M208.227 121.173C207.742 124.527 207.331 128.062 206.347 131.337C206.107 132.114 204.633 132.114 204.393 131.337C203.686 128.884 203.143 126.387 202.767 123.862C202.467 122.014 201.381 119.057 202.421 117.265C203.317 115.676 205.862 115.477 207.331 116.308C209.151 117.348 208.453 119.506 208.227 121.173Z" fill="white"/>
<path d="M166.506 94.0078H242.058" stroke="white" stroke-width="4.72" stroke-miterlimit="10"/>
<path d="M166.506 101.441H242.058" stroke="white" stroke-width="4.72" stroke-miterlimit="10"/>
<path d="M166.506 149.342H242.058" stroke="white" stroke-width="4.72" stroke-miterlimit="10"/>
<path d="M260.452 168.51C260.738 168.732 261.237 75.3245 261.237 75.3245L232.815 64.3381C232.815 64.3381 211.687 116.133 212.966 116.655L218.671 118.965C218.671 118.965 220.08 117.852 223.346 125.895C226.611 133.938 250.151 160.587 260.452 168.51Z" fill="white"/>
<path d="M184.055 156.378H224.51" stroke="white" stroke-width="4.72" stroke-miterlimit="10"/>
<path d="M374.181 210.538C373.811 214.567 368.841 260.776 373.659 269.799C375.405 273.065 358.074 269.937 357.03 269.697C341.325 266.001 326.617 259.187 312.852 250.898C299.087 242.61 286.924 231.702 272.572 224.352C269.921 222.994 264.05 220.018 265.787 216.124C268.743 209.489 272.374 200.332 272.66 192.234L272.572 181.608C272.572 181.608 270.475 174.936 277.316 180.781C284.157 186.625 315.462 202.033 335.726 184.181C355.99 166.329 357.191 152.211 357.191 152.211C357.191 152.211 344.216 120.453 307.276 139.88L320.326 106.154C320.326 106.154 318.538 103.885 324.192 104.306C329.846 104.726 340.331 101.931 341.629 91.5684C341.629 91.5684 341.731 88.1866 347.713 94.5807C353.695 100.975 381.964 125.946 374.181 210.538Z" fill="#2E2E2E"/>
<path d="M301.558 90.9077C304.727 88.5829 308.277 86.8273 312.048 85.7195" stroke="black" stroke-width="4.72" stroke-miterlimit="10"/>
<path d="M287.515 248.588L262.11 340.452L239.014 423.991L224.306 425.377C220.934 425.688 217.8 427.247 215.517 429.748C213.234 432.25 211.967 435.513 211.964 438.9H257.449L290.393 382.111L314.898 339.861L353.21 273.795C354.318 271.869 355.395 269.942 356.443 267.974C356.461 267.951 356.47 267.924 356.471 267.895" stroke="black" stroke-width="4.72" stroke-miterlimit="10"/>
<path d="M373.239 217.602C373.585 215.357 373.89 213.111 374.162 210.852C374.162 210.746 374.162 210.654 374.19 210.547C375.745 196.866 376.076 183.073 375.179 169.332C375.185 169.292 375.185 169.252 375.179 169.212C374.162 154.257 371.419 138.549 365.94 123.234C364.35 118.817 362.382 114.544 360.06 110.464V110.464C359.889 110.127 359.695 109.794 359.483 109.462C358.753 108.187 357.968 106.944 357.173 105.715C356.097 104.093 354.956 102.518 353.759 101.016C351.976 98.7364 349.997 96.6155 347.847 94.6777C347.833 94.6729 347.82 94.665 347.81 94.6546C347.799 94.6442 347.792 94.6315 347.787 94.6176C346.189 93.2027 344.491 91.9057 342.706 90.7368C342.706 90.7368 342.706 90.7368 342.706 90.7368C342.373 90.5104 342.041 90.2979 341.703 90.0854C341.651 90.0453 341.595 90.0097 341.537 89.9791" stroke="black" stroke-width="4.72" stroke-miterlimit="10"/>
<path d="M314.898 339.861L350.623 438.9H299.073C299.072 435.682 300.24 432.574 302.359 430.153C304.478 427.732 307.404 426.163 310.593 425.738L321.813 424.236C321.813 424.236 306.727 404.37 290.402 382.106" stroke="black" stroke-width="4.72" stroke-miterlimit="10"/>
<path d="M321.236 103.811L305.752 143.802C305.285 145.009 304.581 146.112 303.684 147.044C302.786 147.977 301.712 148.722 300.524 149.236C299.336 149.75 298.057 150.022 296.763 150.037C295.469 150.052 294.184 149.809 292.985 149.323L256.308 134.474C256.29 134.424 256.275 134.374 256.262 134.322C255.8 132.474 251.061 114.761 245.315 114.761C240.903 114.761 243.005 123.497 244.853 128.441C245.065 128.972 245.264 129.471 245.444 129.896L245.157 129.776L216.44 118.069L234.552 70.3164L269.912 83.9777L321.236 103.811Z" fill="#D7E8F0"/>
<path d="M245.435 129.896C243.508 125.484 240.441 114.761 245.319 114.761C251.065 114.761 255.8 132.488 256.267 134.322L256.313 134.474L292.985 149.328C294.186 149.813 295.472 150.055 296.768 150.039C298.064 150.022 299.343 149.748 300.532 149.232C301.721 148.716 302.795 147.969 303.692 147.033C304.589 146.098 305.291 144.993 305.757 143.784L323.009 99.2007L268.17 77.9995L232.815 64.3381L212.952 116.655L245.435 129.896Z" stroke="black" stroke-width="4.72" stroke-miterlimit="10"/>
<path d="M359.108 128.773C360.208 147.946 355.926 172.474 331.486 186.911C295.331 208.293 247.481 159.852 229.766 136.345C226.839 132.485 224.367 128.299 222.399 123.871C221.802 122.583 221.302 121.252 220.902 119.889" stroke="black" stroke-width="4.72" stroke-miterlimit="10"/>
<path d="M272.254 177.468C272.254 177.468 275.025 197.662 266.48 214.83L266.517 214.784C266.517 214.784 266.517 214.816 266.489 214.83C253.37 239.441 234.589 278.701 245.065 307.23C248.626 316.932 254.765 328.482 262.105 340.457" stroke="black" stroke-width="4.72" stroke-miterlimit="10"/>
<path d="M335.865 60.4435L335.892 60.5728C336.115 63.2776 335.254 65.96 333.499 68.0299C331.744 70.0997 329.238 71.3875 326.534 71.61C324.803 71.7601 323.063 71.456 321.485 70.7276C321.033 70.536 320.599 70.3057 320.187 70.0392C320.018 69.9217 319.881 69.7652 319.786 69.583C319.69 69.4008 319.641 69.1983 319.641 68.9928C319.641 68.7872 319.69 68.5847 319.786 68.4025C319.881 68.2203 320.018 68.0638 320.187 67.9463C322.173 66.5141 323.989 64.5183 324.506 62.1806C324.662 61.4616 324.674 60.7191 324.543 59.9953C324.402 59.0728 324.021 58.2035 323.439 57.474C322.857 56.7444 322.094 56.1801 321.226 55.8373C320.955 55.7567 320.674 55.7116 320.39 55.7033C319.591 55.6387 318.543 55.7403 318.335 56.3317C319.355 53.4648 319.397 50.3408 318.455 47.4474C317.869 45.6572 316.882 44.0247 315.568 42.6749C315.628 43.1979 315.571 43.7276 315.403 44.2263C315.235 44.725 314.959 45.1805 314.595 45.5604C314.23 45.9402 313.787 46.235 313.295 46.4238C312.804 46.6126 312.277 46.6908 311.752 46.6528C307.683 46.5142 306.916 42.6334 306.916 42.6334C306.916 42.6334 306.916 42.6796 306.916 42.7073C305.142 47.1286 299.987 47.2487 296.292 45.2852C294.982 44.6127 293.83 43.6675 292.915 42.5132C291.867 37.981 295.604 33.6013 299.913 32.9729C300.006 30.0901 302.108 27.0039 304.944 26.7683C305.932 26.6838 306.925 26.866 307.818 27.2959C308.712 27.7257 309.474 28.3875 310.025 29.2123C310.103 29.337 310.191 29.471 310.26 29.6096C311.42 27.9279 313.318 26.0845 315.342 25.9136C316.745 25.815 318.145 26.1505 319.351 26.8744C320.557 27.5984 321.512 28.6758 322.086 29.9607C322.086 29.762 323.864 28.9489 324.044 28.875C325.705 28.2434 327.529 28.1826 329.228 28.702C330.928 29.2214 332.406 30.2917 333.43 31.744C333.533 32.1455 333.601 32.5551 333.634 32.9683C333.735 34.2039 333.545 35.4462 333.079 36.595C333.736 36.7822 334.349 37.0961 334.885 37.519C336.046 38.3687 336.825 39.6421 337.052 41.0626C337.075 41.2058 337.089 41.349 337.098 41.4922C337.191 42.5747 336.959 43.6602 336.433 44.6107C337.799 45.001 339.04 45.7412 340.032 46.7581C341.024 47.775 341.734 49.0334 342.091 50.4088C342.204 50.864 342.28 51.3275 342.318 51.7948C342.475 53.7743 341.907 55.7435 340.72 57.3349C339.533 58.9263 337.807 60.0313 335.865 60.4435Z" fill="#38B6FF"/>
<path d="M335.865 60.4434L335.892 60.5728C336.115 63.2776 335.254 65.96 333.499 68.0299C331.743 70.0997 329.238 71.3875 326.534 71.61C324.803 71.7601 323.063 71.456 321.485 70.7276C323.471 69.2953 325.287 67.2949 325.799 64.9572C325.981 64.088 325.962 63.1887 325.741 62.3285C325.521 61.4682 325.106 60.67 324.529 59.9953C324.388 59.0728 324.007 58.2035 323.425 57.474C322.843 56.7444 322.08 56.1801 321.213 55.8373C320.941 55.7566 320.66 55.7116 320.376 55.7033C320.651 52.8137 319.971 49.9139 318.441 47.4474C317.855 45.6572 316.868 44.0247 315.554 42.6749C315.614 43.1979 315.558 43.7276 315.389 44.2263C315.221 44.725 314.945 45.1805 314.581 45.5603C314.216 45.9402 313.773 46.235 313.282 46.4238C312.79 46.6126 312.263 46.6908 311.739 46.6527C307.669 46.5141 306.902 42.6333 306.902 42.6333C306.902 42.6333 306.902 42.6795 306.902 42.7073C305.129 47.1286 299.973 47.2487 296.278 45.2852C294.968 44.6127 293.816 43.6675 292.902 42.5132C291.853 37.981 295.59 33.6012 299.9 32.9729C299.992 30.09 302.094 27.0039 304.93 26.7683C305.918 26.6838 306.911 26.866 307.804 27.2958C308.698 27.7257 309.46 28.3875 310.011 29.2122C310.09 29.337 310.177 29.471 310.247 29.6096C311.406 27.9279 313.304 26.0845 315.328 25.9136C316.733 25.8121 318.136 26.1461 319.345 26.8703C320.554 27.5944 321.511 28.6734 322.086 29.9607C322.086 29.762 323.864 28.9489 324.044 28.875C325.705 28.2434 327.529 28.1825 329.228 28.702C330.928 29.2214 332.406 30.2916 333.43 31.744C333.533 32.1455 333.601 32.5551 333.634 32.9683C333.735 34.2039 333.545 35.4462 333.079 36.595C333.736 36.7822 334.349 37.0961 334.885 37.519C334.801 38.1537 334.635 38.7748 334.391 39.367C335.416 39.6671 336.337 40.2461 337.052 41.0394C337.075 41.1827 337.089 41.3259 337.098 41.4691C337.191 42.5516 336.959 43.6371 336.433 44.5876C337.12 44.7837 337.779 45.0695 338.391 45.4377C338.292 46.1131 338.073 46.7655 337.745 47.3642C339.491 47.8556 341.022 48.9197 342.091 50.3857C342.204 50.8408 342.28 51.3043 342.318 51.7717C342.481 53.7549 341.916 55.7298 340.728 57.3261C339.54 58.9225 337.811 60.0308 335.865 60.4434Z" fill="#38B6FF"/>
<path d="M299.969 51.1849C299.969 51.1849 305.826 51.2681 307.17 56.2115" stroke="black" stroke-width="4.72" stroke-miterlimit="10"/>
<path d="M298.458 65.9966C297.126 66.3254 295.742 66.3929 294.384 66.1953C294.129 66.1515 293.888 66.0465 293.682 65.8893C293.476 65.7321 293.312 65.5273 293.202 65.2926C293.093 65.0578 293.042 64.8 293.054 64.5412C293.066 64.2825 293.14 64.0305 293.271 63.8068C294.49 61.7416 295.747 59.6996 297.114 57.7361C297.329 57.4863 297.461 57.1766 297.493 56.849C297.493 56.849 296.929 50.7368 298.163 46.0475" stroke="black" stroke-width="4.72" stroke-miterlimit="10"/>
<path d="M303.067 56.386C303.191 55.4012 302.613 54.5174 301.775 54.412C300.937 54.3065 300.157 55.0194 300.033 56.0042C299.91 56.989 300.488 57.8728 301.326 57.9782C302.164 58.0836 302.944 57.3707 303.067 56.386Z" fill="black"/>
<path d="M330.742 70.3118C330.867 71.5361 336.359 80.0138 341.325 89.3739C341.322 89.3892 341.322 89.4048 341.325 89.4201C341.417 89.6187 341.509 89.8313 341.616 90.0438" stroke="black" stroke-width="4.72" stroke-linecap="round" stroke-linejoin="round"/>
<path d="M310.93 79.2745L312.658 91.573" stroke="black" stroke-width="4.72" stroke-miterlimit="10"/>
<path d="M296.343 66.3063C296.343 66.3063 298.846 78.4846 305.004 80.328C311.161 82.1713 316.506 74.4883 316.506 74.4883" stroke="black" stroke-width="4.72" stroke-linecap="round" stroke-linejoin="round"/>
<path d="M298.024 71.7994C298.842 72.2775 299.767 72.5439 300.713 72.5746C301.66 72.6052 302.6 72.3992 303.447 71.975" stroke="black" stroke-width="4.72" stroke-linecap="round" stroke-linejoin="round"/>
<path d="M309.586 29.0552C309.513 28.1105 309.194 27.2013 308.662 26.4172C307.985 25.3783 306.98 24.5963 305.806 24.1962C304.633 23.7961 303.359 23.801 302.189 24.2102C301.019 24.6193 300.019 25.4091 299.35 26.4532C298.682 27.4974 298.382 28.7356 298.5 29.97" stroke="black" stroke-width="4.72" stroke-miterlimit="10" stroke-linecap="round"/>
<path d="M309.35 26.1954C310.459 24.3474 311.683 23.3126 313.97 23.1231C315.388 23.0072 316.808 23.3377 318.029 24.0683C319.251 24.7989 320.214 25.8932 320.783 27.198C320.704 27.0178 322.561 26.1723 322.751 26.0984C323.491 25.8153 324.27 25.6441 325.06 25.5902C327.17 25.4767 329.241 26.1822 330.843 27.5595C332.444 28.9368 333.453 30.8795 333.657 32.9822C333.758 34.2179 333.568 35.4601 333.102 36.6089" stroke="black" stroke-width="4.72" stroke-linecap="square" stroke-linejoin="round"/>
<path d="M341.325 89.3785C341.325 89.3785 345.639 103.728 320.972 104.504" stroke="black" stroke-width="4.72" stroke-miterlimit="10"/>
<path d="M213.073 233.148C213.031 222.656 223.341 219.833 228.279 219.926C258.881 220.508 263.496 171.009 263.496 171.009" stroke="black" stroke-width="4.72" stroke-linecap="round" stroke-linejoin="round"/>
<path d="M373.239 217.602C373.239 217.602 369.626 253.241 373.239 265.234C376.851 277.228 356.078 267.817 356.078 267.817" stroke="black" stroke-width="4.72" stroke-miterlimit="10"/>
<path d="M166.285 244.463H142.269" stroke="black" stroke-width="4.72" stroke-linecap="round" stroke-linejoin="round"/>
<path d="M252.331 244.463H206.379" stroke="black" stroke-width="4.72" stroke-linecap="round" stroke-linejoin="round"/>
<path d="M199.788 244.463H172.659" stroke="black" stroke-width="4.72" stroke-linecap="round" stroke-linejoin="round"/>
<path d="M199.09 233.148H172.267" stroke="black" stroke-width="4.72" stroke-linecap="round" stroke-linejoin="round"/>
<path d="M220.463 233.148H205.982" stroke="black" stroke-width="4.72" stroke-linecap="round" stroke-linejoin="round"/>
<path d="M257.274 233.148H229.304" stroke="black" stroke-width="4.72" stroke-linecap="round" stroke-linejoin="round"/>
<path d="M165.564 233.148H160.82" stroke="black" stroke-width="4.72" stroke-linecap="round" stroke-linejoin="round"/>
<path d="M198.203 232.132H204.407C204.407 232.132 211.516 238.845 204.407 246.528V251.896H198.203" stroke="black" stroke-width="4.72" stroke-linecap="round" stroke-linejoin="round"/>
<path d="M170.885 232.132C170.885 232.132 177.994 238.845 170.885 246.528V251.896" stroke="black" stroke-width="4.72" stroke-linecap="round" stroke-linejoin="round"/>
<path d="M170.885 251.896H164.682V246.528C171.795 238.845 164.682 232.132 164.682 232.132H170.885" stroke="black" stroke-width="4.72" stroke-linecap="round" stroke-linejoin="round"/>
<path d="M198.203 232.132C198.203 232.132 205.317 238.845 198.203 246.528V251.896" stroke="black" stroke-width="4.72" stroke-linecap="round" stroke-linejoin="round"/>
<path d="M164.682 246.528H170.885" stroke="black" stroke-width="4.72" stroke-linecap="round" stroke-linejoin="round"/>
<path d="M198.203 246.528H204.407" stroke="black" stroke-width="4.72" stroke-linecap="round" stroke-linejoin="round"/>
<path d="M222.117 229.72C221.325 230.73 220.761 231.9 220.463 233.148C220.071 234.992 219.924 236.879 220.024 238.762C220.052 240.61 220.283 242.504 222.038 243.474C224.676 244.948 227.845 242.841 227.983 239.82C228.134 237.548 228.578 235.306 229.304 233.148C229.332 233.042 229.364 232.95 229.392 232.862" stroke="black" stroke-width="4.72" stroke-linecap="round" stroke-linejoin="round"/>
<path d="M229.392 232.848C231.591 232.386 234.866 231.18 236.533 228.071" stroke="black" stroke-width="4.72" stroke-linecap="round" stroke-linejoin="round"/>
<path d="M214.389 244.463C214.389 244.463 216.117 249.018 220.463 249.572C224.81 250.127 222.062 244.463 222.062 244.463C222.062 244.463 223.863 248.454 226.043 248.588C228.224 248.722 230.108 246.74 229.355 244.463C229.355 244.463 230.02 248.126 233.245 247.724C236.469 247.322 235.138 244.463 235.138 244.463" stroke="black" stroke-width="4.72" stroke-linecap="round" stroke-linejoin="round"/>
<g opacity="0.54">
<path opacity="0.54" d="M164.807 309.351L161.689 354.386C159.998 357.445 158.095 360.152 156.4 361.825C156.173 361.741 155.938 361.658 155.721 361.557C155.305 361.413 154.894 361.247 154.501 361.095C148.182 358.323 143.415 353.162 141.983 347.336C140.727 342.213 141.863 336.678 139.424 331.864C136.449 325.936 128.338 322.217 127.363 315.523C126.439 309.263 132.07 303.511 131.16 297.385C130.107 290.455 121.599 286.334 120.01 279.556C119.016 275.343 119.903 270.51 119.548 266.158C119.127 261.309 118.307 256.504 117.095 251.79C129.654 250.866 142.44 257.796 146.51 267.715C149.836 275.833 147.831 285.317 153.037 292.714C155.864 296.72 160.575 299.713 163.01 303.908C163.76 305.215 164.304 306.63 164.622 308.103C164.645 308.205 164.645 308.311 164.663 308.39C164.686 308.556 164.705 308.681 164.723 308.805C164.765 309.166 164.807 309.351 164.807 309.351Z" fill="#38B6FF"/>
<path opacity="0.54" d="M164.83 309.332H164.807C164.807 309.332 164.765 309.147 164.723 308.796C164.763 308.939 164.79 309.084 164.807 309.231C164.83 309.268 164.83 309.309 164.83 309.332Z" fill="#38B6FF"/>
</g>
<path d="M206.324 291.771C204.67 297.616 195.792 301.169 194.716 307.161C193.764 312.469 199.631 317.426 198.661 322.818C197.631 328.607 189.2 331.808 186.106 336.932C183.584 341.09 184.761 345.853 183.459 350.275C181.953 355.296 176.992 359.778 170.363 362.153C169.952 362.3 169.56 362.444 169.144 362.568C168.918 362.628 168.682 362.712 168.442 362.772C166.252 360.974 163.753 357.814 161.707 354.405L164.825 309.369H164.848C167.264 307.322 170.031 305.442 171.952 303.169C174.04 300.711 175.01 298.027 175.648 295.218H175.657V294.908C176.581 290.464 176.65 285.816 178.738 281.603C182.969 273.028 196.249 267.059 209.326 267.844C208.094 271.893 207.249 276.05 206.804 280.258C206.425 283.982 207.359 288.154 206.324 291.771Z" fill="#F5BD33"/>
<path d="M175.657 294.872V295.181H175.597C175.629 295.075 175.657 294.973 175.657 294.872Z" fill="#38B6FF"/>
<path d="M175.657 294.871C175.657 294.973 175.615 295.075 175.597 295.181C174.978 297.99 174.008 300.674 171.902 303.132C169.98 305.405 167.213 307.29 164.797 309.332C164.797 309.332 164.797 309.267 164.774 309.249C164.758 309.102 164.73 308.957 164.691 308.815C164.691 308.69 164.654 308.565 164.631 308.399C164.631 308.32 164.631 308.214 164.589 308.112C164.272 306.639 163.728 305.224 162.977 303.917C160.543 299.722 155.831 296.729 153.005 292.723C153.005 292.723 154.284 271.61 165.084 265.183C175.343 259.108 175.657 291.356 175.657 294.871Z" fill="#38B6FF"/>
<path d="M175.657 294.872V295.181H175.597C175.629 295.075 175.657 294.973 175.657 294.872Z" fill="#38B6FF"/>
<path d="M164.807 309.249V309.351C164.807 309.351 164.765 309.166 164.723 308.815C164.763 308.957 164.79 309.102 164.807 309.249Z" fill="#38B6FF"/>
<path d="M163.846 309.355C166.252 307.304 169.042 305.4 170.973 303.132C176.387 296.738 174.304 288.57 177.777 281.561C182.004 272.996 195.33 267.027 208.375 267.812C207.131 271.858 206.283 276.016 205.844 280.226C205.455 283.973 206.384 288.149 205.382 291.776C203.719 297.616 194.845 301.159 193.764 307.156C192.808 312.46 198.688 317.417 197.714 322.809C196.679 328.597 188.258 331.795 185.154 336.918C182.627 341.076 183.815 345.839 182.503 350.27C180.914 355.611 175.403 360.332 168.183 362.554C167.952 362.633 167.721 362.712 167.472 362.772C165.282 360.974 162.783 357.819 160.732 354.405" stroke="black" stroke-width="4.72" stroke-miterlimit="10"/>
<path d="M200.393 274.53C180.904 295.509 171.754 339.746 168.174 362.564C167.883 364.49 167.62 366.26 167.393 367.84" stroke="black" stroke-width="4.72" stroke-miterlimit="10"/>
<path d="M202.19 380.688L193.21 433.605C192.998 435.056 192.278 436.385 191.178 437.354C190.079 438.324 188.671 438.872 187.205 438.9H140.385C138.907 438.868 137.489 438.308 136.388 437.322C135.287 436.335 134.575 434.988 134.38 433.522L126.112 380.688H202.19Z" stroke="black" stroke-width="4.72" stroke-miterlimit="10"/>
<path d="M210.707 374.793C210.453 378.128 207.811 380.697 204.642 380.697H123.807C120.67 380.697 118.051 378.184 117.751 374.885C117.404 371.115 120.217 367.849 123.807 367.849H204.642C208.199 367.849 210.998 371.051 210.707 374.793Z" stroke="black" stroke-width="4.72" stroke-miterlimit="10"/>
<path d="M155.439 361.834C158.908 358.387 163.153 350.718 165.037 344.449C166.585 339.279 163.855 333.961 163.231 328.662C162.252 320.346 166.377 311.434 162.03 303.913C159.61 299.718 154.898 296.733 152.071 292.714C146.861 285.322 148.861 275.851 145.531 267.734C141.475 257.796 128.689 250.889 116.134 251.79C117.334 256.51 118.147 261.32 118.564 266.172C118.938 270.51 118.042 275.343 119.026 279.57C120.619 286.348 129.137 290.45 130.181 297.394C131.105 303.534 125.46 309.277 126.389 315.527C127.386 322.231 135.465 325.936 138.454 331.873C140.879 336.696 139.743 342.222 141.004 347.341C142.584 353.735 148.173 359.353 155.439 361.834Z" stroke="black" stroke-width="4.72" stroke-miterlimit="10"/>
<path d="M123.797 259.579C142.505 283.881 151.309 335.116 154.746 361.566C155.042 363.876 155.305 365.959 155.513 367.84" stroke="black" stroke-width="4.72" stroke-miterlimit="10"/>
<path d="M152.071 292.714C152.071 292.714 153.356 271.6 164.151 265.179C174.946 258.757 174.733 294.756 174.733 294.756" stroke="black" stroke-width="4.72" stroke-miterlimit="10"/>
<path d="M163.846 309.355C163.846 309.355 161.638 297.274 165.504 285.401" stroke="black" stroke-width="4.72" stroke-miterlimit="10"/>
<path d="M412.312 244.463H371.899" stroke="black" stroke-width="4.72" stroke-linecap="round" stroke-linejoin="round"/>
<path d="M412.968 233.148H373.192" stroke="black" stroke-width="4.72" stroke-linecap="round" stroke-linejoin="round"/>
<path fill-rule="evenodd" clip-rule="evenodd" d="M74.8985 95.5819C75.4635 95.5819 75.9601 95.668 76.412 95.5632C77.2487 95.3694 78.3745 93.6645 78.3103 92.7989C78.3008 92.6663 78.2573 92.4733 78.1658 92.4203C77.7462 92.1792 77.3034 91.9779 76.8693 91.7621C76.6117 92.2057 75.8139 91.7083 75.705 92.4431C75.6603 92.7458 74.9685 92.5524 75.1529 93.0896C74.7059 93.8841 75.0332 94.7299 74.8985 95.5819ZM72.6904 92.1399C72.8263 91.9071 73.0027 91.6921 73.0868 91.4457C73.3917 90.5526 74.1832 90.2093 74.9433 89.9947C75.4714 89.8456 76.0334 89.6675 76.6407 89.7102C78.02 89.8075 78.9888 90.4549 79.6788 91.6242C80.0007 92.1693 80.303 92.7206 80.4389 93.3344C80.5304 93.7499 80.6427 94.2312 80.5205 94.6102C80.0462 96.0818 79.2373 97.317 77.7064 97.9018C77.2847 98.0625 76.8461 98.1806 76.4129 98.3111C76.3441 98.3322 76.2517 98.34 76.1908 98.3102C75.0808 97.7709 74.008 97.1567 73.3635 96.0632C73.0868 95.5939 72.8304 95.0509 72.8984 94.4606C72.9804 93.7449 72.6747 92.9919 73.1021 92.3101C72.9742 92.2571 72.8458 92.2041 72.6904 92.1399Z" fill="#38B6FF"/>
<path fill-rule="evenodd" clip-rule="evenodd" d="M39.6854 105.402C39.3267 105.32 39.1175 105.17 39.2463 104.746C39.3018 104.72 39.4 104.694 39.4766 104.638C40.2081 104.11 41.1077 104.03 41.9312 103.768C42.2903 103.654 42.8602 103.756 43.1609 103.986C44.0958 104.703 45.1329 105.325 45.5753 106.555C45.9406 107.57 45.7932 108.873 45.1479 109.704C44.7734 110.186 44.249 110.489 43.8634 110.979C43.2313 110.876 42.5653 111.133 41.9366 110.753C41.6429 110.575 40.3642 109.899 40.1141 109.712C39.5313 109.277 39.3039 108.64 39.086 107.994C39.0409 107.861 38.9692 107.691 39.0144 107.581C39.3035 106.873 39.0976 106.024 39.6854 105.402Z" fill="#38B6FF"/>
<path fill-rule="evenodd" clip-rule="evenodd" d="M90.7098 82.1309C91.6074 82.9871 93.1068 83.4646 94.3394 83.4178C94.9301 83.3959 95.3762 83.1884 95.7676 82.7841C95.9942 82.5501 96.2265 82.3223 96.4622 82.0862C96.3284 81.9019 96.2083 81.8 96.1706 81.6732C95.9958 81.0917 95.6777 80.7268 95.0204 80.6771C94.7222 80.6547 94.4397 80.46 94.1419 80.3706C93.9472 80.3122 93.6047 80.214 93.5566 80.2856C93.2845 80.694 93.1366 80.0537 92.78 80.3643C92.5745 80.5574 92.2312 80.88 91.8857 81.2043C91.6065 80.9848 91.3866 80.8117 91.1919 80.6588C90.4845 81.0122 90.8423 81.609 90.7098 82.1309ZM97.7206 82.869C97.9368 82.944 98.0677 82.9895 98.2068 83.0376C98.0946 83.3913 97.9898 83.7227 97.8842 84.0557C97.7069 84.076 97.5292 84.0971 97.2803 84.1257C97.3627 84.2363 97.4145 84.3067 97.4948 84.4148C97.1121 84.8858 96.6722 85.2474 95.9934 85.2175C95.8239 85.2101 95.6467 85.278 95.4802 85.3327C95.0179 85.4847 94.5677 85.5166 94.1079 85.3095C93.9505 85.2387 93.6523 85.1583 93.6018 85.2233C93.1784 85.7705 92.8301 85.0668 92.4151 85.1616C92.2407 85.2014 92.0754 84.7458 91.7026 84.7329C91.5034 84.7263 91.327 84.4326 91.1153 84.3133C90.8676 84.1737 90.7703 83.801 90.4033 83.8548C90.231 83.2977 89.6739 83.0405 89.3943 82.5782C88.7718 81.5494 88.7709 80.0707 89.2829 79.0753C89.7356 78.1935 90.5893 77.9355 91.3738 78.5286C91.754 78.8165 92.0427 79.0455 92.476 78.698C92.6251 78.9345 92.7638 78.8393 92.8723 78.6698C93.0451 78.4002 93.3081 78.3845 93.5649 78.4379C94.4579 78.6255 95.3646 78.8786 96.0832 79.4171C96.7153 79.8909 97.168 80.6037 97.6999 81.211C97.6568 81.7498 98.3415 82.2589 97.7206 82.869Z" fill="#38B6FF"/>
<path fill-rule="evenodd" clip-rule="evenodd" d="M105.949 108.569C106.289 108.392 106.67 108.099 107.228 108.326C107.168 108.406 107.118 108.475 107.016 108.616C107.236 108.673 107.593 108.684 107.62 108.785C107.805 109.478 108.587 109.674 108.821 110.316C109.216 111.403 109.563 112.487 108.982 113.612C108.918 113.737 108.852 113.766 108.944 113.943C109.201 114.431 108.962 114.782 108.514 115.036C108.203 115.212 108.375 115.387 108.556 115.564C108.167 116.063 107.777 116.565 107.393 117.058H106.151C105.922 116.811 105.64 116.513 105.363 116.21C105.114 115.938 104.789 115.768 104.564 115.441C104.056 114.699 103.959 113.898 104.129 113.073C104.262 112.432 104.577 111.83 104.735 111.192C104.838 110.775 104.94 110.44 105.356 110.212C105.524 110.121 105.639 109.786 105.634 109.565C105.627 109.241 105.852 109.12 105.993 108.915C106.039 108.848 105.97 108.702 105.949 108.569Z" fill="#38B6FF"/>
<path fill-rule="evenodd" clip-rule="evenodd" d="M117.393 73.1143C117.34 73.0613 117.263 73.0178 117.237 72.9536C117.053 72.4847 116.557 72.563 116.213 72.4371C116.028 72.3695 115.702 72.6756 115.446 72.8227C115.332 72.8881 115.104 73.2626 114.952 73.5339C114.834 73.7447 114.705 74.0889 114.547 74.1092C114.19 74.156 114.263 74.3544 114.23 74.5673C114.208 74.7139 114.11 74.849 114.054 74.972C114.845 75.7764 115.59 75.4392 116.405 75.0606C117.294 74.6477 117.449 73.9576 117.393 73.1143ZM115.307 77.0761C115.137 77.3255 114.986 77.5433 114.832 77.7699C114.73 77.6755 114.64 77.5301 114.574 77.54C113.769 77.6606 113.503 76.8864 112.962 76.577C112.901 76.5422 112.859 76.3219 112.896 76.29C113.459 75.8095 112.859 75.4545 112.784 75.0391C112.695 75.119 112.616 75.1907 112.536 75.2615C112.509 75.2346 112.458 75.2068 112.459 75.1816C112.486 74.6891 112.218 74.1527 112.713 73.7265C112.826 73.6291 112.804 73.3918 112.888 73.2431C113.102 72.862 113.159 72.3588 113.551 72.1198C113.953 71.8737 113.796 71.373 114.197 71.0843C114.878 70.5939 115.941 70.3453 116.739 70.6432C117.896 71.076 118.634 71.957 119.065 73.0223C119.412 73.8797 119.576 74.8514 119.415 75.7925C119.321 76.3405 118.839 76.717 118.412 77.0463C118.283 77.1449 117.962 76.9933 117.661 76.9452C117.681 77.0231 117.684 77.1917 117.762 77.3122C117.882 77.4969 117.93 77.6701 117.699 77.7442C117.465 77.82 117.378 77.6577 117.393 77.4265C117.395 77.3888 117.29 77.3441 117.173 77.2567C116.996 77.4042 116.805 77.5636 116.575 77.7554C116.539 77.6307 116.504 77.5085 116.437 77.2774C116.14 77.5529 115.873 77.8001 115.481 78.1626C115.407 77.7011 115.36 77.4046 115.307 77.0761Z" fill="#38B6FF"/>
<path fill-rule="evenodd" clip-rule="evenodd" d="M58.4041 88.7275C58.591 88.8853 58.6738 88.9553 58.7753 89.0407C58.8465 88.8969 58.8999 88.6447 58.9948 88.6281C59.2359 88.5859 59.5581 88.5606 59.7358 88.6865C60.2689 89.0655 60.8293 89.4561 61.2249 89.9631C61.5993 90.444 61.8482 91.0574 62.0168 91.6514C62.1141 91.9952 62.0591 92.3891 61.8582 92.8045C61.4456 93.6549 61.0323 94.4178 60.1715 94.9182C59.7909 95.1394 59.363 95.1493 59.0027 95.3726C58.8602 95.4612 58.687 95.4997 58.521 95.5635C58.4592 95.4542 58.3797 95.3129 58.3002 95.1721C58.1726 95.3543 58.0869 95.3328 57.8918 95.1982C57.5414 94.9559 56.86 94.3362 56.5647 94.0947C55.6141 93.3185 56.1617 92.353 56.2031 91.4679C56.213 91.2459 56.5676 91.0396 56.7772 90.8118C57.5538 91.2293 57.9552 91.8962 58.2269 92.633C58.9886 92.5382 59.112 91.8274 59.5304 91.4314C59.6227 91.344 59.5602 91.0922 59.5776 90.7323C59.2123 91.0972 58.9699 91.3395 58.7666 91.5424C58.1937 91.5018 58.2629 90.8114 57.7804 90.7695C57.7725 90.3222 57.6959 89.8604 57.7828 89.4325C57.8325 89.1894 58.1511 89.0013 58.4041 88.7275Z" fill="#38B6FF"/>
<path fill-rule="evenodd" clip-rule="evenodd" d="M101.564 59.3639C101.887 59.0404 102.127 58.8006 102.407 58.521H103.807C103.953 57.9101 103.501 58.1573 103.21 58.0766C103.241 57.9979 103.25 57.9038 103.301 57.8595C103.658 57.553 103.13 57.4337 103.18 57.1222C103.419 56.5544 104.085 56.4508 104.586 56.1414C104.727 56.0536 105.003 56.1021 105.184 56.1733C106.101 56.5353 106.433 57.3579 106.802 58.1872C107.04 58.7202 106.819 59.3498 107.234 59.8158C107.07 60.4255 107.006 61.0899 106.712 61.6292C106.4 62.202 105.732 62.5139 105.105 62.5764C104.758 62.6112 104.455 63.0192 104.113 62.7546C103.824 62.5301 103.416 62.6564 103.153 62.3014C102.965 62.0483 102.549 62.0314 102.435 61.589C102.38 61.3707 101.962 61.3359 101.774 60.9892C101.47 60.4301 101.695 59.8962 101.564 59.3639Z" fill="#38B6FF"/>
<path fill-rule="evenodd" clip-rule="evenodd" d="M97.5943 94.7494C97.7347 95.3094 97.8581 95.7803 97.9679 96.2542C97.9927 96.3606 98.0197 96.5296 97.9642 96.5814C97.4667 97.042 97.929 97.4206 98.0499 97.8273C98.9193 97.8414 98.8953 97.7867 99.3414 97.1517C99.872 96.3958 99.7808 95.5736 99.7659 94.7506C99.7634 94.6011 99.6205 94.4209 99.493 94.3132C99.2382 94.0978 98.8187 94.4304 98.5867 94.0717L98.3502 94.4333C97.9111 94.1401 97.8001 94.6106 97.5943 94.7494ZM96.5617 95.4742C96.4262 95.2112 96.2825 94.9325 96.1653 94.7046C96.2929 94.0295 97.0612 94.2163 97.3114 93.6919C97.5566 93.1771 98.3059 93.3966 98.7072 92.8772C98.5482 92.7703 98.3941 92.6672 98.2371 92.5616C98.2595 92.533 98.291 92.453 98.3345 92.4452C99.0953 92.3064 99.6504 92.7132 100.168 93.1754C100.599 93.5598 100.846 94.0854 101.17 94.5506C101.352 94.8119 101.035 95.0526 101.31 95.2191C101.556 95.3686 101.632 95.6117 101.586 95.8905C101.535 96.1966 101.824 96.5263 101.772 96.6854C101.65 97.0598 101.64 97.4516 101.515 97.8149C101.28 98.4929 100.936 99.1105 100.405 99.608C100.1 99.8933 99.6715 99.9894 99.1343 99.8954C97.8378 99.6688 97.8225 99.6825 97.2381 99.0401C96.78 98.5368 96.483 97.9619 96.36 97.2582C96.2895 96.8589 96.0526 96.5068 96.3339 96.1117C95.9569 95.7497 96.5269 95.7584 96.5617 95.4742Z" fill="#38B6FF"/>
<path fill-rule="evenodd" clip-rule="evenodd" d="M66.2756 64.8359C67.3036 65.415 67.5406 65.8979 66.9756 66.7802C66.6844 67.2354 67.0448 67.7482 66.6335 68.1218C66.5726 68.1769 66.7329 68.4784 66.7937 68.6648C66.9623 69.1772 67.1288 69.2232 67.6864 69.0761C68.7508 68.7961 69.2549 68.0431 69.5113 67.0225C69.1145 66.9098 68.7152 66.8022 68.3193 66.6829C67.8359 66.5375 68.0115 65.9945 67.8135 65.7451C68.0413 65.5173 68.2915 65.2671 68.5421 65.0169C69.2305 64.6322 69.658 65.3843 70.2855 65.5546C70.7461 66.2981 71.3889 66.943 71.3226 67.9391C71.2381 69.1966 70.6964 70.245 69.3224 70.7482C68.1759 71.1691 67.2688 70.9926 66.2851 70.1182C65.6858 69.5856 65.197 69.0368 65.1759 68.0907C65.1469 66.8415 65.3859 65.7439 66.2756 64.8359Z" fill="#38B6FF"/>
<path fill-rule="evenodd" clip-rule="evenodd" d="M64.6992 111.142C63.7192 111.43 63.1472 110.77 62.4882 110.376C61.8839 110.014 61.8052 109.302 61.6263 108.717C61.4614 108.175 61.7944 107.612 61.9907 107.087C62.156 106.646 62.429 106.244 62.6526 105.827C62.5503 105.79 62.4199 105.742 62.2625 105.685C62.429 105.51 62.5756 105.356 62.7578 105.164C62.5238 105.121 62.318 105.084 61.9796 105.023C62.1983 104.86 62.3528 104.65 62.4928 104.659C62.8838 104.686 63.2665 104.55 63.6778 104.775C64.7249 105.346 65.26 106.302 65.6461 107.328C66.1874 108.768 65.8979 110.077 64.6992 111.142Z" fill="#38B6FF"/>
<path fill-rule="evenodd" clip-rule="evenodd" d="M77.2438 116.501C77.1361 116.718 77.0437 116.903 76.9368 117.118C77.6799 117.882 77.9868 118.802 77.8684 119.868C77.8398 120.121 77.8468 120.339 77.6575 120.576C77.2988 121.026 77.25 121.682 76.5537 121.92C76.2522 122.023 75.9233 122.108 75.7203 122.004C75.1553 121.713 74.5059 121.489 74.1555 120.908C73.9803 120.618 73.8179 120.317 73.781 119.935C73.6588 118.681 74.1683 117.64 74.8062 116.642C74.9495 116.417 75.1922 116.255 75.4813 116.124C75.8143 115.974 76.0202 115.852 76.3536 116.1C76.5964 116.282 76.9165 116.36 77.2438 116.501Z" fill="#38B6FF"/>
<path fill-rule="evenodd" clip-rule="evenodd" d="M117.972 90.6242C117.526 90.2808 117.264 89.6612 116.568 89.6869C116.394 89.3849 116.118 89.1 116.066 88.7781C115.939 87.9982 116.122 87.3019 116.928 86.92C117.023 86.8749 117.088 86.7659 117.192 86.6624C117.051 86.6147 116.926 86.5721 116.913 86.5679C117.109 86.3716 117.351 86.1297 117.593 85.8882C117.541 85.8265 117.488 85.7652 117.436 85.7035C117.54 85.6894 117.648 85.6497 117.746 85.6666C118.199 85.7449 118.722 85.4363 119.106 85.8994C119.607 86.5013 119.976 87.1565 120.122 87.9485C120.317 88.9997 119.301 90.162 118.531 90.5368C118.334 90.6321 118.09 90.2469 117.972 90.6242Z" fill="#38B6FF"/>
<path fill-rule="evenodd" clip-rule="evenodd" d="M88.0308 104.376C88.0308 104.687 88.0113 104.841 88.0341 104.988C88.1517 105.754 87.5122 106.025 87.0674 106.363C86.625 106.698 86.2021 106.206 85.7883 106.083C85.4018 105.969 85.0833 105.598 84.7578 105.315C84.2089 104.837 84.0035 103.703 84.3514 103.024C84.4305 102.87 84.346 102.607 84.713 102.572C84.9321 102.551 85.1392 102.202 85.3153 101.973C85.7767 101.376 86.181 101.307 86.6751 101.829C86.9978 102.17 87.3718 102.449 87.6021 102.906C87.8688 103.436 88.1683 103.917 88.0308 104.376Z" fill="#38B6FF"/>
<path fill-rule="evenodd" clip-rule="evenodd" d="M75.7213 78.6585C76.2096 79.1833 76.7539 79.6369 77.0103 80.3754C77.328 81.2899 77.1548 81.7891 76.3769 82.3221C75.4906 82.9298 74.8978 82.8246 74.1241 82.0355C74.0189 81.9282 73.912 81.823 73.8271 81.7385C73.6987 81.3425 73.9928 80.8857 73.5716 80.5763C73.3375 79.5333 74.0425 78.6788 75.1551 78.6589C75.3427 78.6556 75.5303 78.6585 75.7213 78.6585Z" fill="#38B6FF"/>
<path fill-rule="evenodd" clip-rule="evenodd" d="M86.2232 67.0475C86.4266 66.8889 86.5508 66.7919 86.6751 66.695C86.5297 66.5728 86.3843 66.4502 86.2422 66.3309C86.3002 66.2663 86.3702 66.188 86.4684 66.0791C86.2124 66.0228 85.9846 65.9731 85.7108 65.9134C86.031 65.054 86.8176 64.9914 87.4339 64.7106C87.5544 64.6559 87.8141 64.8145 87.9632 64.933C88.5676 65.4114 89.0079 66.0228 89.314 66.7286C89.3541 66.8218 89.408 66.9903 89.3699 67.0231C88.8364 67.4783 89.5405 68.3593 88.8413 68.6641C88.7042 68.7238 88.3965 68.3721 88.0283 68.3464C88.1778 68.51 88.3265 68.6741 88.4967 68.8609C88.2225 69.0427 87.9637 69.2316 87.6861 69.3877C87.6012 69.4362 87.465 69.4043 87.354 69.3919C87.2877 69.3844 87.1671 69.3343 87.1696 69.3182C87.2612 68.701 86.5251 69.1595 86.4431 68.7544C86.4025 68.554 86.2518 68.3705 86.2331 68.1716C86.1983 67.8005 86.2232 67.424 86.2232 67.0475Z" fill="#38B6FF"/>
<path fill-rule="evenodd" clip-rule="evenodd" d="M87.8265 50.497V50H88.8331C89.3433 50.7663 90.0417 51.4924 89.7948 52.6467C89.6333 52.6571 89.4307 52.6695 89.147 52.6873V51.7554C88.966 51.7898 88.8268 51.7749 88.7759 51.8349C88.6906 51.9347 88.6819 52.0963 88.6057 52.2073C88.4648 52.4119 88.3878 52.3659 88.1989 52.0623C88.0713 51.8569 87.8961 51.6804 87.7201 51.4642C87.9516 51.3573 88.1049 51.2869 88.2685 51.2115C87.793 50.9767 87.8013 50.985 88.1931 50.5778C88.261 50.5074 88.2225 50.3347 88.2407 50.1147C88.0726 50.2705 87.9939 50.3425 87.8265 50.497Z" fill="#38B6FF"/>
<path fill-rule="evenodd" clip-rule="evenodd" d="M428.899 359.582C429.464 359.582 429.96 359.668 430.412 359.563C431.249 359.369 432.375 357.665 432.31 356.799C432.301 356.666 432.257 356.473 432.166 356.42C431.746 356.179 431.303 355.978 430.869 355.762C430.612 356.206 429.814 355.708 429.705 356.443C429.66 356.746 428.969 356.552 429.153 357.09C428.706 357.884 429.033 358.73 428.899 359.582ZM426.69 356.14C426.826 355.907 427.003 355.692 427.087 355.446C427.392 354.553 428.183 354.209 428.943 353.995C429.471 353.846 430.033 353.668 430.641 353.71C432.02 353.808 432.989 354.455 433.679 355.624C434.001 356.169 434.303 356.721 434.439 357.334C434.53 357.75 434.643 358.231 434.52 358.61C434.046 360.082 433.237 361.317 431.706 361.902C431.285 362.063 430.846 362.181 430.413 362.311C430.344 362.332 430.252 362.34 430.191 362.31C429.081 361.771 428.008 361.157 427.364 360.063C427.087 359.594 426.83 359.051 426.898 358.461C426.98 357.745 426.675 356.992 427.102 356.31C426.974 356.257 426.846 356.204 426.69 356.14Z" fill="#38B6FF"/>
<path fill-rule="evenodd" clip-rule="evenodd" d="M393.685 369.402C393.327 369.32 393.118 369.17 393.246 368.746C393.302 368.72 393.4 368.694 393.477 368.638C394.208 368.11 395.108 368.03 395.931 367.768C396.29 367.654 396.86 367.756 397.161 367.986C398.096 368.703 399.133 369.325 399.575 370.555C399.941 371.57 399.793 372.873 399.148 373.704C398.773 374.186 398.249 374.489 397.863 374.979C397.231 374.876 396.565 375.133 395.937 374.753C395.643 374.575 394.364 373.899 394.114 373.712C393.531 373.277 393.304 372.64 393.086 371.994C393.041 371.861 392.969 371.691 393.014 371.581C393.303 370.873 393.098 370.024 393.685 369.402Z" fill="#38B6FF"/>
<path fill-rule="evenodd" clip-rule="evenodd" d="M444.71 346.131C445.607 346.987 447.107 347.465 448.339 347.418C448.93 347.396 449.376 347.188 449.768 346.784C449.994 346.55 450.227 346.322 450.462 346.086C450.328 345.902 450.208 345.8 450.171 345.673C449.996 345.092 449.678 344.727 449.02 344.677C448.722 344.655 448.44 344.46 448.142 344.371C447.947 344.312 447.605 344.214 447.557 344.286C447.284 344.694 447.137 344.054 446.78 344.364C446.575 344.557 446.231 344.88 445.886 345.204C445.607 344.985 445.387 344.812 445.192 344.659C444.484 345.012 444.842 345.609 444.71 346.131ZM451.721 346.869C451.937 346.944 452.068 346.99 452.207 347.038C452.095 347.391 451.99 347.723 451.884 348.056C451.707 348.076 451.529 348.097 451.28 348.126C451.363 348.236 451.414 348.307 451.495 348.415C451.112 348.886 450.672 349.247 449.993 349.218C449.824 349.21 449.647 349.278 449.48 349.333C449.018 349.485 448.568 349.517 448.108 349.309C447.95 349.239 447.652 349.158 447.602 349.223C447.178 349.77 446.83 349.067 446.415 349.162C446.241 349.201 446.075 348.746 445.703 348.733C445.503 348.726 445.327 348.433 445.115 348.313C444.868 348.174 444.77 347.801 444.403 347.855C444.231 347.298 443.674 347.04 443.394 346.578C442.772 345.549 442.771 344.071 443.283 343.075C443.736 342.194 444.589 341.935 445.374 342.529C445.754 342.816 446.043 343.046 446.476 342.698C446.625 342.935 446.764 342.839 446.872 342.67C447.045 342.4 447.308 342.384 447.565 342.438C448.458 342.626 449.365 342.879 450.083 343.417C450.715 343.891 451.168 344.604 451.7 345.211C451.657 345.75 452.341 346.259 451.721 346.869Z" fill="#38B6FF"/>
<path fill-rule="evenodd" clip-rule="evenodd" d="M459.949 372.569C460.289 372.392 460.67 372.099 461.228 372.326C461.168 372.406 461.118 372.475 461.016 372.616C461.236 372.673 461.593 372.684 461.62 372.785C461.805 373.478 462.587 373.674 462.821 374.316C463.216 375.403 463.563 376.487 462.982 377.612C462.918 377.737 462.852 377.766 462.944 377.943C463.201 378.431 462.962 378.782 462.514 379.036C462.203 379.212 462.375 379.387 462.556 379.564C462.167 380.063 461.777 380.565 461.393 381.058H460.151C459.922 380.811 459.64 380.513 459.363 380.21C459.114 379.938 458.789 379.768 458.564 379.441C458.056 378.699 457.959 377.898 458.129 377.073C458.262 376.432 458.577 375.83 458.735 375.192C458.838 374.775 458.94 374.44 459.356 374.212C459.524 374.121 459.639 373.786 459.634 373.565C459.627 373.241 459.852 373.12 459.993 372.915C460.039 372.848 459.97 372.702 459.949 372.569Z" fill="#38B6FF"/>
<path fill-rule="evenodd" clip-rule="evenodd" d="M412.404 352.728C412.591 352.885 412.674 352.955 412.775 353.041C412.846 352.897 412.9 352.645 412.995 352.628C413.236 352.586 413.558 352.561 413.736 352.687C414.269 353.066 414.829 353.456 415.225 353.963C415.599 354.444 415.848 355.057 416.017 355.651C416.114 355.995 416.059 356.389 415.858 356.805C415.446 357.655 415.032 358.418 414.172 358.918C413.791 359.139 413.363 359.149 413.003 359.373C412.86 359.461 412.687 359.5 412.521 359.564C412.459 359.454 412.38 359.313 412.3 359.172C412.173 359.354 412.087 359.333 411.892 359.198C411.541 358.956 410.86 358.336 410.565 358.095C409.614 357.319 410.162 356.353 410.203 355.468C410.213 355.246 410.568 355.04 410.777 354.812C411.554 355.229 411.955 355.896 412.227 356.633C412.989 356.538 413.112 355.827 413.53 355.431C413.623 355.344 413.56 355.092 413.578 354.732C413.212 355.097 412.97 355.339 412.767 355.542C412.194 355.502 412.263 354.811 411.78 354.77C411.772 354.322 411.696 353.86 411.783 353.432C411.833 353.189 412.151 353.001 412.404 352.728Z" fill="#38B6FF"/>
<path fill-rule="evenodd" clip-rule="evenodd" d="M455.564 323.364C455.887 323.04 456.127 322.801 456.407 322.521H457.807C457.953 321.91 457.501 322.157 457.21 322.077C457.241 321.998 457.25 321.904 457.301 321.86C457.658 321.553 457.13 321.434 457.18 321.122C457.419 320.554 458.085 320.451 458.586 320.141C458.727 320.054 459.003 320.102 459.184 320.173C460.101 320.535 460.433 321.358 460.802 322.187C461.04 322.72 460.819 323.35 461.234 323.816C461.07 324.426 461.006 325.09 460.712 325.629C460.4 326.202 459.732 326.514 459.105 326.576C458.758 326.611 458.455 327.019 458.113 326.755C457.824 326.53 457.416 326.656 457.153 326.301C456.965 326.048 456.549 326.031 456.435 325.589C456.38 325.371 455.962 325.336 455.774 324.989C455.47 324.43 455.695 323.896 455.564 323.364Z" fill="#38B6FF"/>
<path fill-rule="evenodd" clip-rule="evenodd" d="M451.594 358.749C451.735 359.309 451.858 359.78 451.968 360.254C451.993 360.361 452.02 360.53 451.964 360.581C451.467 361.042 451.929 361.421 452.05 361.827C452.919 361.841 452.895 361.787 453.341 361.152C453.872 360.396 453.781 359.574 453.766 358.751C453.763 358.601 453.621 358.421 453.493 358.313C453.238 358.098 452.819 358.43 452.587 358.072L452.35 358.433C451.911 358.14 451.8 358.611 451.594 358.749ZM450.562 359.474C450.426 359.211 450.283 358.932 450.165 358.705C450.293 358.029 451.061 358.216 451.311 357.692C451.557 357.177 452.306 357.397 452.707 356.877C452.548 356.77 452.394 356.667 452.237 356.562C452.259 356.533 452.291 356.453 452.334 356.445C453.095 356.306 453.65 356.713 454.168 357.175C454.599 357.56 454.846 358.085 455.17 358.551C455.352 358.812 455.035 359.053 455.31 359.219C455.556 359.369 455.632 359.612 455.586 359.891C455.535 360.197 455.824 360.526 455.772 360.685C455.65 361.06 455.64 361.452 455.515 361.815C455.28 362.493 454.936 363.111 454.405 363.608C454.1 363.893 453.671 363.989 453.134 363.895C451.838 363.669 451.823 363.683 451.238 363.04C450.78 362.537 450.483 361.962 450.36 361.258C450.29 360.859 450.053 360.507 450.334 360.112C449.957 359.75 450.527 359.758 450.562 359.474Z" fill="#38B6FF"/>
<path fill-rule="evenodd" clip-rule="evenodd" d="M420.276 328.836C421.304 329.415 421.541 329.898 420.976 330.78C420.684 331.235 421.045 331.748 420.633 332.122C420.573 332.177 420.733 332.478 420.794 332.665C420.962 333.177 421.129 333.223 421.686 333.076C422.751 332.796 423.255 332.043 423.511 331.023C423.114 330.91 422.715 330.802 422.319 330.683C421.836 330.537 422.011 329.994 421.813 329.745C422.041 329.517 422.291 329.267 422.542 329.017C423.23 328.632 423.658 329.384 424.285 329.555C424.746 330.298 425.389 330.943 425.323 331.939C425.238 333.197 424.696 334.245 423.322 334.748C422.176 335.169 421.269 334.993 420.285 334.118C419.686 333.586 419.197 333.037 419.176 332.091C419.147 330.841 419.386 329.744 420.276 328.836Z" fill="#38B6FF"/>
<path fill-rule="evenodd" clip-rule="evenodd" d="M418.699 375.142C417.719 375.43 417.147 374.77 416.488 374.376C415.884 374.014 415.805 373.302 415.626 372.717C415.461 372.175 415.794 371.612 415.991 371.087C416.156 370.646 416.429 370.244 416.653 369.827C416.55 369.79 416.42 369.742 416.262 369.685C416.429 369.51 416.576 369.356 416.758 369.164C416.524 369.121 416.318 369.084 415.98 369.023C416.198 368.86 416.353 368.65 416.493 368.659C416.884 368.686 417.267 368.55 417.678 368.775C418.725 369.346 419.26 370.302 419.646 371.328C420.187 372.768 419.898 374.077 418.699 375.142Z" fill="#38B6FF"/>
<path fill-rule="evenodd" clip-rule="evenodd" d="M431.244 380.501C431.136 380.718 431.044 380.903 430.937 381.118C431.68 381.882 431.987 382.802 431.868 383.868C431.84 384.121 431.847 384.339 431.658 384.576C431.299 385.026 431.25 385.682 430.554 385.92C430.252 386.023 429.923 386.108 429.72 386.004C429.155 385.713 428.506 385.489 428.155 384.908C427.98 384.618 427.818 384.317 427.781 383.935C427.659 382.681 428.168 381.64 428.806 380.642C428.95 380.417 429.192 380.255 429.481 380.124C429.814 379.974 430.02 379.852 430.354 380.1C430.596 380.282 430.917 380.36 431.244 380.501Z" fill="#38B6FF"/>
<path fill-rule="evenodd" clip-rule="evenodd" d="M442.031 368.376C442.031 368.687 442.011 368.841 442.034 368.988C442.152 369.754 441.512 370.025 441.067 370.363C440.625 370.698 440.202 370.206 439.788 370.083C439.402 369.969 439.083 369.598 438.758 369.315C438.209 368.837 438.004 367.703 438.351 367.024C438.431 366.87 438.346 366.607 438.713 366.572C438.932 366.551 439.139 366.202 439.315 365.973C439.777 365.376 440.181 365.307 440.675 365.829C440.998 366.17 441.372 366.449 441.602 366.906C441.869 367.436 442.168 367.917 442.031 368.376Z" fill="#38B6FF"/>
<path fill-rule="evenodd" clip-rule="evenodd" d="M429.721 342.659C430.21 343.183 430.754 343.637 431.01 344.375C431.328 345.29 431.155 345.789 430.377 346.322C429.491 346.93 428.898 346.825 428.124 346.036C428.019 345.928 427.912 345.823 427.827 345.739C427.699 345.343 427.993 344.886 427.572 344.576C427.338 343.533 428.043 342.679 429.155 342.659C429.343 342.656 429.53 342.659 429.721 342.659Z" fill="#38B6FF"/>
<path fill-rule="evenodd" clip-rule="evenodd" d="M440.223 331.048C440.427 330.889 440.551 330.792 440.675 330.695C440.53 330.573 440.384 330.45 440.242 330.331C440.3 330.266 440.37 330.188 440.468 330.079C440.212 330.023 439.985 329.973 439.711 329.913C440.031 329.054 440.818 328.991 441.434 328.711C441.554 328.656 441.814 328.815 441.963 328.933C442.568 329.411 443.008 330.023 443.314 330.729C443.354 330.822 443.408 330.99 443.37 331.023C442.836 331.478 443.54 332.359 442.841 332.664C442.704 332.724 442.396 332.372 442.028 332.346C442.178 332.51 442.326 332.674 442.497 332.861C442.223 333.043 441.964 333.232 441.686 333.388C441.601 333.436 441.465 333.404 441.354 333.392C441.288 333.384 441.167 333.334 441.17 333.318C441.261 332.701 440.525 333.16 440.443 332.754C440.403 332.554 440.252 332.37 440.233 332.172C440.198 331.801 440.223 331.424 440.223 331.048Z" fill="#38B6FF"/>
<path fill-rule="evenodd" clip-rule="evenodd" d="M441.827 314.497V314H442.833C443.343 314.766 444.042 315.492 443.795 316.647C443.633 316.657 443.431 316.67 443.147 316.687V315.755C442.966 315.79 442.827 315.775 442.776 315.835C442.691 315.935 442.682 316.096 442.606 316.207C442.465 316.412 442.388 316.366 442.199 316.062C442.071 315.857 441.896 315.68 441.72 315.464C441.952 315.357 442.105 315.287 442.269 315.212C441.793 314.977 441.801 314.985 442.193 314.578C442.261 314.507 442.223 314.335 442.241 314.115C442.073 314.27 441.994 314.343 441.827 314.497Z" fill="#38B6FF"/>
<path d="M307.203 37.4636C307.086 36.1291 306.647 34.8428 305.923 33.716C305.198 32.5891 304.211 31.6555 303.045 30.9956C297.174 27.7108 289.65 34.091 291.751 40.4112C292.49 42.6103 294.25 44.2088 296.255 45.2714C299.95 47.2349 305.124 47.1194 306.879 42.6935L306.907 42.6242C306.907 42.6242 307.674 46.5003 311.743 46.6435C312.269 46.6806 312.796 46.6017 313.287 46.4124C313.779 46.2231 314.223 45.928 314.588 45.5481C314.953 45.1681 315.23 44.7125 315.399 44.2137C315.568 43.7148 315.626 43.1847 315.568 42.6611C319.069 46.2647 319.984 51.6516 318.339 56.3225C318.64 55.4816 320.649 55.6341 321.231 55.8281C323.735 56.7013 325.07 59.6627 324.515 62.176C323.993 64.5276 322.178 66.5142 320.201 67.9556C320.032 68.0725 319.894 68.2286 319.799 68.4105C319.704 68.5923 319.654 68.7945 319.654 68.9997C319.654 69.205 319.704 69.4072 319.799 69.589C319.894 69.7708 320.032 69.9269 320.201 70.0438C322.083 71.254 324.314 71.8064 326.543 71.6146C329.247 71.3922 331.751 70.105 333.506 68.0362C335.261 65.9673 336.123 63.2862 335.902 60.5821L335.874 60.4527C337.658 60.079 339.266 59.1184 340.442 57.7242C341.617 56.3299 342.291 54.5823 342.358 52.76C342.424 50.9377 341.879 49.1456 340.808 47.6694C339.738 46.1933 338.204 45.1181 336.451 44.6154C336.977 43.6649 337.209 42.5794 337.116 41.4969C336.989 40.0283 336.287 38.6697 335.162 37.7176C334.037 36.7654 332.581 36.2971 331.111 36.4149" stroke="black" stroke-width="4.72" stroke-linecap="round" stroke-linejoin="round"/>
</svg>
