<svg width="80" height="80" viewBox="0 0 80 80" fill="none" xmlns="http://www.w3.org/2000/svg">
<g id="accomplishments/veteran-medal">
<g id="Union">
<path fill-rule="evenodd" clip-rule="evenodd" d="M40 40.9093L36.4533 51.1115H24.4946L34.1694 57.6811L30.5658 68.0467L40 61.6404L49.4342 68.0467L45.8306 57.6811L55.5054 51.1115H43.5467L40 40.9093ZM37.8754 53.1115L40 47L42.1246 53.1115H49L43.4377 56.8885L45.5623 63L40 59.2229L34.4377 63L36.5623 56.8885L31 53.1115H37.8754Z" fill="black"/>
<path fill-rule="evenodd" clip-rule="evenodd" d="M20 56C20 44.9543 28.9543 36 40 36C51.0457 36 60 44.9543 60 56C60 67.0457 51.0457 76 40 76C28.9543 76 20 67.0457 20 56ZM40 38C30.0589 38 22 46.0589 22 56C22 65.9411 30.0589 74 40 74C49.9411 74 58 65.9411 58 56C58 46.0589 49.9411 38 40 38Z" fill="black"/>
<path fill-rule="evenodd" clip-rule="evenodd" d="M21 0C16.0294 0 12 4.02944 12 9V21.7467L34 28.2652V32.7561C23.6486 35.4204 16 44.817 16 56C16 69.2548 26.7452 80 40 80C53.2548 80 64 69.2548 64 56C64 44.817 56.3514 35.4204 46 32.7561V28.2652L68 21.7467V9C68 4.02944 63.9706 0 59 0H21ZM44 32.3318V28.8578L40 30.043L36 28.8578V32.3318C37.3008 32.1136 38.6372 32 40 32C41.3628 32 42.6992 32.1136 44 32.3318ZM14 9C14 5.13401 17.134 2 21 2H28V24.4015L14 20.2533V9ZM30 24.9941L40 27.957L50 24.9941V2H30V24.9941ZM52 2V24.4015L66 20.2533V9C66 5.13401 62.866 2 59 2H52ZM18 56C18 43.8497 27.8497 34 40 34C52.1503 34 62 43.8497 62 56C62 68.1503 52.1503 78 40 78C27.8497 78 18 68.1503 18 56Z" fill="black"/>
</g>
</g>
</svg>
