<svg width="80" height="80" viewBox="0 0 80 80" fill="none" xmlns="http://www.w3.org/2000/svg">
<g id="time/clock" clip-path="url(#clip0_1_2139)">
<g id="Union">
<path d="M39 14V40.4142L47.2929 48.7071L48.7071 47.2929L41 39.5858V14H39Z" fill="black"/>
<path d="M42 7C42 8.10457 41.1046 9 40 9C38.8954 9 38 8.10457 38 7C38 5.89543 38.8954 5 40 5C41.1046 5 42 5.89543 42 7Z" fill="black"/>
<path d="M71 40C71 41.1046 71.8954 42 73 42C74.1046 42 75 41.1046 75 40C75 38.8954 74.1046 38 73 38C71.8954 38 71 38.8954 71 40Z" fill="black"/>
<path d="M42 73C42 74.1046 41.1046 75 40 75C38.8954 75 38 74.1046 38 73C38 71.8954 38.8954 71 40 71C41.1046 71 42 71.8954 42 73Z" fill="black"/>
<path d="M5 40C5 41.1046 5.89543 42 7 42C8.10457 42 9 41.1046 9 40C9 38.8954 8.10457 38 7 38C5.89543 38 5 38.8954 5 40Z" fill="black"/>
<path fill-rule="evenodd" clip-rule="evenodd" d="M80 40C80 62.0914 62.0914 80 40 80C17.9086 80 0 62.0914 0 40C0 17.9086 17.9086 0 40 0C62.0914 0 80 17.9086 80 40ZM78 40C78 60.9868 60.9868 78 40 78C19.0132 78 2 60.9868 2 40C2 19.0132 19.0132 2 40 2C60.9868 2 78 19.0132 78 40Z" fill="black"/>
</g>
</g>
<defs>
<clipPath id="clip0_1_2139">
<rect width="80" height="80" fill="white"/>
</clipPath>
</defs>
</svg>
