<svg width="463" height="456" viewBox="0 0 463 456" fill="none" xmlns="http://www.w3.org/2000/svg">
<path d="M316.639 101.446C325.416 96.5626 339.093 106.528 345.139 112.123C352.207 118.628 357.907 126.907 362.291 135.431C382.195 174.128 392.657 220.166 376.301 262.097C370.792 276.292 362.198 289.086 351.14 299.552C344.922 305.405 332.127 310.926 330.261 319.88C329.861 322.103 330.02 324.39 330.723 326.537C333.194 334.742 340.654 340.429 346.354 346.403C373.723 375.144 353.934 419.699 324.672 438.9" stroke="#CCDDE2" stroke-width="4.72" stroke-miterlimit="10"/>
<path d="M102.013 252.335C110.558 243.257 121.478 237.122 132.458 231.476C144.348 225.364 156.048 219.21 166.857 211.273C173.437 206.451 179.663 201.163 185.486 195.449" stroke="#CCDDE2" stroke-width="4.72" stroke-miterlimit="10"/>
<path d="M88.1412 367.322C77.2214 339.108 74.4499 306.768 85.8408 278.586" stroke="#CCDDE2" stroke-width="4.72" stroke-miterlimit="10"/>
<path d="M231.23 75.6571V45.4145C231.23 43.3315 230.403 41.3338 228.93 39.8609C227.457 38.388 225.46 37.5605 223.377 37.5605H123.247C121.164 37.5605 119.167 38.388 117.694 39.8609C116.222 41.3338 115.394 43.3315 115.394 45.4145V187.627C115.403 189.705 116.234 191.694 117.706 193.16C119.178 194.626 121.17 195.449 123.247 195.449H223.391C224.363 195.457 225.327 195.271 226.227 194.904" stroke="black" stroke-width="4.72" stroke-linecap="round" stroke-linejoin="round"/>
<path d="M220.199 42.3654H126.444C122.293 42.3654 118.928 45.7307 118.928 49.8821V183.155C118.928 187.307 122.293 190.672 126.444 190.672H220.199C224.35 190.672 227.715 187.307 227.715 183.155V49.8821C227.715 45.7307 224.35 42.3654 220.199 42.3654Z" fill="#38B6FF"/>
<path d="M218.74 53.8414H129.09C127.014 53.8414 125.33 55.5251 125.33 57.6021V77.8469C125.33 79.9239 127.014 81.6076 129.09 81.6076H218.74C220.816 81.6076 222.5 79.9239 222.5 77.8469V57.6021C222.5 55.5251 220.816 53.8414 218.74 53.8414Z" fill="#38B6FF"/>
<path d="M173.319 65.5393C174.906 65.5393 176.192 64.2527 176.192 62.6656C176.192 61.0786 174.906 59.792 173.319 59.792C171.732 59.792 170.446 61.0786 170.446 62.6656C170.446 64.2527 171.732 65.5393 173.319 65.5393Z" fill="#D7E8F0"/>
<path d="M165.296 75.6571C165.296 73.5288 166.141 71.4876 167.646 69.9827C169.15 68.4777 171.191 67.6322 173.319 67.6322C175.447 67.6322 177.488 68.4777 178.993 69.9827C180.497 71.4876 181.343 73.5288 181.343 75.6571H165.296Z" fill="#D7E8F0"/>
<path d="M173.906 111.365C170.844 111.363 167.851 112.27 165.305 113.97C162.759 115.67 160.774 118.087 159.602 120.915C158.43 123.743 158.122 126.856 158.719 129.859C159.316 132.862 160.79 135.621 162.955 137.786C165.119 139.951 167.877 141.425 170.88 142.022C173.883 142.619 176.995 142.312 179.823 141.139C182.651 139.967 185.067 137.982 186.767 135.435C188.466 132.888 189.373 129.895 189.371 126.833C189.37 122.731 187.74 118.797 184.84 115.897C181.94 112.996 178.007 111.366 173.906 111.365ZM173.906 138.568C173.307 138.568 172.732 138.33 172.309 137.906C171.885 137.482 171.647 136.908 171.647 136.308C171.647 135.709 171.885 135.135 172.309 134.711C172.732 134.287 173.307 134.049 173.906 134.049C174.505 134.049 175.079 134.287 175.503 134.711C175.927 135.135 176.165 135.709 176.165 136.308C176.165 136.908 175.927 137.482 175.503 137.906C175.079 138.33 174.505 138.568 173.906 138.568ZM176.77 121.173C176.285 124.527 175.874 128.062 174.89 131.337C174.649 132.114 173.176 132.114 172.936 131.337C172.229 128.884 171.686 126.387 171.31 123.862C171.01 122.014 169.924 119.057 170.963 117.265C171.859 115.676 174.405 115.477 175.874 116.309C177.694 117.348 176.996 119.506 176.77 121.173Z" fill="#D7E8F0"/>
<path d="M173.906 138.568C175.153 138.568 176.165 137.556 176.165 136.309C176.165 135.061 175.153 134.049 173.906 134.049C172.658 134.049 171.647 135.061 171.647 136.309C171.647 137.556 172.658 138.568 173.906 138.568Z" fill="white"/>
<path d="M176.77 121.173C176.285 124.527 175.874 128.062 174.89 131.337C174.649 132.114 173.176 132.114 172.936 131.337C172.229 128.884 171.686 126.387 171.31 123.862C171.01 122.014 169.924 119.057 170.963 117.265C171.86 115.676 174.405 115.477 175.874 116.308C177.694 117.348 176.996 119.506 176.77 121.173Z" fill="white"/>
<path d="M135.049 94.0078H210.601" stroke="white" stroke-width="4.72" stroke-miterlimit="10"/>
<path d="M135.049 101.441H210.601" stroke="white" stroke-width="4.72" stroke-miterlimit="10"/>
<path d="M135.049 149.342H210.601" stroke="white" stroke-width="4.72" stroke-miterlimit="10"/>
<path d="M228.994 168.51C229.281 168.732 229.78 75.3245 229.78 75.3245L201.358 64.3381C201.358 64.3381 180.229 116.133 181.509 116.655L187.214 118.965C187.214 118.965 188.623 117.852 191.888 125.895C195.154 133.938 218.694 160.587 228.994 168.51Z" fill="white"/>
<path d="M152.597 156.378H193.052" stroke="white" stroke-width="4.72" stroke-miterlimit="10"/>
<path d="M342.724 210.538C342.354 214.567 337.384 260.776 342.202 269.799C343.948 273.065 326.616 269.937 325.573 269.697C309.867 266.001 295.16 259.187 281.395 250.898C267.629 242.61 255.467 231.702 241.115 224.352C238.464 222.994 232.593 220.018 234.33 216.124C237.286 209.489 240.916 200.332 241.203 192.234L241.115 181.608C241.115 181.608 239.018 174.936 245.859 180.781C252.7 186.625 284.004 202.033 304.269 184.181C324.533 166.329 325.734 152.211 325.734 152.211C325.734 152.211 312.759 120.453 275.819 139.88L288.868 106.154C288.868 106.154 287.081 103.885 292.735 104.306C298.389 104.726 308.874 101.931 310.172 91.5684C310.172 91.5684 310.274 88.1866 316.256 94.5807C322.237 100.975 350.507 125.946 342.724 210.538Z" fill="#2E2E2E"/>
<path d="M270.101 90.9077C273.27 88.5829 276.82 86.8273 280.591 85.7195" stroke="black" stroke-width="4.72" stroke-miterlimit="10"/>
<path d="M256.058 248.588L230.653 340.452L207.557 423.991L192.849 425.377C189.477 425.688 186.343 427.247 184.06 429.748C181.777 432.25 180.51 435.513 180.507 438.9H225.992L258.936 382.111L283.441 339.861L321.752 273.795C322.861 271.869 323.937 269.942 324.986 267.974C325.003 267.951 325.013 267.924 325.014 267.895" stroke="black" stroke-width="4.72" stroke-miterlimit="10"/>
<path d="M341.781 217.602C342.128 215.357 342.433 213.111 342.705 210.852C342.705 210.746 342.705 210.654 342.733 210.547C344.288 196.866 344.619 183.073 343.721 169.332C343.727 169.292 343.727 169.252 343.721 169.212C342.705 154.257 339.961 138.549 334.483 123.234C332.892 118.817 330.925 114.544 328.603 110.464V110.464C328.432 110.127 328.238 109.794 328.025 109.462C327.295 108.187 326.51 106.944 325.716 105.715C324.639 104.093 323.498 102.518 322.302 101.016C320.518 98.7364 318.54 96.6155 316.39 94.6777C316.376 94.6729 316.363 94.665 316.353 94.6546C316.342 94.6442 316.334 94.6315 316.329 94.6176C314.732 93.2027 313.034 91.9057 311.248 90.7368C311.248 90.7368 311.248 90.7368 311.248 90.7368C310.916 90.5104 310.583 90.2979 310.246 90.0854C310.194 90.0453 310.138 90.0097 310.08 89.9791" stroke="black" stroke-width="4.72" stroke-miterlimit="10"/>
<path d="M283.441 339.861L319.166 438.9H267.615C267.615 435.682 268.783 432.574 270.902 430.153C273.021 427.732 275.947 426.163 279.136 425.738L290.356 424.236C290.356 424.236 275.269 404.37 258.945 382.106" stroke="black" stroke-width="4.72" stroke-miterlimit="10"/>
<path d="M289.778 103.811L274.295 143.802C273.827 145.009 273.124 146.112 272.227 147.044C271.329 147.977 270.255 148.722 269.067 149.236C267.879 149.75 266.6 150.022 265.306 150.037C264.011 150.052 262.727 149.809 261.527 149.323L224.851 134.474C224.833 134.424 224.817 134.374 224.805 134.322C224.343 132.474 219.604 114.761 213.857 114.761C209.446 114.761 211.548 123.497 213.395 128.441C213.608 128.972 213.806 129.471 213.987 129.896L213.7 129.776L184.983 118.069L203.095 70.3164L238.454 83.9777L289.778 103.811Z" fill="#D7E8F0"/>
<path d="M213.977 129.896C212.051 125.484 208.984 114.761 213.862 114.761C219.608 114.761 224.343 132.488 224.809 134.322L224.856 134.474L261.527 149.328C262.729 149.813 264.015 150.055 265.311 150.039C266.606 150.022 267.886 149.748 269.075 149.232C270.264 148.716 271.338 147.969 272.235 147.033C273.132 146.098 273.834 144.993 274.299 143.784L291.552 99.2007L236.713 77.9995L201.358 64.3381L181.495 116.655L213.977 129.896Z" stroke="black" stroke-width="4.72" stroke-miterlimit="10"/>
<path d="M327.651 128.773C328.751 147.946 324.469 172.474 300.028 186.911C263.874 208.293 216.024 159.852 198.309 136.345C195.382 132.485 192.909 128.299 190.941 123.871C190.345 122.583 189.844 121.252 189.445 119.889" stroke="black" stroke-width="4.72" stroke-miterlimit="10"/>
<path d="M240.796 177.468C240.796 177.468 243.568 197.662 235.022 214.83L235.059 214.784C235.059 214.784 235.059 214.816 235.032 214.83C221.913 239.441 203.131 278.701 213.608 307.23C217.169 316.932 223.308 328.482 230.648 340.457" stroke="black" stroke-width="4.72" stroke-miterlimit="10"/>
<path d="M304.407 60.4435L304.435 60.5728C304.657 63.2776 303.796 65.96 302.041 68.0299C300.286 70.0997 297.781 71.3875 295.077 71.61C293.346 71.7601 291.605 71.456 290.028 70.7276C289.576 70.536 289.142 70.3057 288.73 70.0392C288.561 69.9217 288.423 69.7652 288.328 69.583C288.233 69.4008 288.183 69.1983 288.183 68.9928C288.183 68.7872 288.233 68.5847 288.328 68.4025C288.423 68.2203 288.561 68.0638 288.73 67.9463C290.716 66.5141 292.531 64.5183 293.049 62.1806C293.204 61.4616 293.217 60.7191 293.086 59.9953C292.944 59.0728 292.564 58.2035 291.982 57.474C291.4 56.7444 290.637 56.1801 289.769 55.8373C289.497 55.7567 289.216 55.7116 288.933 55.7033C288.134 55.6387 287.085 55.7403 286.878 56.3317C287.897 53.4648 287.94 50.3408 286.998 47.4474C286.412 45.6572 285.424 44.0247 284.111 42.6749C284.17 43.1979 284.114 43.7276 283.946 44.2263C283.778 44.725 283.502 45.1805 283.137 45.5604C282.773 45.9402 282.329 46.235 281.838 46.4238C281.347 46.6126 280.82 46.6908 280.295 46.6528C276.226 46.5142 275.459 42.6334 275.459 42.6334C275.459 42.6334 275.459 42.6796 275.459 42.7073C273.685 47.1286 268.53 47.2487 264.835 45.2852C263.524 44.6127 262.373 43.6675 261.458 42.5132C260.41 37.981 264.146 33.6013 268.456 32.9729C268.549 30.0901 270.65 27.0039 273.486 26.7683C274.475 26.6838 275.467 26.866 276.361 27.2959C277.255 27.7257 278.017 28.3875 278.568 29.2123C278.646 29.337 278.734 29.471 278.803 29.6096C279.963 27.9279 281.861 26.0845 283.884 25.9136C285.288 25.815 286.687 26.1505 287.894 26.8744C289.1 27.5984 290.055 28.6758 290.628 29.9607C290.628 29.762 292.407 28.9489 292.587 28.875C294.248 28.2434 296.072 28.1826 297.771 28.702C299.471 29.2214 300.949 30.2917 301.973 31.744C302.076 32.1455 302.144 32.5551 302.176 32.9683C302.278 34.2039 302.088 35.4462 301.622 36.595C302.279 36.7822 302.892 37.0961 303.428 37.519C304.589 38.3687 305.367 39.6421 305.595 41.0626C305.618 41.2058 305.631 41.349 305.641 41.4922C305.733 42.5747 305.502 43.6602 304.976 44.6107C306.342 45.001 307.582 45.7412 308.575 46.7581C309.567 47.775 310.277 49.0334 310.634 50.4088C310.747 50.864 310.822 51.3275 310.86 51.7948C311.018 53.7743 310.45 55.7435 309.263 57.3349C308.075 58.9263 306.35 60.0313 304.407 60.4435Z" fill="#38B6FF"/>
<path d="M304.407 60.4434L304.435 60.5728C304.657 63.2776 303.796 65.96 302.041 68.0299C300.286 70.0997 297.781 71.3875 295.077 71.61C293.346 71.7601 291.605 71.456 290.028 70.7276C292.014 69.2953 293.829 67.2949 294.342 64.9572C294.524 64.088 294.504 63.1887 294.284 62.3285C294.064 61.4682 293.649 60.67 293.072 59.9953C292.93 59.0728 292.55 58.2035 291.968 57.474C291.386 56.7444 290.623 56.1801 289.755 55.8373C289.484 55.7566 289.203 55.7116 288.919 55.7033C289.193 52.8137 288.513 49.9139 286.984 47.4474C286.398 45.6572 285.41 44.0247 284.097 42.6749C284.157 43.1979 284.1 43.7276 283.932 44.2263C283.764 44.725 283.488 45.1805 283.123 45.5603C282.759 45.9402 282.315 46.235 281.824 46.4238C281.333 46.6126 280.806 46.6908 280.281 46.6527C276.212 46.5141 275.445 42.6333 275.445 42.6333C275.445 42.6333 275.445 42.6795 275.445 42.7073C273.671 47.1286 268.516 47.2487 264.821 45.2852C263.511 44.6127 262.359 43.6675 261.444 42.5132C260.396 37.981 264.133 33.6012 268.442 32.9729C268.535 30.09 270.636 27.0039 273.473 26.7683C274.461 26.6838 275.453 26.866 276.347 27.2958C277.241 27.7257 278.003 28.3875 278.554 29.2122C278.632 29.337 278.72 29.471 278.789 29.6096C279.949 27.9279 281.847 26.0845 283.87 25.9136C285.276 25.8121 286.679 26.1461 287.888 26.8703C289.097 27.5944 290.054 28.6734 290.628 29.9607C290.628 29.762 292.407 28.9489 292.587 28.875C294.248 28.2434 296.072 28.1825 297.771 28.702C299.471 29.2214 300.949 30.2916 301.973 31.744C302.076 32.1455 302.144 32.5551 302.176 32.9683C302.278 34.2039 302.088 35.4462 301.622 36.595C302.279 36.7822 302.892 37.0961 303.428 37.519C303.343 38.1537 303.177 38.7748 302.934 39.367C303.959 39.6671 304.88 40.2461 305.595 41.0394C305.618 41.1827 305.631 41.3259 305.641 41.4691C305.733 42.5516 305.502 43.6371 304.976 44.5876C305.663 44.7837 306.321 45.0695 306.934 45.4377C306.834 46.1131 306.615 46.7655 306.287 47.3642C308.034 47.8556 309.565 48.9197 310.634 50.3857C310.747 50.8408 310.822 51.3043 310.86 51.7717C311.024 53.7549 310.459 55.7298 309.271 57.3261C308.083 58.9225 306.354 60.0308 304.407 60.4434Z" fill="#38B6FF"/>
<path d="M268.512 51.1849C268.512 51.1849 274.369 51.2681 275.713 56.2115" stroke="black" stroke-width="4.72" stroke-miterlimit="10"/>
<path d="M267.001 65.9966C265.669 66.3254 264.285 66.3929 262.927 66.1953C262.672 66.1515 262.431 66.0465 262.225 65.8893C262.019 65.7321 261.854 65.5273 261.745 65.2926C261.636 65.0578 261.585 64.8 261.597 64.5412C261.609 64.2825 261.683 64.0305 261.814 63.8068C263.033 61.7416 264.29 59.6996 265.657 57.7361C265.871 57.4863 266.003 57.1766 266.036 56.849C266.036 56.849 265.472 50.7368 266.705 46.0475" stroke="black" stroke-width="4.72" stroke-miterlimit="10"/>
<path d="M271.61 56.386C271.734 55.4012 271.155 54.5174 270.317 54.412C269.48 54.3065 268.7 55.0194 268.576 56.0042C268.452 56.989 269.031 57.8728 269.869 57.9782C270.707 58.0836 271.486 57.3707 271.61 56.386Z" fill="black"/>
<path d="M299.285 70.3118C299.409 71.5361 304.902 80.0138 309.867 89.3739C309.865 89.3892 309.865 89.4048 309.867 89.4201C309.96 89.6187 310.052 89.8313 310.158 90.0438" stroke="black" stroke-width="4.72" stroke-linecap="round" stroke-linejoin="round"/>
<path d="M279.473 79.2745L281.201 91.573" stroke="black" stroke-width="4.72" stroke-miterlimit="10"/>
<path d="M264.885 66.3063C264.885 66.3063 267.389 78.4846 273.546 80.328C279.704 82.1713 285.048 74.4883 285.048 74.4883" stroke="black" stroke-width="4.72" stroke-linecap="round" stroke-linejoin="round"/>
<path d="M266.567 71.7994C267.385 72.2775 268.309 72.5439 269.256 72.5746C270.203 72.6052 271.143 72.3992 271.99 71.975" stroke="black" stroke-width="4.72" stroke-linecap="round" stroke-linejoin="round"/>
<path d="M278.129 29.0552C278.055 28.1105 277.737 27.2013 277.205 26.4172C276.528 25.3783 275.523 24.5963 274.349 24.1962C273.176 23.7961 271.902 23.801 270.732 24.2102C269.561 24.6193 268.562 25.4091 267.893 26.4532C267.224 27.4974 266.925 28.7356 267.043 29.97" stroke="black" stroke-width="4.72" stroke-miterlimit="10" stroke-linecap="round"/>
<path d="M277.893 26.1954C279.002 24.3474 280.226 23.3126 282.512 23.1231C283.931 23.0072 285.35 23.3377 286.572 24.0683C287.794 24.7989 288.756 25.8932 289.326 27.198C289.247 27.0178 291.104 26.1723 291.293 26.0984C292.034 25.8153 292.812 25.6441 293.603 25.5902C295.712 25.4767 297.784 26.1822 299.386 27.5595C300.987 28.9368 301.995 30.8795 302.199 32.9822C302.301 34.2179 302.111 35.4601 301.645 36.6089" stroke="black" stroke-width="4.72" stroke-linecap="square" stroke-linejoin="round"/>
<path d="M309.867 89.3785C309.867 89.3785 314.182 103.728 289.515 104.504" stroke="black" stroke-width="4.72" stroke-miterlimit="10"/>
<path d="M181.615 233.148C181.574 222.656 191.884 219.833 196.822 219.926C227.424 220.508 232.038 171.009 232.038 171.009" stroke="black" stroke-width="4.72" stroke-linecap="round" stroke-linejoin="round"/>
<path d="M341.781 217.602C341.781 217.602 338.169 253.241 341.781 265.234C345.393 277.228 324.621 267.817 324.621 267.817" stroke="black" stroke-width="4.72" stroke-miterlimit="10"/>
<path d="M134.827 244.463H110.812" stroke="black" stroke-width="4.72" stroke-linecap="round" stroke-linejoin="round"/>
<path d="M220.874 244.463H174.922" stroke="black" stroke-width="4.72" stroke-linecap="round" stroke-linejoin="round"/>
<path d="M168.33 244.463H141.202" stroke="black" stroke-width="4.72" stroke-linecap="round" stroke-linejoin="round"/>
<path d="M167.633 233.148H140.809" stroke="black" stroke-width="4.72" stroke-linecap="round" stroke-linejoin="round"/>
<path d="M189.006 233.148H174.525" stroke="black" stroke-width="4.72" stroke-linecap="round" stroke-linejoin="round"/>
<path d="M225.816 233.148H197.847" stroke="black" stroke-width="4.72" stroke-linecap="round" stroke-linejoin="round"/>
<path d="M134.107 233.148H129.363" stroke="black" stroke-width="4.72" stroke-linecap="round" stroke-linejoin="round"/>
<path d="M166.746 232.132H172.95C172.95 232.132 180.059 238.845 172.95 246.528V251.896H166.746" stroke="black" stroke-width="4.72" stroke-linecap="round" stroke-linejoin="round"/>
<path d="M139.428 232.132C139.428 232.132 146.537 238.845 139.428 246.528V251.896" stroke="black" stroke-width="4.72" stroke-linecap="round" stroke-linejoin="round"/>
<path d="M139.428 251.896H133.225V246.528C140.338 238.845 133.225 232.132 133.225 232.132H139.428" stroke="black" stroke-width="4.72" stroke-linecap="round" stroke-linejoin="round"/>
<path d="M166.746 232.132C166.746 232.132 173.86 238.845 166.746 246.528V251.896" stroke="black" stroke-width="4.72" stroke-linecap="round" stroke-linejoin="round"/>
<path d="M133.225 246.528H139.428" stroke="black" stroke-width="4.72" stroke-linecap="round" stroke-linejoin="round"/>
<path d="M166.746 246.528H172.95" stroke="black" stroke-width="4.72" stroke-linecap="round" stroke-linejoin="round"/>
<path d="M190.66 229.72C189.868 230.73 189.303 231.9 189.006 233.148C188.614 234.992 188.467 236.879 188.567 238.762C188.595 240.61 188.826 242.504 190.581 243.474C193.219 244.948 196.387 242.841 196.526 239.82C196.677 237.548 197.121 235.306 197.847 233.148C197.875 233.042 197.907 232.95 197.935 232.862" stroke="black" stroke-width="4.72" stroke-linecap="round" stroke-linejoin="round"/>
<path d="M197.935 232.848C200.134 232.386 203.409 231.18 205.076 228.071" stroke="black" stroke-width="4.72" stroke-linecap="round" stroke-linejoin="round"/>
<path d="M182.932 244.463C182.932 244.463 184.659 249.018 189.006 249.572C193.353 250.127 190.604 244.463 190.604 244.463C190.604 244.463 192.406 248.454 194.586 248.588C196.766 248.722 198.651 246.74 197.898 244.463C197.898 244.463 198.563 248.126 201.787 247.724C205.012 247.322 203.681 244.463 203.681 244.463" stroke="black" stroke-width="4.72" stroke-linecap="round" stroke-linejoin="round"/>
<g opacity="0.54">
<path opacity="0.54" d="M133.349 309.351L130.231 354.386C128.541 357.445 126.638 360.152 124.942 361.825C124.716 361.741 124.48 361.658 124.263 361.557C123.848 361.413 123.436 361.247 123.044 361.095C116.725 358.323 111.958 353.162 110.526 347.336C109.269 342.213 110.406 336.678 107.967 331.864C104.992 325.936 96.8807 322.217 95.906 315.523C94.9822 309.263 100.613 303.511 99.703 297.385C98.6499 290.455 90.1413 286.334 88.5523 279.556C87.5592 275.343 88.446 270.51 88.0904 266.158C87.6697 261.309 86.8493 256.504 85.6376 251.79C98.1972 250.866 110.983 257.796 115.053 267.715C118.378 275.833 116.374 285.317 121.58 292.714C124.406 296.72 129.118 299.713 131.552 303.908C132.303 305.215 132.847 306.63 133.164 308.103C133.188 308.205 133.188 308.311 133.206 308.39C133.229 308.556 133.248 308.681 133.266 308.805C133.308 309.166 133.349 309.351 133.349 309.351Z" fill="#38B6FF"/>
<path opacity="0.54" d="M133.372 309.332H133.349C133.349 309.332 133.308 309.147 133.266 308.796C133.305 308.939 133.333 309.084 133.349 309.231C133.372 309.268 133.372 309.309 133.372 309.332Z" fill="#38B6FF"/>
</g>
<path d="M174.867 291.771C173.213 297.616 164.335 301.169 163.259 307.161C162.307 312.469 168.173 317.426 167.203 322.818C166.173 328.607 157.743 331.808 154.648 336.932C152.126 341.09 153.304 345.853 152.002 350.275C150.496 355.296 145.535 359.778 138.906 362.153C138.495 362.3 138.102 362.444 137.687 362.568C137.46 362.628 137.225 362.712 136.985 362.772C134.795 360.974 132.296 357.814 130.25 354.405L133.368 309.369H133.391C135.807 307.322 138.574 305.442 140.495 303.169C142.583 300.711 143.553 298.027 144.191 295.218H144.2V294.908C145.124 290.464 145.193 285.816 147.281 281.603C151.512 273.028 164.792 267.059 177.869 267.844C176.636 271.893 175.792 276.05 175.347 280.258C174.968 283.982 175.901 288.154 174.867 291.771Z" fill="#F5BD33"/>
<path d="M144.2 294.872V295.181H144.14C144.172 295.075 144.2 294.973 144.2 294.872Z" fill="#38B6FF"/>
<path d="M144.2 294.871C144.2 294.973 144.158 295.075 144.14 295.181C143.521 297.99 142.551 300.674 140.444 303.132C138.523 305.405 135.756 307.29 133.34 309.332C133.34 309.332 133.34 309.267 133.317 309.249C133.301 309.102 133.273 308.957 133.234 308.815C133.234 308.69 133.197 308.565 133.174 308.399C133.174 308.32 133.174 308.214 133.132 308.112C132.814 306.639 132.271 305.224 131.52 303.917C129.086 299.722 124.374 296.729 121.547 292.723C121.547 292.723 122.827 271.61 133.626 265.183C143.886 259.108 144.2 291.356 144.2 294.871Z" fill="#38B6FF"/>
<path d="M144.2 294.872V295.181H144.14C144.172 295.075 144.2 294.973 144.2 294.872Z" fill="#38B6FF"/>
<path d="M133.349 309.249V309.351C133.349 309.351 133.308 309.166 133.266 308.815C133.305 308.957 133.333 309.102 133.349 309.249Z" fill="#38B6FF"/>
<path d="M132.388 309.355C134.795 307.304 137.585 305.4 139.516 303.132C144.93 296.738 142.846 288.57 146.32 281.561C150.547 272.996 163.873 267.027 176.918 267.812C175.673 271.858 174.826 276.016 174.386 280.226C173.998 283.973 174.927 288.149 173.924 291.776C172.261 297.616 163.388 301.159 162.307 307.156C161.351 312.46 167.231 317.417 166.256 322.809C165.222 328.597 156.801 331.795 153.697 336.918C151.17 341.076 152.357 345.839 151.045 350.27C149.456 355.611 143.946 360.332 136.726 362.554C136.495 362.633 136.264 362.712 136.015 362.772C133.825 360.974 131.326 357.819 129.275 354.405" stroke="black" stroke-width="4.72" stroke-miterlimit="10"/>
<path d="M168.936 274.53C149.447 295.509 140.297 339.746 136.717 362.564C136.426 364.49 136.162 366.26 135.936 367.84" stroke="black" stroke-width="4.72" stroke-miterlimit="10"/>
<path d="M170.732 380.688L161.753 433.605C161.541 435.056 160.821 436.385 159.721 437.354C158.622 438.324 157.213 438.872 155.748 438.9H108.928C107.45 438.868 106.032 438.308 104.931 437.322C103.83 436.335 103.117 434.988 102.923 433.522L94.6543 380.688H170.732Z" stroke="black" stroke-width="4.72" stroke-miterlimit="10"/>
<path d="M179.25 374.793C178.996 378.128 176.354 380.697 173.185 380.697H92.3493C89.2129 380.697 86.5938 378.184 86.2935 374.885C85.9471 371.115 88.7602 367.849 92.3493 367.849H173.185C176.742 367.849 179.541 371.051 179.25 374.793Z" stroke="black" stroke-width="4.72" stroke-miterlimit="10"/>
<path d="M123.982 361.834C127.451 358.387 131.696 350.718 133.58 344.449C135.128 339.279 132.398 333.961 131.774 328.662C130.795 320.346 134.92 311.434 130.573 303.913C128.153 299.718 123.441 296.733 120.614 292.714C115.404 285.322 117.404 275.851 114.073 267.734C110.018 257.796 97.2317 250.889 84.6768 251.79C85.8769 256.51 86.6895 261.32 87.1065 266.172C87.4806 270.51 86.5845 275.343 87.5684 279.57C89.162 286.348 97.6798 290.45 98.7237 297.394C99.6476 303.534 94.0029 309.277 94.9314 315.527C95.9291 322.231 104.008 325.936 106.997 331.873C109.422 336.696 108.285 342.222 109.547 347.341C111.126 353.735 116.716 359.353 123.982 361.834Z" stroke="black" stroke-width="4.72" stroke-miterlimit="10"/>
<path d="M92.3401 259.579C111.048 283.881 119.852 335.116 123.289 361.566C123.584 363.876 123.848 365.959 124.056 367.84" stroke="black" stroke-width="4.72" stroke-miterlimit="10"/>
<path d="M120.614 292.714C120.614 292.714 121.898 271.6 132.693 265.179C143.488 258.757 143.276 294.756 143.276 294.756" stroke="black" stroke-width="4.72" stroke-miterlimit="10"/>
<path d="M132.388 309.355C132.388 309.355 130.18 297.274 134.047 285.401" stroke="black" stroke-width="4.72" stroke-miterlimit="10"/>
<path d="M380.855 244.463H340.442" stroke="black" stroke-width="4.72" stroke-linecap="round" stroke-linejoin="round"/>
<path d="M381.511 233.148H341.735" stroke="black" stroke-width="4.72" stroke-linecap="round" stroke-linejoin="round"/>
<path fill-rule="evenodd" clip-rule="evenodd" d="M43.4413 95.5819C44.0062 95.5819 44.5029 95.668 44.9548 95.5632C45.7914 95.3694 46.9172 93.6645 46.853 92.7989C46.8435 92.6663 46.8 92.4733 46.7085 92.4203C46.2889 92.1792 45.8461 91.9779 45.412 91.7621C45.1544 92.2057 44.3566 91.7083 44.2477 92.4431C44.203 92.7458 43.5113 92.5524 43.6956 93.0896C43.2487 93.8841 43.5759 94.7299 43.4413 95.5819ZM41.2332 92.1399C41.369 91.9071 41.5455 91.6921 41.6295 91.4457C41.9344 90.5526 42.7259 90.2093 43.486 89.9947C44.0141 89.8456 44.5762 89.6675 45.1834 89.7102C46.5627 89.8075 47.5315 90.4549 48.2216 91.6242C48.5434 92.1693 48.8458 92.7206 48.9816 93.3344C49.0732 93.7499 49.1854 94.2312 49.0632 94.6102C48.589 96.0818 47.78 97.317 46.2491 97.9018C45.8275 98.0625 45.3888 98.1806 44.9556 98.3111C44.8868 98.3322 44.7945 98.34 44.7336 98.3102C43.6235 97.7709 42.5507 97.1567 41.9062 96.0632C41.6295 95.5939 41.3732 95.0509 41.4411 94.4606C41.5231 93.7449 41.2174 92.9919 41.6449 92.3101C41.5169 92.2571 41.3885 92.2041 41.2332 92.1399Z" fill="#38B6FF"/>
<path fill-rule="evenodd" clip-rule="evenodd" d="M8.2281 105.402C7.8694 105.32 7.66023 105.17 7.78905 104.746C7.84455 104.72 7.94271 104.694 8.01934 104.638C8.75082 104.11 9.65047 104.03 10.4739 103.768C10.833 103.654 11.403 103.756 11.7037 103.986C12.6385 104.703 13.6757 105.325 14.118 106.555C14.4834 107.57 14.3359 108.873 13.6906 109.704C13.3161 110.186 12.7918 110.489 12.4061 110.979C11.7741 110.876 11.108 111.133 10.4793 110.753C10.1856 110.575 8.90697 109.899 8.6568 109.712C8.07402 109.277 7.84662 108.64 7.62875 107.994C7.5836 107.861 7.51194 107.691 7.55709 107.581C7.8462 106.873 7.64035 106.024 8.2281 105.402Z" fill="#38B6FF"/>
<path fill-rule="evenodd" clip-rule="evenodd" d="M59.2525 82.1309C60.1501 82.9871 61.6495 83.4646 62.8822 83.4178C63.4728 83.3959 63.9189 83.1884 64.3103 82.7841C64.5369 82.5501 64.7693 82.3223 65.005 82.0862C64.8712 81.9019 64.751 81.8 64.7134 81.6732C64.5386 81.0917 64.2205 80.7268 63.5631 80.6771C63.2649 80.6547 62.9824 80.46 62.6846 80.3706C62.4899 80.3122 62.1474 80.214 62.0993 80.2856C61.8272 80.694 61.6793 80.0537 61.3227 80.3643C61.1173 80.5574 60.7739 80.88 60.4284 81.2043C60.1493 80.9848 59.9293 80.8117 59.7347 80.6588C59.0272 81.0122 59.3851 81.609 59.2525 82.1309ZM66.2633 82.869C66.4795 82.944 66.6104 82.9895 66.7496 83.0376C66.6373 83.3913 66.5325 83.7227 66.4269 84.0557C66.2496 84.076 66.0719 84.0971 65.823 84.1257C65.9054 84.2363 65.9572 84.3067 66.0376 84.4148C65.6548 84.8858 65.215 85.2474 64.5361 85.2175C64.3667 85.2101 64.1894 85.278 64.0229 85.3327C63.5606 85.4847 63.1104 85.5166 62.6506 85.3095C62.4932 85.2387 62.195 85.1583 62.1445 85.2233C61.7212 85.7705 61.3728 85.0668 60.9578 85.1616C60.7834 85.2014 60.6181 84.7458 60.2454 84.7329C60.0461 84.7263 59.8697 84.4326 59.658 84.3133C59.4103 84.1737 59.313 83.801 58.946 83.8548C58.7737 83.2977 58.2166 83.0405 57.937 82.5782C57.3145 81.5494 57.3137 80.0707 57.8256 79.0753C58.2783 78.1935 59.132 77.9355 59.9165 78.5286C60.2967 78.8165 60.5854 79.0455 61.0187 78.698C61.1678 78.9345 61.3065 78.8393 61.4151 78.6698C61.5878 78.4002 61.8508 78.3845 62.1076 78.4379C63.0006 78.6255 63.9073 78.8786 64.626 79.4171C65.258 79.8909 65.7108 80.6037 66.2426 81.211C66.1995 81.7498 66.8842 82.2589 66.2633 82.869Z" fill="#38B6FF"/>
<path fill-rule="evenodd" clip-rule="evenodd" d="M74.4923 108.569C74.8319 108.392 75.213 108.099 75.7705 108.326C75.7113 108.406 75.6611 108.475 75.5588 108.616C75.7788 108.673 76.1362 108.684 76.1627 108.785C76.3475 109.478 77.1295 109.674 77.3635 110.316C77.7586 111.403 78.1053 112.487 77.525 113.612C77.4604 113.737 77.3946 113.766 77.4869 113.943C77.7433 114.431 77.5047 114.782 77.057 115.036C76.7455 115.212 76.9178 115.387 77.0992 115.564C76.7099 116.063 76.3193 116.565 75.9353 117.058H74.694C74.4645 116.811 74.1824 116.513 73.9062 116.21C73.6572 115.938 73.3317 115.768 73.1072 115.441C72.5985 114.699 72.502 113.898 72.6723 113.073C72.8052 112.432 73.12 111.83 73.2778 111.192C73.381 110.775 73.4828 110.44 73.8991 110.212C74.0665 110.121 74.1816 109.786 74.1766 109.565C74.1696 109.241 74.3949 109.12 74.5357 108.915C74.5821 108.848 74.5126 108.702 74.4923 108.569Z" fill="#38B6FF"/>
<path fill-rule="evenodd" clip-rule="evenodd" d="M85.9353 73.1143C85.8823 73.0613 85.8052 73.0178 85.78 72.9536C85.5952 72.4847 85.0999 72.563 84.7552 72.4371C84.5709 72.3695 84.2449 72.6756 83.9886 72.8227C83.8742 72.8881 83.6464 73.2626 83.4944 73.5339C83.3768 73.7447 83.248 74.0889 83.0893 74.1092C82.7327 74.156 82.8056 74.3544 82.7729 74.5673C82.7509 74.7139 82.6532 74.849 82.5968 74.972C83.388 75.7764 84.1323 75.4392 84.9474 75.0606C85.8367 74.6477 85.9916 73.9576 85.9353 73.1143ZM83.8502 77.0761C83.6796 77.3255 83.5292 77.5433 83.3743 77.7699C83.2728 77.6755 83.1829 77.5301 83.1167 77.54C82.3119 77.6606 82.0459 76.8864 81.5046 76.577C81.4433 76.5422 81.4015 76.3219 81.4387 76.29C82.0016 75.8095 81.4015 75.4545 81.3269 75.0391C81.2374 75.119 81.1583 75.1907 81.0784 75.2615C81.0515 75.2346 81.0009 75.2068 81.0022 75.1816C81.0283 74.6891 80.7603 74.1527 81.2557 73.7265C81.3683 73.6291 81.3472 73.3918 81.4304 73.2431C81.6446 72.862 81.7017 72.3588 82.094 72.1198C82.4962 71.8737 82.3388 71.373 82.7397 71.0843C83.4203 70.5939 84.4839 70.3453 85.2813 70.6432C86.439 71.076 87.1762 71.957 87.6078 73.0223C87.9549 73.8797 88.119 74.8514 87.9578 75.7925C87.8634 76.3405 87.3817 76.717 86.9542 77.0463C86.8258 77.1449 86.5048 76.9933 86.2041 76.9452C86.2236 77.0231 86.2269 77.1917 86.3052 77.3122C86.4245 77.4969 86.4725 77.6701 86.2418 77.7442C86.0074 77.82 85.9212 77.6577 85.9357 77.4265C85.9382 77.3888 85.8326 77.3441 85.7154 77.2567C85.5385 77.4042 85.3475 77.5636 85.1177 77.7554C85.0816 77.6307 85.0464 77.5085 84.9797 77.2774C84.6828 77.5529 84.4156 77.8001 84.0242 78.1626C83.95 77.7011 83.9028 77.4046 83.8502 77.0761Z" fill="#38B6FF"/>
<path fill-rule="evenodd" clip-rule="evenodd" d="M26.9469 88.7275C27.1337 88.8853 27.2165 88.9553 27.318 89.0407C27.3892 88.8969 27.4427 88.6447 27.5375 88.6281C27.7786 88.5859 28.1008 88.5606 28.2785 88.6865C28.8116 89.0655 29.372 89.4561 29.7676 89.9631C30.142 90.444 30.391 91.0574 30.5595 91.6514C30.6569 91.9952 30.6018 92.3891 30.4009 92.8045C29.9884 93.6549 29.575 94.4178 28.7143 94.9182C28.3336 95.1394 27.9057 95.1493 27.5454 95.3726C27.4029 95.4612 27.2298 95.4997 27.0637 95.5635C27.002 95.4542 26.9224 95.3129 26.8429 95.1721C26.7153 95.3543 26.6296 95.3328 26.4345 95.1982C26.0841 94.9559 25.4027 94.3362 25.1074 94.0947C24.1568 93.3185 24.7044 92.353 24.7458 91.4679C24.7557 91.2459 25.1103 91.0396 25.3199 90.8118C26.0965 91.2293 26.4979 91.8962 26.7696 92.633C27.5313 92.5382 27.6547 91.8274 28.0731 91.4314C28.1655 91.344 28.1029 91.0922 28.1203 90.7323C27.755 91.0972 27.5127 91.3395 27.3093 91.5424C26.7365 91.5018 26.8056 90.8114 26.3231 90.7695C26.3152 90.3222 26.2386 89.8604 26.3256 89.4325C26.3753 89.1894 26.6938 89.0013 26.9469 88.7275Z" fill="#38B6FF"/>
<path fill-rule="evenodd" clip-rule="evenodd" d="M70.1067 59.3639C70.4302 59.0404 70.67 58.8006 70.9496 58.521H72.3496C72.4954 57.9101 72.0439 58.1573 71.7527 58.0766C71.7838 57.9979 71.7925 57.9038 71.8438 57.8595C72.2005 57.553 71.6724 57.4337 71.7229 57.1222C71.9619 56.5544 72.6279 56.4508 73.1283 56.1414C73.2699 56.0536 73.5462 56.1021 73.7268 56.1733C74.6434 56.5353 74.9756 57.3579 75.3447 58.1872C75.5824 58.7202 75.3612 59.3498 75.7771 59.8158C75.6123 60.4255 75.5485 61.0899 75.2544 61.6292C74.9425 62.202 74.2752 62.5139 73.6481 62.5764C73.3006 62.6112 72.9974 63.0192 72.6561 62.7546C72.3666 62.5301 71.959 62.6564 71.6956 62.3014C71.5079 62.0483 71.0912 62.0314 70.9782 61.589C70.9223 61.3707 70.5052 61.3359 70.3167 60.9892C70.0127 60.4301 70.238 59.8962 70.1067 59.3639Z" fill="#38B6FF"/>
<path fill-rule="evenodd" clip-rule="evenodd" d="M66.137 94.7494C66.2774 95.3094 66.4008 95.7803 66.5106 96.2542C66.5355 96.3606 66.5624 96.5296 66.5069 96.5814C66.0094 97.042 66.4717 97.4206 66.5926 97.8273C67.462 97.8414 67.438 97.7867 67.8841 97.1517C68.4147 96.3958 68.3236 95.5736 68.3087 94.7506C68.3062 94.6011 68.1633 94.4209 68.0357 94.3132C67.781 94.0978 67.3614 94.4304 67.1294 94.0717L66.8929 94.4333C66.4539 94.1401 66.3429 94.6106 66.137 94.7494ZM65.1044 95.4742C64.969 95.2112 64.8252 94.9325 64.708 94.7046C64.8356 94.0295 65.6039 94.2163 65.8541 93.6919C66.0993 93.1771 66.8486 93.3966 67.25 92.8772C67.0909 92.7703 66.9368 92.6672 66.7798 92.5616C66.8022 92.533 66.8337 92.453 66.8772 92.4452C67.6381 92.3064 68.1931 92.7132 68.7108 93.1754C69.142 93.5598 69.3889 94.0854 69.7128 94.5506C69.8946 94.8119 69.5778 95.0526 69.8528 95.2191C70.0988 95.3686 70.1746 95.6117 70.1287 95.8905C70.0777 96.1966 70.3668 96.5263 70.315 96.6854C70.1924 97.0598 70.1829 97.4516 70.0574 97.8149C69.823 98.4929 69.4792 99.1105 68.9478 99.608C68.6429 99.8933 68.2142 99.9894 67.677 99.8954C66.3806 99.6688 66.3652 99.6825 65.7808 99.0401C65.3227 98.5368 65.0257 97.9619 64.9027 97.2582C64.8323 96.8589 64.5953 96.5068 64.8766 96.1117C64.4997 95.7497 65.0696 95.7584 65.1044 95.4742Z" fill="#38B6FF"/>
<path fill-rule="evenodd" clip-rule="evenodd" d="M34.8183 64.8359C35.8464 65.415 36.0833 65.8979 35.5183 66.7802C35.2271 67.2354 35.5875 67.7482 35.1762 68.1218C35.1153 68.1769 35.2756 68.4784 35.3365 68.6648C35.5051 69.1772 35.6716 69.2232 36.2291 69.0761C37.2936 68.7961 37.7977 68.0431 38.054 67.0225C37.6572 66.9098 37.258 66.8022 36.862 66.6829C36.3786 66.5375 36.5542 65.9945 36.3562 65.7451C36.584 65.5173 36.8342 65.2671 37.0848 65.0169C37.7732 64.6322 38.2007 65.3843 38.8282 65.5546C39.2888 66.2981 39.9316 66.943 39.8653 67.9391C39.7809 69.1966 39.2391 70.245 37.8652 70.7482C36.7187 71.1691 35.8116 70.9926 34.8278 70.1182C34.2285 69.5856 33.7397 69.0368 33.7186 68.0907C33.6896 66.8415 33.9286 65.7439 34.8183 64.8359Z" fill="#38B6FF"/>
<path fill-rule="evenodd" clip-rule="evenodd" d="M33.242 111.142C32.262 111.43 31.69 110.77 31.031 110.376C30.4267 110.014 30.348 109.302 30.169 108.717C30.0042 108.175 30.3372 107.612 30.5335 107.087C30.6988 106.646 30.9718 106.244 31.1954 105.827C31.0931 105.79 30.9626 105.742 30.8052 105.685C30.9718 105.51 31.1184 105.356 31.3006 105.164C31.0666 105.121 30.8608 105.084 30.5224 105.023C30.741 104.86 30.8955 104.65 31.0355 104.659C31.4266 104.686 31.8093 104.55 32.2206 104.775C33.2677 105.346 33.8028 106.302 34.1889 107.328C34.7302 108.768 34.4407 110.077 33.242 111.142Z" fill="#38B6FF"/>
<path fill-rule="evenodd" clip-rule="evenodd" d="M45.7865 116.501C45.6788 116.718 45.5864 116.903 45.4796 117.118C46.2226 117.882 46.5296 118.802 46.4111 119.868C46.3825 120.121 46.3896 120.339 46.2003 120.576C45.8416 121.026 45.7927 121.682 45.0964 121.92C44.7949 122.023 44.466 122.108 44.263 122.004C43.6981 121.713 43.0486 121.489 42.6982 120.908C42.523 120.618 42.3606 120.317 42.3238 119.935C42.2016 118.681 42.711 117.64 43.3489 116.642C43.4922 116.417 43.7349 116.255 44.024 116.124C44.3571 115.974 44.5629 115.852 44.8964 116.1C45.1391 116.282 45.4593 116.36 45.7865 116.501Z" fill="#38B6FF"/>
<path fill-rule="evenodd" clip-rule="evenodd" d="M86.5145 90.6242C86.0684 90.2808 85.8067 89.6612 85.1112 89.6869C84.9368 89.3849 84.661 89.1 84.6084 88.7781C84.4816 87.9982 84.6643 87.3019 85.4703 86.92C85.5656 86.8749 85.631 86.7659 85.7346 86.6624C85.5938 86.6147 85.4683 86.5721 85.4558 86.5679C85.6522 86.3716 85.894 86.1297 86.1355 85.8882C86.0833 85.8265 86.0312 85.7652 85.979 85.7035C86.0825 85.6894 86.1906 85.6497 86.2884 85.6666C86.7419 85.7449 87.2642 85.4363 87.649 85.8994C88.1494 86.5013 88.5188 87.1565 88.6651 87.9485C88.8593 88.9997 87.8441 90.162 87.0733 90.5368C86.8769 90.6321 86.633 90.2469 86.5145 90.6242Z" fill="#38B6FF"/>
<path fill-rule="evenodd" clip-rule="evenodd" d="M56.5735 104.376C56.5735 104.687 56.554 104.841 56.5768 104.988C56.6945 105.754 56.0549 106.025 55.6101 106.363C55.1677 106.698 54.7448 106.206 54.331 106.083C53.9446 105.969 53.6261 105.598 53.3005 105.315C52.7517 104.837 52.5462 103.703 52.8942 103.024C52.9733 102.87 52.8888 102.607 53.2558 102.572C53.4749 102.551 53.682 102.202 53.858 101.973C54.3194 101.376 54.7237 101.307 55.2178 101.829C55.5405 102.17 55.9145 102.449 56.1448 102.906C56.4116 103.436 56.711 103.917 56.5735 104.376Z" fill="#38B6FF"/>
<path fill-rule="evenodd" clip-rule="evenodd" d="M44.264 78.6585C44.7523 79.1833 45.2966 79.6369 45.553 80.3754C45.8707 81.2899 45.6975 81.7891 44.9197 82.3221C44.0333 82.9298 43.4406 82.8246 42.6668 82.0355C42.5616 81.9282 42.4548 81.823 42.3699 81.7385C42.2414 81.3425 42.5355 80.8857 42.1143 80.5763C41.8803 79.5333 42.5852 78.6788 43.6978 78.6589C43.8854 78.6556 44.073 78.6585 44.264 78.6585Z" fill="#38B6FF"/>
<path fill-rule="evenodd" clip-rule="evenodd" d="M54.7659 67.0475C54.9693 66.8889 55.0935 66.7919 55.2178 66.695C55.0724 66.5728 54.927 66.4502 54.785 66.3309C54.8429 66.2663 54.9129 66.188 55.0111 66.0791C54.7551 66.0228 54.5273 65.9731 54.2535 65.9134C54.5737 65.054 55.3603 64.9914 55.9766 64.7106C56.0971 64.6559 56.3569 64.8145 56.506 64.933C57.1103 65.4114 57.5506 66.0228 57.8567 66.7286C57.8969 66.8218 57.9507 66.9903 57.9126 67.0231C57.3791 67.4783 58.0832 68.3593 57.3841 68.6641C57.247 68.7238 56.9392 68.3721 56.571 68.3464C56.7205 68.51 56.8692 68.6741 57.0395 68.8609C56.7653 69.0427 56.5064 69.2316 56.2289 69.3877C56.144 69.4362 56.0077 69.4043 55.8967 69.3919C55.8304 69.3844 55.7099 69.3343 55.7124 69.3182C55.8039 68.701 55.0679 69.1595 54.9858 68.7544C54.9453 68.554 54.7945 68.3705 54.7758 68.1716C54.7411 67.8005 54.7659 67.424 54.7659 67.0475Z" fill="#38B6FF"/>
<path fill-rule="evenodd" clip-rule="evenodd" d="M56.3693 50.497V50H57.3758C57.8861 50.7663 58.5844 51.4924 58.3376 52.6467C58.176 52.6571 57.9735 52.6695 57.6897 52.6873V51.7554C57.5087 51.7898 57.3696 51.7749 57.3186 51.8349C57.2333 51.9347 57.2246 52.0963 57.1484 52.2073C57.0076 52.4119 56.9305 52.3659 56.7416 52.0623C56.6141 51.8569 56.4389 51.6804 56.2628 51.4642C56.4944 51.3573 56.6476 51.2869 56.8112 51.2115C56.3357 50.9767 56.344 50.985 56.7358 50.5778C56.8038 50.5074 56.7652 50.3347 56.7835 50.1147C56.6153 50.2705 56.5366 50.3425 56.3693 50.497Z" fill="#38B6FF"/>
<path fill-rule="evenodd" clip-rule="evenodd" d="M397.441 359.582C398.006 359.582 398.503 359.668 398.955 359.563C399.791 359.369 400.917 357.665 400.853 356.799C400.844 356.666 400.8 356.473 400.708 356.42C400.289 356.179 399.846 355.978 399.412 355.762C399.154 356.206 398.357 355.708 398.248 356.443C398.203 356.746 397.511 356.552 397.696 357.09C397.249 357.884 397.576 358.73 397.441 359.582ZM395.233 356.14C395.369 355.907 395.545 355.692 395.63 355.446C395.934 354.553 396.726 354.209 397.486 353.995C398.014 353.846 398.576 353.668 399.183 353.71C400.563 353.808 401.531 354.455 402.222 355.624C402.543 356.169 402.846 356.721 402.982 357.334C403.073 357.75 403.185 358.231 403.063 358.61C402.589 360.082 401.78 361.317 400.249 361.902C399.827 362.063 399.389 362.181 398.956 362.311C398.887 362.332 398.794 362.34 398.734 362.31C397.624 361.771 396.551 361.157 395.906 360.063C395.63 359.594 395.373 359.051 395.441 358.461C395.523 357.745 395.217 356.992 395.645 356.31C395.517 356.257 395.388 356.204 395.233 356.14Z" fill="#38B6FF"/>
<path fill-rule="evenodd" clip-rule="evenodd" d="M362.228 369.402C361.869 369.32 361.66 369.17 361.789 368.746C361.845 368.72 361.943 368.694 362.019 368.638C362.751 368.11 363.65 368.03 364.474 367.768C364.833 367.654 365.403 367.756 365.704 367.986C366.639 368.703 367.676 369.325 368.118 370.555C368.483 371.57 368.336 372.873 367.691 373.704C367.316 374.186 366.792 374.489 366.406 374.979C365.774 374.876 365.108 375.133 364.479 374.753C364.186 374.575 362.907 373.899 362.657 373.712C362.074 373.277 361.847 372.64 361.629 371.994C361.584 371.861 361.512 371.691 361.557 371.581C361.846 370.873 361.64 370.024 362.228 369.402Z" fill="#38B6FF"/>
<path fill-rule="evenodd" clip-rule="evenodd" d="M413.253 346.131C414.15 346.987 415.65 347.465 416.882 347.418C417.473 347.396 417.919 347.188 418.31 346.784C418.537 346.55 418.769 346.322 419.005 346.086C418.871 345.902 418.751 345.8 418.713 345.673C418.539 345.092 418.22 344.727 417.563 344.677C417.265 344.655 416.982 344.46 416.685 344.371C416.49 344.312 416.147 344.214 416.099 344.286C415.827 344.694 415.679 344.054 415.323 344.364C415.117 344.557 414.774 344.88 414.428 345.204C414.149 344.985 413.929 344.812 413.735 344.659C413.027 345.012 413.385 345.609 413.253 346.131ZM420.263 346.869C420.48 346.944 420.61 346.99 420.75 347.038C420.637 347.391 420.533 347.723 420.427 348.056C420.25 348.076 420.072 348.097 419.823 348.126C419.905 348.236 419.957 348.307 420.038 348.415C419.655 348.886 419.215 349.247 418.536 349.218C418.367 349.21 418.189 349.278 418.023 349.333C417.561 349.485 417.11 349.517 416.651 349.309C416.493 349.239 416.195 349.158 416.144 349.223C415.721 349.77 415.373 349.067 414.958 349.162C414.783 349.201 414.618 348.746 414.245 348.733C414.046 348.726 413.87 348.433 413.658 348.313C413.41 348.174 413.313 347.801 412.946 347.855C412.774 347.298 412.217 347.04 411.937 346.578C411.314 345.549 411.314 344.071 411.826 343.075C412.278 342.194 413.132 341.935 413.916 342.529C414.297 342.816 414.585 343.046 415.019 342.698C415.168 342.935 415.307 342.839 415.415 342.67C415.588 342.4 415.851 342.384 416.108 342.438C417.001 342.626 417.907 342.879 418.626 343.417C419.258 343.891 419.711 344.604 420.243 345.211C420.2 345.75 420.884 346.259 420.263 346.869Z" fill="#38B6FF"/>
<path fill-rule="evenodd" clip-rule="evenodd" d="M428.492 372.569C428.832 372.392 429.213 372.099 429.77 372.326C429.711 372.406 429.661 372.475 429.559 372.616C429.779 372.673 430.136 372.684 430.163 372.785C430.347 373.478 431.129 373.674 431.363 374.316C431.759 375.403 432.105 376.487 431.525 377.612C431.46 377.737 431.395 377.766 431.487 377.943C431.743 378.431 431.505 378.782 431.057 379.036C430.745 379.212 430.918 379.387 431.099 379.564C430.71 380.063 430.319 380.565 429.935 381.058H428.694C428.464 380.811 428.182 380.513 427.906 380.21C427.657 379.938 427.332 379.768 427.107 379.441C426.598 378.699 426.502 377.898 426.672 377.073C426.805 376.432 427.12 375.83 427.278 375.192C427.381 374.775 427.483 374.44 427.899 374.212C428.066 374.121 428.182 373.786 428.177 373.565C428.17 373.241 428.395 373.12 428.536 372.915C428.582 372.848 428.512 372.702 428.492 372.569Z" fill="#38B6FF"/>
<path fill-rule="evenodd" clip-rule="evenodd" d="M439.935 337.114C439.882 337.061 439.805 337.018 439.78 336.954C439.595 336.485 439.1 336.563 438.755 336.437C438.571 336.37 438.245 336.676 437.989 336.823C437.874 336.888 437.646 337.263 437.494 337.534C437.377 337.745 437.248 338.089 437.089 338.109C436.733 338.156 436.806 338.354 436.773 338.567C436.751 338.714 436.653 338.849 436.597 338.972C437.388 339.776 438.132 339.439 438.947 339.061C439.837 338.648 439.992 337.958 439.935 337.114ZM437.85 341.076C437.68 341.325 437.529 341.543 437.374 341.77C437.273 341.675 437.183 341.53 437.117 341.54C436.312 341.661 436.046 340.886 435.505 340.577C435.443 340.542 435.401 340.322 435.439 340.29C436.002 339.809 435.401 339.455 435.327 339.039C435.237 339.119 435.158 339.191 435.078 339.261C435.051 339.235 435.001 339.207 435.002 339.182C435.028 338.689 434.76 338.153 435.256 337.726C435.368 337.629 435.347 337.392 435.43 337.243C435.645 336.862 435.702 336.359 436.094 336.12C436.496 335.874 436.339 335.373 436.74 335.084C437.42 334.594 438.484 334.345 439.281 334.643C440.439 335.076 441.176 335.957 441.608 337.022C441.955 337.88 442.119 338.851 441.958 339.793C441.863 340.34 441.382 340.717 440.954 341.046C440.826 341.145 440.505 340.993 440.204 340.945C440.224 341.023 440.227 341.192 440.305 341.312C440.424 341.497 440.473 341.67 440.242 341.744C440.007 341.82 439.921 341.658 439.936 341.427C439.938 341.389 439.833 341.344 439.715 341.257C439.538 341.404 439.348 341.564 439.118 341.755C439.082 341.631 439.046 341.509 438.98 341.277C438.683 341.553 438.416 341.8 438.024 342.163C437.95 341.701 437.903 341.405 437.85 341.076Z" fill="#38B6FF"/>
<path fill-rule="evenodd" clip-rule="evenodd" d="M380.947 352.728C381.134 352.885 381.217 352.955 381.318 353.041C381.389 352.897 381.443 352.645 381.538 352.628C381.779 352.586 382.101 352.561 382.279 352.687C382.812 353.066 383.372 353.456 383.768 353.963C384.142 354.444 384.391 355.057 384.56 355.651C384.657 355.995 384.602 356.389 384.401 356.805C383.988 357.655 383.575 358.418 382.714 358.918C382.334 359.139 381.906 359.149 381.545 359.373C381.403 359.461 381.23 359.5 381.064 359.564C381.002 359.454 380.922 359.313 380.843 359.172C380.715 359.354 380.63 359.333 380.435 359.198C380.084 358.956 379.403 358.336 379.107 358.095C378.157 357.319 378.704 356.353 378.746 355.468C378.756 355.246 379.11 355.04 379.32 354.812C380.097 355.229 380.498 355.896 380.77 356.633C381.531 356.538 381.655 355.827 382.073 355.431C382.165 355.344 382.103 355.092 382.12 354.732C381.755 355.097 381.513 355.339 381.309 355.542C380.736 355.502 380.806 354.811 380.323 354.77C380.315 354.322 380.239 353.86 380.326 353.432C380.375 353.189 380.694 353.001 380.947 352.728Z" fill="#38B6FF"/>
<path fill-rule="evenodd" clip-rule="evenodd" d="M424.107 323.364C424.43 323.04 424.67 322.801 424.95 322.521H426.35C426.495 321.91 426.044 322.157 425.753 322.077C425.784 321.998 425.792 321.904 425.844 321.86C426.2 321.553 425.672 321.434 425.723 321.122C425.962 320.554 426.628 320.451 427.128 320.141C427.27 320.054 427.546 320.102 427.727 320.173C428.643 320.535 428.976 321.358 429.345 322.187C429.582 322.72 429.361 323.35 429.777 323.816C429.612 324.426 429.548 325.09 429.254 325.629C428.942 326.202 428.275 326.514 427.648 326.576C427.301 326.611 426.997 327.019 426.656 326.755C426.367 326.53 425.959 326.656 425.696 326.301C425.508 326.048 425.091 326.031 424.978 325.589C424.922 325.371 424.505 325.336 424.317 324.989C424.013 324.43 424.238 323.896 424.107 323.364Z" fill="#38B6FF"/>
<path fill-rule="evenodd" clip-rule="evenodd" d="M420.137 358.749C420.277 359.309 420.401 359.78 420.511 360.254C420.535 360.361 420.562 360.53 420.507 360.581C420.009 361.042 420.472 361.421 420.593 361.827C421.462 361.841 421.438 361.787 421.884 361.152C422.415 360.396 422.324 359.574 422.309 358.751C422.306 358.601 422.163 358.421 422.036 358.313C421.781 358.098 421.361 358.43 421.129 358.072L420.893 358.433C420.454 358.14 420.343 358.611 420.137 358.749ZM419.104 359.474C418.969 359.211 418.825 358.932 418.708 358.705C418.836 358.029 419.604 358.216 419.854 357.692C420.099 357.177 420.849 357.397 421.25 356.877C421.091 356.77 420.937 356.667 420.78 356.562C420.802 356.533 420.834 356.453 420.877 356.445C421.638 356.306 422.193 356.713 422.711 357.175C423.142 357.56 423.389 358.085 423.713 358.551C423.895 358.812 423.578 359.053 423.853 359.219C424.099 359.369 424.175 359.612 424.129 359.891C424.078 360.197 424.367 360.526 424.315 360.685C424.192 361.06 424.183 361.452 424.057 361.815C423.823 362.493 423.479 363.111 422.948 363.608C422.643 363.893 422.214 363.989 421.677 363.895C420.381 363.669 420.365 363.683 419.781 363.04C419.323 362.537 419.026 361.962 418.903 361.258C418.832 360.859 418.595 360.507 418.877 360.112C418.5 359.75 419.07 359.758 419.104 359.474Z" fill="#38B6FF"/>
<path fill-rule="evenodd" clip-rule="evenodd" d="M388.818 328.836C389.846 329.415 390.083 329.898 389.518 330.78C389.227 331.235 389.587 331.748 389.176 332.122C389.115 332.177 389.276 332.478 389.336 332.665C389.505 333.177 389.672 333.223 390.229 333.076C391.294 332.796 391.798 332.043 392.054 331.023C391.657 330.91 391.258 330.802 390.862 330.683C390.379 330.537 390.554 329.994 390.356 329.745C390.584 329.517 390.834 329.267 391.085 329.017C391.773 328.632 392.201 329.384 392.828 329.555C393.289 330.298 393.932 330.943 393.865 331.939C393.781 333.197 393.239 334.245 391.865 334.748C390.719 335.169 389.812 334.993 388.828 334.118C388.228 333.586 387.74 333.037 387.719 332.091C387.69 330.841 387.929 329.744 388.818 328.836Z" fill="#38B6FF"/>
<path fill-rule="evenodd" clip-rule="evenodd" d="M387.242 375.142C386.262 375.43 385.69 374.77 385.031 374.376C384.427 374.014 384.348 373.302 384.169 372.717C384.004 372.175 384.337 371.612 384.533 371.087C384.699 370.646 384.972 370.244 385.195 369.827C385.093 369.79 384.963 369.742 384.805 369.685C384.972 369.51 385.118 369.356 385.301 369.164C385.067 369.121 384.861 369.084 384.522 369.023C384.741 368.86 384.895 368.65 385.035 368.659C385.426 368.686 385.809 368.55 386.221 368.775C387.268 369.346 387.803 370.302 388.189 371.328C388.73 372.768 388.441 374.077 387.242 375.142Z" fill="#38B6FF"/>
<path fill-rule="evenodd" clip-rule="evenodd" d="M399.786 380.501C399.679 380.718 399.586 380.903 399.48 381.118C400.223 381.882 400.53 382.802 400.411 383.868C400.383 384.121 400.39 384.339 400.2 384.576C399.842 385.026 399.793 385.682 399.096 385.92C398.795 386.023 398.466 386.108 398.263 386.004C397.698 385.713 397.049 385.489 396.698 384.908C396.523 384.618 396.361 384.317 396.324 383.935C396.202 382.681 396.711 381.64 397.349 380.642C397.492 380.417 397.735 380.255 398.024 380.124C398.357 379.974 398.563 379.852 398.896 380.1C399.139 380.282 399.459 380.36 399.786 380.501Z" fill="#38B6FF"/>
<path fill-rule="evenodd" clip-rule="evenodd" d="M440.515 354.624C440.068 354.281 439.807 353.661 439.111 353.687C438.937 353.385 438.661 353.1 438.608 352.778C438.482 351.998 438.664 351.302 439.47 350.92C439.566 350.875 439.631 350.766 439.735 350.662C439.594 350.615 439.468 350.572 439.456 350.568C439.652 350.372 439.894 350.13 440.136 349.888C440.083 349.827 440.031 349.765 439.979 349.704C440.083 349.689 440.191 349.65 440.288 349.667C440.742 349.745 441.264 349.436 441.649 349.899C442.149 350.501 442.519 351.157 442.665 351.948C442.859 353 441.844 354.162 441.073 354.537C440.877 354.632 440.633 354.247 440.515 354.624Z" fill="#38B6FF"/>
<path fill-rule="evenodd" clip-rule="evenodd" d="M410.574 368.376C410.574 368.687 410.554 368.841 410.577 368.988C410.694 369.754 410.055 370.025 409.61 370.363C409.168 370.698 408.745 370.206 408.331 370.083C407.945 369.969 407.626 369.598 407.3 369.315C406.752 368.837 406.546 367.703 406.894 367.024C406.973 366.87 406.889 366.607 407.256 366.572C407.475 366.551 407.682 366.202 407.858 365.973C408.319 365.376 408.724 365.307 409.218 365.829C409.54 366.17 409.915 366.449 410.145 366.906C410.412 367.436 410.711 367.917 410.574 368.376Z" fill="#38B6FF"/>
<path fill-rule="evenodd" clip-rule="evenodd" d="M398.264 342.659C398.752 343.183 399.297 343.637 399.553 344.375C399.871 345.29 399.698 345.789 398.92 346.322C398.033 346.93 397.441 346.825 396.667 346.036C396.562 345.928 396.455 345.823 396.37 345.739C396.241 345.343 396.536 344.886 396.114 344.576C395.88 343.533 396.585 342.679 397.698 342.659C397.885 342.656 398.073 342.659 398.264 342.659Z" fill="#38B6FF"/>
<path fill-rule="evenodd" clip-rule="evenodd" d="M408.766 331.048C408.969 330.889 409.094 330.792 409.218 330.695C409.072 330.573 408.927 330.45 408.785 330.331C408.843 330.266 408.913 330.188 409.011 330.079C408.755 330.023 408.527 329.973 408.254 329.913C408.574 329.054 409.36 328.991 409.977 328.711C410.097 328.656 410.357 328.815 410.506 328.933C411.11 329.411 411.551 330.023 411.857 330.729C411.897 330.822 411.951 330.99 411.913 331.023C411.379 331.478 412.083 332.359 411.384 332.664C411.247 332.724 410.939 332.372 410.571 332.346C410.721 332.51 410.869 332.674 411.039 332.861C410.765 333.043 410.506 333.232 410.229 333.388C410.144 333.436 410.008 333.404 409.897 333.392C409.83 333.384 409.71 333.334 409.712 333.318C409.804 332.701 409.068 333.16 408.986 332.754C408.945 332.554 408.794 332.37 408.776 332.172C408.741 331.801 408.766 331.424 408.766 331.048Z" fill="#38B6FF"/>
<path fill-rule="evenodd" clip-rule="evenodd" d="M410.369 314.497V314H411.376C411.886 314.766 412.584 315.492 412.338 316.647C412.176 316.657 411.973 316.67 411.69 316.687V315.755C411.509 315.79 411.37 315.775 411.319 315.835C411.233 315.935 411.225 316.096 411.148 316.207C411.008 316.412 410.931 316.366 410.742 316.062C410.614 315.857 410.439 315.68 410.263 315.464C410.494 315.357 410.648 315.287 410.811 315.212C410.336 314.977 410.344 314.985 410.736 314.578C410.804 314.507 410.765 314.335 410.783 314.115C410.615 314.27 410.537 314.343 410.369 314.497Z" fill="#38B6FF"/>
<path d="M275.745 37.4636C275.629 36.1291 275.19 34.8428 274.465 33.716C273.741 32.5891 272.754 31.6555 271.588 30.9956C265.717 27.7108 258.192 34.091 260.294 40.4112C261.033 42.6103 262.793 44.2088 264.798 45.2714C268.493 47.2349 273.667 47.1194 275.422 42.6935L275.45 42.6242C275.45 42.6242 276.216 46.5003 280.286 46.6435C280.811 46.6806 281.339 46.6017 281.83 46.4124C282.322 46.2231 282.766 45.928 283.131 45.5481C283.496 45.1681 283.772 44.7125 283.942 44.2137C284.111 43.7148 284.169 43.1847 284.111 42.6611C287.612 46.2647 288.527 51.6516 286.882 56.3225C287.182 55.4816 289.192 55.6341 289.774 55.8281C292.277 56.7013 293.612 59.6627 293.058 62.176C292.536 64.5276 290.721 66.5142 288.744 67.9556C288.575 68.0725 288.437 68.2286 288.342 68.4105C288.247 68.5923 288.197 68.7945 288.197 68.9997C288.197 69.205 288.247 69.4072 288.342 69.589C288.437 69.7708 288.575 69.9269 288.744 70.0438C290.626 71.254 292.856 71.8064 295.086 71.6146C297.789 71.3922 300.294 70.105 302.049 68.0362C303.804 65.9673 304.665 63.2862 304.444 60.5821L304.417 60.4527C306.201 60.079 307.809 59.1184 308.984 57.7242C310.159 56.3299 310.834 54.5823 310.9 52.76C310.967 50.9377 310.421 49.1456 309.351 47.6694C308.28 46.1933 306.747 45.1181 304.994 44.6154C305.52 43.6649 305.752 42.5794 305.659 41.4969C305.532 40.0283 304.829 38.6697 303.704 37.7176C302.579 36.7654 301.123 36.2971 299.654 36.4149" stroke="black" stroke-width="4.72" stroke-linecap="round" stroke-linejoin="round"/>
</svg>
