<svg width="494" height="462" viewBox="0 0 494 462" fill="none" xmlns="http://www.w3.org/2000/svg">
<path d="M145.216 186.722C162.029 154.991 128.596 124.845 101.134 118.768C60.9778 110.098 25.1686 142.591 11.8479 179.469C-46.8429 342.058 194.423 423.296 305.57 392.184C338.804 382.898 355.403 366.879 377.554 341.182C394.44 321.695 409.287 300.21 425.294 280.039C448.61 251.365 463.797 212.965 460.985 173.794C458.172 134.623 439.378 99.4279 418.64 67.2966C391.425 25.2629 356.902 5.75849 309.096 3.46559C280.211 2.09735 250.493 4.81785 230.995 29.531C212.857 52.4751 222.329 82.4617 230.423 107.758C239.613 137.115 252.475 166.463 256.856 196.974C260.6 223.333 258.564 250.015 232.873 260.828C212.394 269.576 184.511 272.171 164.289 260.098C150.436 251.611 142.554 234.029 140.65 217.572C139.732 210.472 139.662 203.297 140.443 196.215C141.706 189.239 147.07 183.85 147.233 177.007" fill="#39808B" fill-opacity="0.27"/>
<mask id="mask0_36_106" style="mask-type:alpha" maskUnits="userSpaceOnUse" x="2" y="3" width="460" height="396">
<path d="M145.02 186.695C161.88 155.069 128.377 124.986 100.854 118.905C60.6075 110.229 24.708 142.6 11.3473 179.36C-47.5195 341.43 194.28 422.617 305.69 391.682C339.003 382.449 355.643 366.489 377.851 340.884C394.781 321.467 409.668 300.056 425.717 279.956C449.093 251.384 464.326 213.108 461.516 174.049C458.707 134.99 439.879 99.8829 419.101 67.8293C391.835 25.8971 357.237 6.42288 309.322 4.09969C280.371 2.7131 250.585 5.40267 231.036 30.0287C212.85 52.8918 222.336 82.7983 230.443 108.027C239.646 137.306 252.53 166.578 256.913 197.003C260.66 223.288 258.612 249.891 232.859 260.653C212.33 269.359 184.383 271.925 164.118 259.871C150.235 251.399 142.339 233.862 140.435 217.451C139.517 210.371 139.449 203.217 140.233 196.157C141.501 189.202 146.879 183.832 147.044 177.009" fill="#514F43"/>
</mask>
<g mask="url(#mask0_36_106)">
<path d="M19.1126 563.883C53.4858 548.814 87.5747 533.094 121.447 517.035C155.318 500.976 189.315 484.493 223.14 468.031C256.965 451.569 291.153 434.955 325.302 418.766C358.321 403.121 391.733 388.242 424.643 372.396C456.403 357.117 487.7 340.401 517.019 320.464C520.636 318.025 524.34 315.631 527.761 312.898L524.662 308.724C520.447 311.956 515.827 314.579 510.925 316.523C509.069 317.328 510.427 320.61 512.326 319.961C517.743 318.286 522.927 315.913 527.761 312.898C530.442 311.096 527.918 306.526 525.173 308.395C517.83 313.161 510.792 318.445 503.428 323.21C496.064 327.976 488.528 332.606 480.904 337.033C465.593 345.977 449.933 354.289 434.035 362.242C401.599 378.497 368.443 393.2 335.701 408.758C301.595 424.97 267.492 441.496 233.669 458.204C199.846 474.912 166.128 491.398 132.237 507.725C98.3466 524.052 64.6447 539.956 30.3168 555.294C26.0525 557.212 21.7882 559.114 17.5237 561.002C15.6473 561.83 17.3003 564.689 19.1555 563.884L19.1126 563.883Z" fill="#514F43"/>
<path d="M55.3063 472.135C89.2894 451.105 123.548 430.562 158.083 410.508C192.617 390.454 227.486 371.112 262.69 352.483C280.208 343.264 297.834 334.263 315.569 325.479C333.603 316.543 351.812 308.011 369.584 298.601C404.489 280.021 438.173 259.143 472.229 238.987C483.154 232.404 494.824 227.777 506.165 222.184C516.993 216.831 529.122 210.755 536.654 200.71C538.091 198.794 539.241 196.659 540.065 194.374C540.462 193.327 539.298 192.463 538.4 192.654C532.352 193.88 526.14 193.694 520.047 194.674C519.127 194.842 519.357 196.5 520.277 196.399C526.544 195.713 532.887 196.235 539.131 195.325L537.613 193.249C532.833 204.379 520.816 210.948 510.907 216.245C499.868 222.087 488.175 226.58 477.181 232.535C469.467 236.694 462.038 241.461 454.52 245.981C446.001 251.07 437.554 256.146 429.178 261.207C412.268 271.32 395.293 281.321 378.057 290.804C343.392 309.88 307.353 326.21 272.34 344.61C237.327 363.011 203.111 382.069 169.075 401.891C135.038 421.712 101.117 442.497 67.5403 463.532C63.2815 466.144 59.0232 468.801 54.936 471.437C54.8513 471.486 54.7895 471.569 54.7643 471.668C54.7391 471.766 54.7525 471.872 54.8016 471.961C54.8507 472.051 54.9313 472.117 55.026 472.146C55.1206 472.174 55.2214 472.162 55.3061 472.113L55.3063 472.135Z" fill="#514F43"/>
<path d="M-16.8668 320.725C13.9711 299.527 45.4973 279.456 77.7117 260.511C109.926 241.567 142.527 223.514 175.514 206.353C208.607 189.096 242.115 172.695 275.864 156.877C309.613 141.06 344.575 126.868 378.755 111.436C395.515 103.851 411.752 95.3415 428.163 87.0359C442.229 79.9105 457.363 74.9004 470.665 66.1777C473.815 64.137 476.807 61.847 479.617 59.3272C482.059 57.1193 479.402 52.2115 476.309 53.4499C468.416 56.6221 460.566 59.8171 452.519 62.5626C444.473 65.308 436.338 67.8064 428.248 70.4619C427.83 70.6281 427.489 70.9516 427.291 71.3698C427.093 71.788 427.052 72.2713 427.176 72.7262C427.3 73.1811 427.58 73.5752 427.962 73.8326C428.344 74.09 428.801 74.1924 429.244 74.1198C445.924 70.9551 462.285 66.2997 478.147 60.2045L474.839 54.3271C463.095 64.8577 447.816 70.3806 433.764 76.7681C426.174 80.2123 418.845 84.2413 411.536 88.0915C403.396 92.3345 395.147 96.375 386.833 100.28C353.02 116.142 318.311 129.934 284.477 145.795C250.643 161.656 217.242 178.059 184.171 195.338C151.099 212.617 118.845 230.354 86.9248 249.458C55.0045 268.563 23.6052 288.479 -7.11977 309.544C-10.9708 312.205 -14.8431 314.888 -18.6726 317.572C-20.5023 318.847 -18.7604 322.044 -16.8883 320.725L-16.8668 320.725Z" fill="#514F43"/>
<path d="M-31.13 230.928C2.06001 212.464 34.0064 191.435 68.2215 175.041C103.012 158.297 138.938 144.138 174.67 129.685C192.418 122.492 210.144 115.23 227.696 107.587C244.757 100.116 261.813 92.2206 278.873 84.6383C312.374 69.7795 346.025 54.8775 377.322 35.4739C389.713 27.7915 402.058 19.7506 413.972 11.302C425.311 3.29394 436.962 -5.71693 444.495 -17.8637C446.102 -20.4758 447.419 -23.274 448.423 -26.2057C448.577 -26.8442 448.485 -27.5254 448.168 -28.1051C447.852 -28.6849 447.334 -29.1179 446.725 -29.3128C435.008 -34.5743 423.219 -24.2897 413.806 -18.6524C412.316 -17.7752 413.642 -15.5227 415.156 -16.2653C420.122 -18.6895 424.914 -21.5183 430.076 -23.6494C434.704 -25.5854 440.129 -27.0868 445.053 -24.7468L443.936 -27.601C439 -14.6405 427.483 -5.02389 417.021 2.88272C405.878 11.2734 394.041 18.694 382.42 26.2961C351.856 46.2899 318.701 61.5555 285.542 76.3736C251.295 91.6263 217.309 107.285 182.561 121.525C147.812 135.765 112.376 149.728 78.264 165.721C44.1523 181.713 12.2189 201.803 -20.4734 220.854C-24.5627 223.222 -28.6521 225.589 -32.7847 227.911C-34.6378 228.963 -32.9406 231.958 -31.066 230.907L-31.13 230.928Z" fill="#514F43"/>
<path d="M62.1665 370.034C123.585 335.841 184.482 300.724 245.791 266.306C275.935 249.393 306.514 233.268 336.57 216.152C366.626 199.037 395.605 181.193 425.863 165.109C432.626 161.285 439.593 157.858 446.732 154.841C452.94 152.41 459.259 150.292 465.511 147.95C476.181 143.96 489.481 139.599 496.456 129.615C497.449 128.195 495.714 125.713 494.093 126.41C488.327 128.589 482.727 131.199 477.334 134.22C477.035 134.449 476.83 134.787 476.757 135.17C476.685 135.552 476.751 135.952 476.942 136.292C477.134 136.633 477.437 136.89 477.795 137.014C478.152 137.139 478.539 137.123 478.879 136.968C484.182 134.478 489.642 132.353 495.223 130.607L493.177 126.958C486.382 135.58 474.793 139.626 465.019 143.291C453.697 147.16 442.607 151.704 431.805 156.902C401.714 172.518 372.691 190.205 343.32 207.306C313.501 224.581 283.029 240.775 253.014 257.689C222.999 274.604 192.562 292.162 162.466 309.658C128.751 329.392 95.0341 348.925 61.0567 368.075C59.8426 368.776 60.9525 370.735 62.1667 370.056L62.1665 370.034Z" fill="#514F43"/>
<path d="M127.151 217.31C166.478 196.353 202.18 167.482 244.628 153.046C255.372 149.076 266.693 146.945 278.158 146.735C278.642 146.688 279.088 146.454 279.411 146.08C279.733 145.706 279.909 145.218 279.904 144.709C279.9 144.201 279.715 143.708 279.386 143.326C279.056 142.945 278.606 142.701 278.121 142.642C274.993 142.382 272.846 144.033 270.139 145.298C268.604 146.018 269.719 148.603 271.299 148.13C273.448 147.136 275.791 146.66 278.158 146.735L278.121 142.642C256.714 142.612 236.154 151.09 217.315 160.415C196.003 170.964 175.934 183.853 155.754 196.45C145.813 202.66 135.851 208.871 125.562 214.429C123.815 215.37 125.382 218.161 127.15 217.221L127.151 217.31Z" fill="#514F43"/>
<path d="M-52.6416 141.719C-19.9773 122.817 12.6863 103.856 45.3495 84.8348C77.7279 65.8999 109.968 46.7248 142.071 27.3093C174.174 7.89373 206.228 -12.119 238.235 -32.7292C270.171 -53.2282 301.848 -73.9095 334.046 -93.7789C350.316 -103.835 366.644 -113.755 383.03 -123.541C397.236 -132.055 412.201 -139.62 425.277 -149.893C428.471 -152.322 431.468 -155.017 434.241 -157.954L430.185 -161.247C430.457 -161.915 430.397 -161.446 429.673 -161.051C428.948 -160.657 428.48 -160.372 427.884 -159.999C426.435 -159.143 425.03 -158.265 423.625 -157.342C422.22 -156.418 423.043 -153.052 425.07 -153.856C427.737 -154.898 433.128 -155.595 434.643 -158.486C434.939 -159.045 435.031 -159.7 434.901 -160.333C434.772 -160.966 434.431 -161.533 433.939 -161.933C433.447 -162.332 432.838 -162.536 432.223 -162.508C431.607 -162.48 431.027 -162.221 430.587 -161.779C424.442 -156.181 417.888 -151.089 410.981 -146.549C404.061 -142.156 396.904 -138.011 389.81 -133.866C373.77 -124.501 357.969 -114.709 342.168 -104.961C309.905 -85.0697 278.055 -64.5471 246.357 -43.8214C214.659 -23.0957 182.975 -3.13072 150.904 16.5836C118.832 36.2978 87.012 55.3884 54.9556 74.4092C22.8993 93.43 -9.84195 112.51 -42.3275 131.436L-54.5335 138.541C-54.9076 138.804 -55.1695 139.207 -55.2667 139.669C-55.3638 140.131 -55.289 140.618 -55.0572 141.033C-54.8254 141.447 -54.4539 141.757 -54.0174 141.901C-53.581 142.045 -53.1121 142.011 -52.7051 141.808L-52.6416 141.719Z" fill="#514F43"/>
</g>
<path d="M348.096 101.446C356.873 96.5628 370.55 106.528 376.597 112.123C383.664 118.628 389.364 126.907 393.748 135.431C413.652 174.128 424.114 220.166 407.758 262.097C402.249 276.293 393.655 289.086 382.597 299.552C376.38 305.405 363.584 310.926 361.718 319.88C361.318 322.103 361.477 324.391 362.18 326.537C364.651 334.742 372.111 340.43 377.811 346.403C405.18 375.144 385.392 419.699 356.129 438.9" stroke="#57C7D4" stroke-width="4.72" stroke-miterlimit="10"/>
<path d="M133.47 252.335C142.015 243.257 152.935 237.122 163.915 231.476C175.805 225.364 187.505 219.21 198.314 211.273C204.894 206.451 211.12 201.163 216.943 195.449" stroke="#57C7D4" stroke-width="4.72" stroke-miterlimit="10"/>
<path d="M119.598 367.322C108.679 339.108 105.907 306.768 117.298 278.586" stroke="#57C7D4" stroke-width="4.72" stroke-miterlimit="10"/>
<path d="M262.687 75.6571V45.4145C262.687 43.3315 261.86 41.3338 260.387 39.8609C258.915 38.388 256.917 37.5605 254.835 37.5605H154.704C152.622 37.5605 150.624 38.388 149.152 39.8609C147.679 41.3338 146.852 43.3315 146.852 45.4145V187.627C146.86 189.705 147.691 191.694 149.163 193.16C150.635 194.626 152.627 195.449 154.704 195.449H254.848C255.821 195.457 256.785 195.271 257.685 194.904" stroke="black" stroke-width="4.72" stroke-linecap="round" stroke-linejoin="round"/>
<path d="M251.657 42.3652H157.901C153.75 42.3652 150.385 45.7306 150.385 49.882V183.155C150.385 187.306 153.75 190.672 157.901 190.672H251.657C255.807 190.672 259.172 187.306 259.172 183.155V49.882C259.172 45.7306 255.807 42.3652 251.657 42.3652Z" fill="#39808B"/>
<path d="M250.197 53.8413H160.548C158.471 53.8413 156.788 55.525 156.788 57.602V77.8468C156.788 79.9238 158.471 81.6075 160.548 81.6075H250.197C252.274 81.6075 253.957 79.9238 253.957 77.8468V57.602C253.957 55.525 252.274 53.8413 250.197 53.8413Z" fill="#39808B"/>
<path d="M204.776 65.5393C206.363 65.5393 207.65 64.2527 207.65 62.6656C207.65 61.0786 206.363 59.792 204.776 59.792C203.19 59.792 201.903 61.0786 201.903 62.6656C201.903 64.2527 203.19 65.5393 204.776 65.5393Z" fill="#57C7D4"/>
<path d="M196.753 75.6573C196.753 73.5289 197.598 71.4877 199.103 69.9828C200.608 68.4778 202.648 67.6323 204.776 67.6323C206.904 67.6323 208.945 68.4778 210.45 69.9828C211.955 71.4877 212.8 73.5289 212.8 75.6573H196.753Z" fill="#57C7D4"/>
<path d="M205.363 111.365C202.302 111.363 199.309 112.27 196.762 113.97C194.216 115.67 192.231 118.087 191.059 120.915C189.887 123.744 189.58 126.856 190.176 129.859C190.773 132.862 192.247 135.621 194.412 137.786C196.576 139.951 199.334 141.425 202.337 142.022C205.34 142.619 208.452 142.312 211.28 141.139C214.108 139.967 216.524 137.982 218.224 135.435C219.924 132.888 220.83 129.895 220.828 126.833C220.827 122.731 219.197 118.797 216.297 115.897C213.397 112.996 209.464 111.366 205.363 111.365V111.365ZM205.363 138.568C204.764 138.568 204.189 138.33 203.766 137.906C203.342 137.482 203.104 136.908 203.104 136.309C203.104 135.709 203.342 135.135 203.766 134.711C204.189 134.287 204.764 134.049 205.363 134.049C205.962 134.049 206.537 134.287 206.96 134.711C207.384 135.135 207.622 135.709 207.622 136.309C207.622 136.908 207.384 137.482 206.96 137.906C206.537 138.33 205.962 138.568 205.363 138.568V138.568ZM208.227 121.173C207.742 124.528 207.331 128.062 206.347 131.337C206.107 132.114 204.633 132.114 204.393 131.337C203.686 128.885 203.143 126.387 202.767 123.862C202.467 122.014 201.381 119.058 202.421 117.265C203.317 115.676 205.862 115.477 207.331 116.309C209.151 117.348 208.453 119.506 208.227 121.173V121.173Z" fill="#57C7D4"/>
<path d="M205.363 138.568C206.611 138.568 207.622 137.556 207.622 136.309C207.622 135.061 206.611 134.049 205.363 134.049C204.116 134.049 203.104 135.061 203.104 136.309C203.104 137.556 204.116 138.568 205.363 138.568Z" fill="white"/>
<path d="M208.227 121.173C207.742 124.528 207.331 128.062 206.347 131.337C206.107 132.114 204.633 132.114 204.393 131.337C203.686 128.885 203.143 126.387 202.767 123.862C202.467 122.014 201.381 119.058 202.421 117.265C203.317 115.676 205.862 115.477 207.331 116.309C209.151 117.348 208.453 119.506 208.227 121.173Z" fill="white"/>
<path d="M166.506 94.0078H242.058" stroke="white" stroke-width="4.72" stroke-miterlimit="10"/>
<path d="M166.506 101.441H242.058" stroke="white" stroke-width="4.72" stroke-miterlimit="10"/>
<path d="M166.506 149.341H242.058" stroke="white" stroke-width="4.72" stroke-miterlimit="10"/>
<path d="M260.452 168.51C260.738 168.731 261.237 75.3242 261.237 75.3242L232.815 64.3379C232.815 64.3379 211.687 116.133 212.966 116.655L218.671 118.965C218.671 118.965 220.08 117.851 223.346 125.895C226.612 133.938 250.151 160.586 260.452 168.51Z" fill="white"/>
<path d="M184.055 156.378H224.51" stroke="white" stroke-width="4.72" stroke-miterlimit="10"/>
<path d="M374.181 210.538C373.812 214.567 368.841 260.776 373.659 269.799C375.405 273.065 358.074 269.937 357.03 269.697C341.325 266.001 326.617 259.187 312.852 250.898C299.087 242.61 286.924 231.702 272.573 224.352C269.921 222.994 264.05 220.018 265.787 216.124C268.743 209.489 272.374 200.332 272.66 192.234L272.573 181.608C272.573 181.608 270.476 174.936 277.317 180.781C284.158 186.625 315.462 202.033 335.726 184.181C355.991 166.329 357.192 152.211 357.192 152.211C357.192 152.211 344.216 120.453 307.277 139.88L320.326 106.154C320.326 106.154 318.538 103.885 324.192 104.306C329.846 104.726 340.332 101.931 341.63 91.5684C341.63 91.5684 341.731 88.1866 347.713 94.5807C353.695 100.975 381.964 125.946 374.181 210.538Z" fill="#2E2E2E"/>
<path d="M301.558 90.9075C304.727 88.5827 308.277 86.8271 312.048 85.7192" stroke="black" stroke-width="4.72" stroke-miterlimit="10"/>
<path d="M287.515 248.588L262.11 340.452L239.014 423.991L224.306 425.377C220.934 425.688 217.8 427.247 215.517 429.748C213.234 432.25 211.967 435.513 211.964 438.9H257.449L290.393 382.111L314.898 339.861L353.21 273.795C354.318 271.869 355.395 269.942 356.443 267.974C356.46 267.951 356.47 267.924 356.471 267.895" stroke="black" stroke-width="4.72" stroke-miterlimit="10"/>
<path d="M373.239 217.602C373.585 215.357 373.89 213.111 374.163 210.852C374.163 210.746 374.163 210.653 374.19 210.547C375.745 196.866 376.076 183.073 375.179 169.332C375.185 169.292 375.185 169.252 375.179 169.212C374.163 154.257 371.419 138.549 365.94 123.234C364.35 118.817 362.382 114.544 360.06 110.464V110.464C359.889 110.127 359.695 109.794 359.483 109.462C358.753 108.186 357.968 106.944 357.173 105.715C356.097 104.093 354.956 102.518 353.76 101.016C351.976 98.7363 349.997 96.6154 347.847 94.6775C347.833 94.6727 347.82 94.6648 347.81 94.6544C347.8 94.644 347.792 94.6314 347.787 94.6175C346.189 93.2026 344.491 91.9056 342.706 90.7367C342.706 90.7367 342.706 90.7367 342.706 90.7367C342.373 90.5103 342.041 90.2978 341.703 90.0853C341.651 90.0451 341.595 90.0096 341.537 89.979" stroke="black" stroke-width="4.72" stroke-miterlimit="10"/>
<path d="M314.898 339.861L350.623 438.9H299.073C299.072 435.682 300.24 432.574 302.359 430.153C304.478 427.732 307.404 426.163 310.593 425.737L321.813 424.236C321.813 424.236 306.727 404.37 290.402 382.106" stroke="black" stroke-width="4.72" stroke-miterlimit="10"/>
<path d="M321.236 103.811L305.752 143.802C305.285 145.009 304.581 146.112 303.684 147.044C302.786 147.977 301.712 148.722 300.524 149.236C299.336 149.75 298.057 150.022 296.763 150.037C295.469 150.052 294.184 149.809 292.985 149.323L256.308 134.474C256.29 134.424 256.275 134.374 256.262 134.322C255.8 132.474 251.061 114.761 245.315 114.761C240.903 114.761 243.005 123.497 244.853 128.441C245.065 128.972 245.264 129.471 245.444 129.896L245.157 129.776L216.44 118.069L234.552 70.3164L269.912 83.9778L321.236 103.811Z" fill="#57C7D4"/>
<path d="M245.435 129.896C243.509 125.484 240.441 114.761 245.319 114.761C251.066 114.761 255.8 132.488 256.267 134.322L256.313 134.474L292.985 149.327C294.186 149.813 295.472 150.055 296.768 150.039C298.064 150.022 299.344 149.748 300.532 149.232C301.721 148.716 302.795 147.968 303.692 147.033C304.589 146.098 305.291 144.993 305.757 143.783L323.01 99.2004L268.171 77.9992L232.815 64.3379L212.953 116.655L245.435 129.896Z" stroke="black" stroke-width="4.72" stroke-miterlimit="10"/>
<path d="M359.108 128.773C360.208 147.946 355.926 172.474 331.485 186.912C295.331 208.293 247.481 159.852 229.766 136.346C226.839 132.485 224.366 128.299 222.398 123.872C221.802 122.583 221.301 121.252 220.902 119.889" stroke="black" stroke-width="4.72" stroke-miterlimit="10"/>
<path d="M272.254 177.468C272.254 177.468 275.025 197.662 266.48 214.83L266.517 214.784C266.517 214.784 266.517 214.816 266.489 214.83C253.37 239.441 234.589 278.702 245.065 307.23C248.626 316.932 254.765 328.482 262.105 340.457" stroke="black" stroke-width="4.72" stroke-miterlimit="10"/>
<path d="M335.865 60.4437L335.893 60.5731C336.115 63.2779 335.254 65.9603 333.499 68.0301C331.744 70.1 329.238 71.3878 326.534 71.6102C324.803 71.7604 323.063 71.4562 321.485 70.7278C321.034 70.5362 320.599 70.3059 320.187 70.0394C320.019 69.922 319.881 69.7655 319.786 69.5833C319.691 69.4011 319.641 69.1986 319.641 68.993C319.641 68.7875 319.691 68.5849 319.786 68.4027C319.881 68.2205 320.019 68.064 320.187 67.9466C322.174 66.5144 323.989 64.5185 324.506 62.1808C324.662 61.4619 324.674 60.7194 324.543 59.9956C324.402 59.0731 324.021 58.2038 323.439 57.4742C322.857 56.7447 322.095 56.1804 321.227 55.8376C320.955 55.7569 320.674 55.7119 320.391 55.7036C319.591 55.6389 318.543 55.7405 318.335 56.3319C319.355 53.465 319.397 50.3411 318.455 47.4476C317.869 45.6574 316.882 44.025 315.568 42.6752C315.628 43.1981 315.572 43.7278 315.403 44.2265C315.235 44.7253 314.959 45.1808 314.595 45.5606C314.23 45.9404 313.787 46.2352 313.296 46.4241C312.804 46.6129 312.278 46.691 311.753 46.653C307.683 46.5144 306.916 42.6336 306.916 42.6336C306.916 42.6336 306.916 42.6798 306.916 42.7075C305.143 47.1289 299.988 47.249 296.292 45.2855C294.982 44.6129 293.831 43.6678 292.916 42.5135C291.867 37.9813 295.604 33.6015 299.914 32.9732C300.006 30.0903 302.108 27.0041 304.944 26.7685C305.932 26.684 306.925 26.8662 307.818 27.2961C308.712 27.726 309.474 28.3878 310.025 29.2125C310.104 29.3372 310.191 29.4712 310.261 29.6098C311.42 27.9281 313.319 26.0848 315.342 25.9138C316.745 25.8153 318.145 26.1507 319.351 26.8747C320.558 27.5986 321.512 28.6761 322.086 29.9609C322.086 29.7623 323.864 28.9492 324.044 28.8752C325.705 28.2437 327.529 28.1828 329.229 28.7022C330.928 29.2217 332.406 30.2919 333.431 31.7443C333.533 32.1457 333.601 32.5554 333.634 32.9686C333.735 34.2042 333.546 35.4464 333.08 36.5953C333.736 36.7825 334.35 37.0964 334.886 37.5193C336.046 38.3689 336.825 39.6423 337.052 41.0628V41.0628C337.075 41.206 337.089 41.3492 337.098 41.4925C337.191 42.5749 336.959 43.6605 336.433 44.611C337.799 45.0012 339.04 45.7414 340.032 46.7583C341.025 47.7752 341.735 49.0336 342.092 50.4091C342.204 50.8642 342.28 51.3277 342.318 51.7951C342.476 53.7745 341.908 55.7437 340.72 57.3352C339.533 58.9266 337.807 60.0315 335.865 60.4437V60.4437Z" fill="#39808B"/>
<path d="M335.865 60.4437L335.892 60.573C336.115 63.2779 335.254 65.9602 333.498 68.0301C331.743 70.1 329.238 71.3878 326.534 71.6102C324.803 71.7604 323.063 71.4562 321.485 70.7278C323.471 69.2956 325.287 67.2951 325.799 64.9574C325.981 64.0883 325.961 63.189 325.741 62.3287C325.521 61.4685 325.106 60.6703 324.529 59.9955C324.388 59.0731 324.007 58.2037 323.425 57.4742C322.843 56.7447 322.08 56.1804 321.212 55.8375C320.941 55.7569 320.66 55.7118 320.376 55.7036C320.651 52.814 319.971 49.9142 318.441 47.4476C317.855 45.6574 316.868 44.0249 315.554 42.6752C315.614 43.1981 315.558 43.7278 315.389 44.2265C315.221 44.7253 314.945 45.1808 314.581 45.5606C314.216 45.9404 313.773 46.2352 313.281 46.424C312.79 46.6129 312.263 46.691 311.739 46.653C307.669 46.5144 306.902 42.6336 306.902 42.6336C306.902 42.6336 306.902 42.6798 306.902 42.7075C305.128 47.1288 299.973 47.249 296.278 45.2855C294.968 44.6129 293.816 43.6678 292.901 42.5135C291.853 37.9812 295.59 33.6015 299.9 32.9732C299.992 30.0903 302.094 27.0041 304.93 26.7685C305.918 26.684 306.911 26.8662 307.804 27.2961C308.698 27.726 309.46 28.3878 310.011 29.2125C310.089 29.3372 310.177 29.4712 310.247 29.6098C311.406 27.9281 313.304 26.0847 315.328 25.9138C316.733 25.8123 318.136 26.1464 319.345 26.8705C320.554 27.5946 321.511 28.6737 322.086 29.9609C322.086 29.7623 323.864 28.9491 324.044 28.8752C325.705 28.2436 327.529 28.1828 329.228 28.7022C330.928 29.2217 332.406 30.2919 333.43 31.7442C333.533 32.1457 333.601 32.5553 333.634 32.9685C333.735 34.2042 333.545 35.4464 333.079 36.5952C333.736 36.7825 334.349 37.0964 334.885 37.5192C334.801 38.1539 334.634 38.775 334.391 39.3672C335.416 39.6673 336.337 40.2463 337.052 41.0397C337.075 41.1829 337.089 41.3261 337.098 41.4693C337.19 42.5518 336.959 43.6374 336.433 44.5878C337.12 44.784 337.779 45.0698 338.391 45.4379C338.292 46.1134 338.073 46.7657 337.745 47.3645C339.491 47.8558 341.022 48.9199 342.091 50.3859C342.204 50.8411 342.28 51.3046 342.318 51.7719C342.481 53.7552 341.916 55.73 340.728 57.3264C339.54 58.9227 337.811 60.0311 335.865 60.4437V60.4437Z" fill="#39808B"/>
<path d="M299.969 51.1851C299.969 51.1851 305.826 51.2682 307.17 56.2116" stroke="black" stroke-width="4.72" stroke-miterlimit="10"/>
<path d="M298.458 65.9965C297.126 66.3253 295.742 66.3928 294.384 66.1952C294.129 66.1514 293.888 66.0464 293.682 65.8892C293.476 65.732 293.312 65.5272 293.202 65.2924C293.093 65.0577 293.042 64.7999 293.054 64.5411C293.066 64.2823 293.14 64.0303 293.271 63.8066C294.49 61.7415 295.747 59.6995 297.114 57.736C297.328 57.4862 297.461 57.1765 297.493 56.8489C297.493 56.8489 296.929 50.7367 298.163 46.0474" stroke="black" stroke-width="4.72" stroke-miterlimit="10"/>
<path d="M303.067 56.3857C303.191 55.4009 302.612 54.5171 301.775 54.4117C300.937 54.3063 300.157 55.0192 300.033 56.004C299.909 56.9888 300.488 57.8726 301.326 57.978C302.164 58.0834 302.943 57.3705 303.067 56.3857Z" fill="black"/>
<path d="M330.742 70.312C330.867 71.5363 336.359 80.014 341.325 89.3741C341.322 89.3894 341.322 89.405 341.325 89.4203C341.417 89.619 341.51 89.8315 341.616 90.044" stroke="black" stroke-width="4.72" stroke-linecap="round" stroke-linejoin="round"/>
<path d="M310.93 79.2744L312.658 91.5729" stroke="black" stroke-width="4.72" stroke-miterlimit="10"/>
<path d="M296.343 66.3062C296.343 66.3062 298.846 78.4845 305.004 80.3278C311.161 82.1712 316.506 74.4882 316.506 74.4882" stroke="black" stroke-width="4.72" stroke-linecap="round" stroke-linejoin="round"/>
<path d="M298.024 71.7993C298.842 72.2774 299.767 72.5438 300.714 72.5745C301.661 72.6051 302.6 72.399 303.447 71.9749" stroke="black" stroke-width="4.72" stroke-linecap="round" stroke-linejoin="round"/>
<path d="M309.586 29.055C309.513 28.1103 309.194 27.201 308.662 26.4169C307.986 25.378 306.98 24.596 305.807 24.1959C304.633 23.7958 303.359 23.8008 302.189 24.2099C301.019 24.6191 300.019 25.4088 299.351 26.453C298.682 27.4971 298.382 28.7353 298.5 29.9697" stroke="black" stroke-width="4.72" stroke-miterlimit="10" stroke-linecap="round"/>
<path d="M309.351 26.1956C310.459 24.3476 311.683 23.3127 313.97 23.1233C315.388 23.0073 316.808 23.3378 318.029 24.0684C319.251 24.799 320.214 25.8933 320.783 27.1981C320.705 27.0179 322.561 26.1725 322.751 26.0985C323.491 25.8155 324.27 25.6442 325.06 25.5903C327.17 25.4768 329.241 26.1823 330.843 27.5596C332.445 28.9369 333.453 30.8796 333.657 32.9823C333.758 34.218 333.569 35.4602 333.102 36.609" stroke="black" stroke-width="4.72" stroke-linecap="square" stroke-linejoin="round"/>
<path d="M341.324 89.3784C341.324 89.3784 345.639 103.728 320.972 104.504" stroke="black" stroke-width="4.72" stroke-miterlimit="10"/>
<path d="M213.072 233.148C213.031 222.656 223.341 219.833 228.279 219.926C258.881 220.508 263.496 171.009 263.496 171.009" stroke="black" stroke-width="4.72" stroke-linecap="round" stroke-linejoin="round"/>
<path d="M373.238 217.602C373.238 217.602 369.626 253.241 373.238 265.234C376.851 277.228 356.078 267.817 356.078 267.817" stroke="black" stroke-width="4.72" stroke-miterlimit="10"/>
<path d="M166.285 244.463H142.27" stroke="black" stroke-width="4.72" stroke-linecap="round" stroke-linejoin="round"/>
<path d="M252.331 244.463H206.379" stroke="black" stroke-width="4.72" stroke-linecap="round" stroke-linejoin="round"/>
<path d="M199.788 244.463H172.659" stroke="black" stroke-width="4.72" stroke-linecap="round" stroke-linejoin="round"/>
<path d="M199.09 233.148H172.267" stroke="black" stroke-width="4.72" stroke-linecap="round" stroke-linejoin="round"/>
<path d="M220.463 233.148H205.982" stroke="black" stroke-width="4.72" stroke-linecap="round" stroke-linejoin="round"/>
<path d="M257.273 233.148H229.304" stroke="black" stroke-width="4.72" stroke-linecap="round" stroke-linejoin="round"/>
<path d="M165.564 233.148H160.82" stroke="black" stroke-width="4.72" stroke-linecap="round" stroke-linejoin="round"/>
<path d="M198.203 232.132H204.407C204.407 232.132 211.516 238.845 204.407 246.528V251.896H198.203" stroke="black" stroke-width="4.72" stroke-linecap="round" stroke-linejoin="round"/>
<path d="M170.885 232.132C170.885 232.132 177.994 238.845 170.885 246.528V251.896" stroke="black" stroke-width="4.72" stroke-linecap="round" stroke-linejoin="round"/>
<path d="M170.885 251.896H164.682V246.528C171.795 238.845 164.682 232.132 164.682 232.132H170.885" stroke="black" stroke-width="4.72" stroke-linecap="round" stroke-linejoin="round"/>
<path d="M198.203 232.132C198.203 232.132 205.317 238.845 198.203 246.528V251.896" stroke="black" stroke-width="4.72" stroke-linecap="round" stroke-linejoin="round"/>
<path d="M164.682 246.528H170.885" stroke="black" stroke-width="4.72" stroke-linecap="round" stroke-linejoin="round"/>
<path d="M198.203 246.528H204.407" stroke="black" stroke-width="4.72" stroke-linecap="round" stroke-linejoin="round"/>
<path d="M222.117 229.72C221.325 230.73 220.761 231.9 220.463 233.148C220.071 234.992 219.924 236.879 220.024 238.762C220.052 240.61 220.283 242.504 222.038 243.474C224.676 244.948 227.845 242.841 227.983 239.82C228.134 237.548 228.578 235.306 229.304 233.148C229.332 233.042 229.364 232.95 229.392 232.862" stroke="black" stroke-width="4.72" stroke-linecap="round" stroke-linejoin="round"/>
<path d="M229.392 232.848C231.591 232.386 234.866 231.18 236.533 228.071" stroke="black" stroke-width="4.72" stroke-linecap="round" stroke-linejoin="round"/>
<path d="M214.389 244.463C214.389 244.463 216.117 249.018 220.463 249.573C224.81 250.127 222.062 244.463 222.062 244.463C222.062 244.463 223.863 248.455 226.043 248.589C228.224 248.723 230.108 246.741 229.355 244.463C229.355 244.463 230.021 248.127 233.245 247.725C236.469 247.323 235.139 244.463 235.139 244.463" stroke="black" stroke-width="4.72" stroke-linecap="round" stroke-linejoin="round"/>
<g opacity="0.54">
<path opacity="0.54" d="M164.806 309.351L161.688 354.386C159.998 357.445 158.095 360.152 156.399 361.825C156.173 361.741 155.938 361.658 155.72 361.557C155.305 361.413 154.894 361.247 154.501 361.095C148.182 358.323 143.415 353.162 141.983 347.336C140.727 342.213 141.863 336.678 139.424 331.864C136.449 325.936 128.338 322.217 127.363 315.523C126.439 309.263 132.07 303.511 131.16 297.385C130.107 290.455 121.598 286.334 120.009 279.556C119.016 275.343 119.903 270.51 119.548 266.158C119.127 261.309 118.306 256.504 117.095 251.79C129.654 250.866 142.44 257.796 146.51 267.715C149.836 275.833 147.831 285.317 153.037 292.714C155.864 296.72 160.575 299.713 163.01 303.908C163.76 305.215 164.304 306.63 164.622 308.103C164.645 308.205 164.645 308.311 164.663 308.39C164.686 308.556 164.705 308.681 164.723 308.805C164.765 309.166 164.806 309.351 164.806 309.351Z" fill="#39808B"/>
<path opacity="0.54" d="M164.829 309.332H164.806C164.806 309.332 164.765 309.148 164.723 308.796C164.762 308.939 164.79 309.084 164.806 309.231C164.829 309.268 164.829 309.309 164.829 309.332Z" fill="#39808B"/>
</g>
<path d="M206.324 291.772C204.67 297.616 195.792 301.169 194.716 307.161C193.764 312.469 199.631 317.427 198.661 322.818C197.631 328.607 189.2 331.809 186.106 336.932C183.584 341.09 184.761 345.853 183.459 350.275C181.953 355.297 176.992 359.778 170.363 362.153C169.952 362.301 169.56 362.444 169.144 362.569C168.918 362.629 168.682 362.712 168.442 362.772C166.252 360.975 163.753 357.815 161.707 354.405L164.825 309.369H164.848C167.264 307.323 170.031 305.442 171.952 303.169C174.04 300.711 175.01 298.027 175.648 295.218H175.657V294.909C176.581 290.464 176.65 285.817 178.738 281.603C182.969 273.028 196.249 267.059 209.326 267.845C208.094 271.893 207.249 276.05 206.804 280.259C206.425 283.982 207.359 288.154 206.324 291.772Z" fill="#F5BD33"/>
<path d="M175.657 294.872V295.181H175.597C175.63 295.075 175.657 294.973 175.657 294.872Z" fill="#39808B"/>
<path d="M175.657 294.872C175.657 294.973 175.615 295.075 175.597 295.181C174.978 297.99 174.008 300.674 171.902 303.132C169.98 305.405 167.213 307.29 164.797 309.332C164.797 309.332 164.797 309.268 164.774 309.249C164.758 309.102 164.73 308.957 164.691 308.815C164.691 308.69 164.654 308.565 164.631 308.399C164.631 308.321 164.631 308.214 164.589 308.113C164.271 306.64 163.728 305.225 162.977 303.918C160.543 299.723 155.831 296.729 153.004 292.723C153.004 292.723 154.284 271.61 165.084 265.184C175.343 259.108 175.657 291.356 175.657 294.872Z" fill="#39808B"/>
<path d="M175.657 294.872V295.181H175.597C175.63 295.075 175.657 294.973 175.657 294.872Z" fill="#39808B"/>
<path d="M164.806 309.249V309.35C164.806 309.35 164.765 309.166 164.723 308.814C164.762 308.957 164.79 309.102 164.806 309.249V309.249Z" fill="#39808B"/>
<path d="M163.846 309.355C166.252 307.304 169.042 305.4 170.973 303.132C176.387 296.738 174.304 288.57 177.777 281.561C182.004 272.996 195.33 267.027 208.375 267.812C207.131 271.858 206.283 276.016 205.844 280.226C205.455 283.973 206.384 288.149 205.382 291.776C203.719 297.616 194.845 301.159 193.764 307.156C192.808 312.46 198.688 317.417 197.714 322.808C196.679 328.597 188.258 331.794 185.154 336.918C182.627 341.076 183.815 345.839 182.503 350.27C180.914 355.61 175.403 360.332 168.183 362.554C167.952 362.633 167.721 362.711 167.472 362.771C165.282 360.974 162.783 357.819 160.732 354.405" stroke="black" stroke-width="4.72" stroke-miterlimit="10"/>
<path d="M200.393 274.53C180.904 295.509 171.754 339.746 168.174 362.564C167.883 364.49 167.619 366.26 167.393 367.84" stroke="black" stroke-width="4.72" stroke-miterlimit="10"/>
<path d="M202.19 380.688L193.21 433.605C192.998 435.056 192.278 436.385 191.178 437.354C190.079 438.324 188.671 438.872 187.205 438.9H140.385C138.907 438.868 137.489 438.308 136.388 437.322C135.287 436.335 134.574 434.988 134.38 433.522L126.111 380.688H202.19Z" stroke="black" stroke-width="4.72" stroke-miterlimit="10"/>
<path d="M210.707 374.793C210.453 378.129 207.811 380.697 204.642 380.697H123.806C120.67 380.697 118.051 378.184 117.751 374.885C117.404 371.115 120.217 367.849 123.806 367.849H204.642C208.199 367.849 210.998 371.051 210.707 374.793Z" stroke="black" stroke-width="4.72" stroke-miterlimit="10"/>
<path d="M155.439 361.834C158.908 358.387 163.153 350.718 165.038 344.449C166.585 339.279 163.855 333.961 163.232 328.662C162.252 320.346 166.377 311.434 162.031 303.913C159.61 299.718 154.899 296.733 152.072 292.714C146.861 285.322 148.861 275.851 145.531 267.733C141.475 257.796 128.689 250.889 116.134 251.79C117.334 256.51 118.147 261.32 118.564 266.172C118.938 270.51 118.042 275.343 119.026 279.57C120.62 286.347 129.137 290.45 130.181 297.394C131.105 303.534 125.46 309.277 126.389 315.527C127.387 322.231 135.466 325.936 138.454 331.873C140.879 336.696 139.743 342.222 141.004 347.341C142.584 353.735 148.173 359.353 155.439 361.834Z" stroke="black" stroke-width="4.72" stroke-miterlimit="10"/>
<path d="M123.797 259.579C142.505 283.88 151.309 335.116 154.746 361.566C155.042 363.876 155.305 365.959 155.513 367.84" stroke="black" stroke-width="4.72" stroke-miterlimit="10"/>
<path d="M152.071 292.714C152.071 292.714 153.355 271.601 164.15 265.179C174.946 258.757 174.733 294.756 174.733 294.756" stroke="black" stroke-width="4.72" stroke-miterlimit="10"/>
<path d="M163.846 309.355C163.846 309.355 161.638 297.274 165.504 285.4" stroke="black" stroke-width="4.72" stroke-miterlimit="10"/>
<path d="M412.312 244.463H371.899" stroke="black" stroke-width="4.72" stroke-linecap="round" stroke-linejoin="round"/>
<path d="M412.968 233.148H373.192" stroke="black" stroke-width="4.72" stroke-linecap="round" stroke-linejoin="round"/>
<path fill-rule="evenodd" clip-rule="evenodd" d="M74.8985 95.5818C75.4635 95.5818 75.9601 95.6679 76.412 95.5631C77.2487 95.3693 78.3745 93.6644 78.3103 92.7987C78.3008 92.6662 78.2573 92.4732 78.1658 92.4202C77.7462 92.1791 77.3034 91.9778 76.8693 91.762C76.6117 92.2056 75.8139 91.7081 75.705 92.4429C75.6603 92.7457 74.9685 92.5523 75.1529 93.0895C74.7059 93.8839 75.0332 94.7297 74.8985 95.5818M72.6904 92.1397C72.8263 91.907 73.0027 91.692 73.0868 91.4455C73.3917 90.5525 74.1832 90.2092 74.9433 89.9946C75.4714 89.8455 76.0334 89.6674 76.6407 89.71C78.02 89.8074 78.9888 90.4548 79.6788 91.6241C80.0007 92.1692 80.303 92.7205 80.4389 93.3343C80.5304 93.7497 80.6427 94.231 80.5205 94.61C80.0462 96.0817 79.2373 97.3168 77.7064 97.9017C77.2847 98.0624 76.8461 98.1805 76.4129 98.3109C76.3441 98.3321 76.2517 98.3399 76.1908 98.3101C75.0808 97.7708 74.008 97.1566 73.3635 96.0631C73.0868 95.5938 72.8304 95.0508 72.8984 94.4605C72.9804 93.7448 72.6747 92.9918 73.1021 92.31C72.9742 92.257 72.8458 92.2039 72.6904 92.1397" fill="#39808B"/>
<path fill-rule="evenodd" clip-rule="evenodd" d="M39.6854 105.402C39.3267 105.32 39.1175 105.17 39.2463 104.746C39.3018 104.72 39.4 104.694 39.4766 104.638C40.2081 104.11 41.1077 104.03 41.9312 103.768C42.2903 103.654 42.8602 103.756 43.1609 103.986C44.0958 104.703 45.1329 105.325 45.5753 106.555C45.9406 107.57 45.7932 108.873 45.1479 109.704C44.7734 110.186 44.249 110.489 43.8634 110.979C43.2313 110.876 42.5653 111.133 41.9366 110.753C41.6429 110.575 40.3642 109.899 40.1141 109.712C39.5313 109.277 39.3039 108.64 39.086 107.994C39.0409 107.861 38.9692 107.691 39.0144 107.581C39.3035 106.873 39.0976 106.024 39.6854 105.402" fill="#39808B"/>
<path fill-rule="evenodd" clip-rule="evenodd" d="M90.7098 82.1307C91.6074 82.9868 93.1068 83.4644 94.3394 83.4176C94.9301 83.3956 95.3762 83.1881 95.7676 82.7839C95.9942 82.5498 96.2265 82.322 96.4622 82.0859C96.3284 81.9016 96.2083 81.7997 96.1706 81.673C95.9958 81.0914 95.6777 80.7265 95.0204 80.6768C94.7222 80.6545 94.4397 80.4598 94.1419 80.3703C93.9472 80.3119 93.6047 80.2137 93.5566 80.2854C93.2845 80.6938 93.1366 80.0534 92.78 80.3641C92.5745 80.5571 92.2312 80.8798 91.8857 81.2041C91.6065 80.9846 91.3866 80.8114 91.1919 80.6586C90.4845 81.0119 90.8423 81.6088 90.7098 82.1307M97.7206 82.8688C97.9368 82.9437 98.0677 82.9893 98.2068 83.0374C98.0946 83.3911 97.9898 83.7224 97.8842 84.0555C97.7069 84.0758 97.5292 84.0969 97.2803 84.1255C97.3627 84.236 97.4145 84.3065 97.4948 84.4146C97.1121 84.8855 96.6722 85.2471 95.9934 85.2173C95.8239 85.2098 95.6467 85.2778 95.4802 85.3324C95.0179 85.4845 94.5677 85.5163 94.1079 85.3092C93.9505 85.2384 93.6523 85.1581 93.6018 85.2231C93.1784 85.7703 92.8301 85.0665 92.4151 85.1614C92.2407 85.2011 92.0754 84.7455 91.7026 84.7327C91.5034 84.726 91.327 84.4324 91.1153 84.3131C90.8676 84.1735 90.7703 83.8007 90.4033 83.8546C90.231 83.2975 89.6739 83.0403 89.3943 82.578C88.7718 81.5491 88.7709 80.0704 89.2829 79.0751C89.7356 78.1933 90.5893 77.9352 91.3738 78.5284C91.754 78.8162 92.0427 79.0453 92.476 78.6978C92.6251 78.9343 92.7638 78.839 92.8723 78.6696C93.0451 78.4 93.3081 78.3842 93.5649 78.4376C94.4579 78.6253 95.3646 78.8784 96.0832 79.4168C96.7153 79.8907 97.168 80.6035 97.6999 81.2107C97.6568 81.7496 98.3415 82.2587 97.7206 82.8688" fill="#39808B"/>
<path fill-rule="evenodd" clip-rule="evenodd" d="M105.95 108.569C106.289 108.392 106.67 108.099 107.228 108.326C107.169 108.406 107.118 108.475 107.016 108.616C107.236 108.673 107.593 108.685 107.62 108.785C107.805 109.478 108.587 109.674 108.821 110.317C109.216 111.403 109.563 112.487 108.982 113.612C108.918 113.737 108.852 113.766 108.944 113.943C109.201 114.431 108.962 114.782 108.514 115.036C108.203 115.212 108.375 115.388 108.557 115.564C108.167 116.064 107.777 116.565 107.393 117.058H106.151C105.922 116.811 105.64 116.513 105.363 116.21C105.115 115.938 104.789 115.768 104.564 115.441C104.056 114.699 103.959 113.898 104.13 113.073C104.262 112.432 104.577 111.83 104.735 111.192C104.838 110.775 104.94 110.44 105.356 110.213C105.524 110.121 105.639 109.786 105.634 109.565C105.627 109.241 105.852 109.12 105.993 108.915C106.039 108.848 105.97 108.702 105.95 108.569" fill="#39808B"/>
<path fill-rule="evenodd" clip-rule="evenodd" d="M117.393 73.1145C117.34 73.0615 117.263 73.018 117.237 72.9538C117.053 72.4849 116.557 72.5632 116.213 72.4373C116.028 72.3698 115.702 72.6759 115.446 72.8229C115.332 72.8884 115.104 73.2628 114.952 73.5341C114.834 73.7449 114.705 74.0891 114.547 74.1094C114.19 74.1562 114.263 74.3546 114.23 74.5675C114.208 74.7142 114.11 74.8492 114.054 74.9722C114.845 75.7766 115.59 75.4394 116.405 75.0609C117.294 74.6479 117.449 73.9578 117.393 73.1145M115.307 77.0764C115.137 77.3257 114.986 77.5436 114.832 77.7701C114.73 77.6757 114.64 77.5303 114.574 77.5403C113.769 77.6608 113.503 76.8867 112.962 76.5772C112.901 76.5425 112.859 76.3221 112.896 76.2902C113.459 75.8097 112.859 75.4548 112.784 75.0393C112.695 75.1193 112.616 75.1909 112.536 75.2617C112.509 75.2348 112.458 75.2071 112.459 75.1818C112.486 74.6893 112.218 74.1529 112.713 73.7267C112.826 73.6294 112.804 73.392 112.888 73.2433C113.102 72.8623 113.159 72.359 113.551 72.12C113.953 71.874 113.796 71.3732 114.197 71.0845C114.878 70.5941 115.941 70.3456 116.739 70.6434C117.896 71.0762 118.634 71.9572 119.065 73.0226C119.412 73.88 119.576 74.8517 119.415 75.7927C119.321 76.3407 118.839 76.7172 118.412 77.0465C118.283 77.1451 117.962 76.9935 117.661 76.9455C117.681 77.0233 117.684 77.1919 117.762 77.3125C117.882 77.4972 117.93 77.6703 117.699 77.7445C117.465 77.8203 117.378 77.6579 117.393 77.4268C117.395 77.3891 117.29 77.3443 117.173 77.2569C116.996 77.4044 116.805 77.5639 116.575 77.7556C116.539 77.631 116.504 77.5088 116.437 77.2777C116.14 77.5531 115.873 77.8004 115.481 78.1628C115.407 77.7014 115.36 77.4048 115.307 77.0764" fill="#39808B"/>
<path fill-rule="evenodd" clip-rule="evenodd" d="M58.4041 88.7276C58.591 88.8855 58.6738 88.9555 58.7753 89.0408C58.8465 88.8971 58.8999 88.6448 58.9948 88.6282C59.2359 88.586 59.5581 88.5607 59.7358 88.6866C60.2689 89.0656 60.8293 89.4562 61.2249 89.9632C61.5993 90.4441 61.8482 91.0575 62.0168 91.6515C62.1141 91.9953 62.0591 92.3892 61.8582 92.8046C61.4456 93.655 61.0323 94.4179 60.1715 94.9183C59.7909 95.1395 59.363 95.1494 59.0027 95.3727C58.8602 95.4613 58.687 95.4998 58.521 95.5636C58.4592 95.4543 58.3797 95.313 58.3002 95.1722C58.1726 95.3545 58.0869 95.3329 57.8918 95.1983C57.5414 94.956 56.86 94.3363 56.5647 94.0949C55.6141 93.3187 56.1617 92.3532 56.2031 91.468C56.213 91.246 56.5676 91.0397 56.7772 90.8119C57.5538 91.2294 57.9552 91.8963 58.2269 92.6332C58.9886 92.5383 59.112 91.8275 59.5304 91.4316C59.6227 91.3442 59.5602 91.0923 59.5776 90.7324C59.2123 91.0973 58.9699 91.3396 58.7666 91.5426C58.1937 91.502 58.2629 90.8115 57.7804 90.7697C57.7725 90.3223 57.6959 89.8605 57.7828 89.4326C57.8325 89.1895 58.1511 89.0014 58.4041 88.7276" fill="#39808B"/>
<path fill-rule="evenodd" clip-rule="evenodd" d="M101.564 59.364C101.887 59.0405 102.127 58.8007 102.407 58.5211H103.807C103.953 57.9102 103.501 58.1575 103.21 58.0767C103.241 57.998 103.25 57.904 103.301 57.8596C103.658 57.5531 103.13 57.4338 103.18 57.1224C103.419 56.5545 104.085 56.4509 104.586 56.1415C104.727 56.0537 105.003 56.1022 105.184 56.1734C106.101 56.5354 106.433 57.358 106.802 58.1873C107.04 58.7204 106.819 59.3499 107.234 59.8159C107.07 60.4256 107.006 61.09 106.712 61.6293C106.4 62.2021 105.732 62.514 105.105 62.5766C104.758 62.6114 104.455 63.0194 104.113 62.7547C103.824 62.5302 103.416 62.6565 103.153 62.3015C102.965 62.0485 102.549 62.0315 102.435 61.5891C102.38 61.3708 101.962 61.336 101.774 60.9894C101.47 60.4302 101.695 59.8963 101.564 59.364" fill="#39808B"/>
<path fill-rule="evenodd" clip-rule="evenodd" d="M97.594 94.7493C97.7344 95.3093 97.8579 95.7802 97.9676 96.2541C97.9925 96.3605 98.0194 96.5295 97.9639 96.5813C97.4665 97.0419 97.9287 97.4204 98.0497 97.8272C98.9191 97.8413 98.895 97.7866 99.3411 97.1516C99.8717 96.3957 99.7806 95.5735 99.7657 94.7505C99.7632 94.601 99.6203 94.4208 99.4927 94.3131C99.238 94.0977 98.8184 94.4303 98.5865 94.0716L98.35 94.4332C97.9109 94.14 97.7999 94.6105 97.594 94.7493M96.5614 95.4741C96.426 95.2111 96.2823 94.9323 96.165 94.7045C96.2926 94.0294 97.061 94.2162 97.3111 93.6918C97.5563 93.177 98.3056 93.3965 98.707 92.8771C98.5479 92.7702 98.3939 92.6671 98.2369 92.5614C98.2592 92.5329 98.2907 92.4529 98.3342 92.4451C99.0951 92.3063 99.6501 92.713 100.168 93.1753C100.599 93.5597 100.846 94.0853 101.17 94.5504C101.352 94.8118 101.035 95.0525 101.31 95.219C101.556 95.3685 101.632 95.6116 101.586 95.8904C101.535 96.1965 101.824 96.5262 101.772 96.6852C101.649 97.0597 101.64 97.4515 101.514 97.8148C101.28 98.4928 100.936 99.1104 100.405 99.6078C100.1 99.8932 99.6713 99.9893 99.134 99.8953C97.8376 99.6687 97.8223 99.6824 97.2378 99.04C96.7797 98.5367 96.4827 97.9618 96.3597 97.2581C96.2893 96.8588 96.0524 96.5067 96.3336 96.1116C95.9567 95.7496 96.5266 95.7583 96.5614 95.4741" fill="#39808B"/>
<path fill-rule="evenodd" clip-rule="evenodd" d="M66.2753 64.8359C67.3034 65.415 67.5403 65.8979 66.9753 66.7802C66.6842 67.2354 67.0445 67.7482 66.6332 68.1218C66.5723 68.1769 66.7326 68.4784 66.7935 68.6648C66.9621 69.1772 67.1286 69.2232 67.6861 69.0761C68.7506 68.7961 69.2547 68.0431 69.5111 67.0225C69.1143 66.9098 68.715 66.8022 68.319 66.6829C67.8356 66.5375 68.0113 65.9945 67.8133 65.7451C68.0411 65.5173 68.2913 65.2671 68.5418 65.0169C69.2303 64.6322 69.6577 65.3843 70.2852 65.5546C70.7458 66.2981 71.3887 66.943 71.3224 67.9391C71.2379 69.1966 70.6961 70.245 69.3222 70.7482C68.1757 71.1691 67.2686 70.9926 66.2849 70.1182C65.6855 69.5856 65.1968 69.0368 65.1756 68.0907C65.1466 66.8415 65.3856 65.7439 66.2753 64.8359" fill="#39808B"/>
<path fill-rule="evenodd" clip-rule="evenodd" d="M64.6994 111.142C63.7194 111.43 63.1474 110.77 62.4884 110.376C61.8841 110.014 61.8054 109.302 61.6264 108.717C61.4616 108.175 61.7946 107.612 61.9909 107.087C62.1562 106.646 62.4292 106.244 62.6528 105.827C62.5505 105.79 62.42 105.742 62.2626 105.685C62.4292 105.51 62.5758 105.356 62.758 105.164C62.524 105.121 62.3182 105.084 61.9797 105.023C62.1984 104.86 62.3529 104.65 62.4929 104.659C62.8839 104.686 63.2667 104.55 63.678 104.775C64.7251 105.346 65.2602 106.302 65.6463 107.328C66.1876 108.768 65.8981 110.077 64.6994 111.142" fill="#39808B"/>
<path fill-rule="evenodd" clip-rule="evenodd" d="M77.2436 116.502C77.1359 116.718 77.0436 116.903 76.9367 117.118C77.6798 117.882 77.9867 118.803 77.8682 119.869C77.8397 120.121 77.8467 120.34 77.6574 120.576C77.2987 121.026 77.2498 121.682 76.5536 121.92C76.252 122.023 75.9232 122.108 75.7202 122.004C75.1552 121.714 74.5058 121.489 74.1553 120.908C73.9801 120.618 73.8178 120.317 73.7809 119.935C73.6587 118.681 74.1682 117.64 74.8061 116.642C74.9494 116.418 75.1921 116.255 75.4812 116.124C75.8142 115.974 76.0201 115.852 76.3535 116.101C76.5962 116.283 76.9164 116.36 77.2436 116.502" fill="#39808B"/>
<path fill-rule="evenodd" clip-rule="evenodd" d="M117.972 90.624C117.526 90.2806 117.264 89.661 116.569 89.6866C116.394 89.3847 116.118 89.0997 116.066 88.7779C115.939 87.9979 116.122 87.3017 116.928 86.9198C117.023 86.8746 117.089 86.7657 117.192 86.6621C117.051 86.6145 116.926 86.5718 116.913 86.5677C117.11 86.3714 117.352 86.1295 117.593 85.888C117.541 85.8263 117.489 85.765 117.436 85.7033C117.54 85.6892 117.648 85.6494 117.746 85.6664C118.199 85.7447 118.722 85.4361 119.107 85.8992C119.607 86.501 119.976 87.1563 120.123 87.9482C120.317 88.9995 119.302 90.1617 118.531 90.5366C118.334 90.6318 118.091 90.2466 117.972 90.624" fill="#39808B"/>
<path fill-rule="evenodd" clip-rule="evenodd" d="M88.0308 104.376C88.0308 104.687 88.0113 104.841 88.0341 104.988C88.1517 105.754 87.5122 106.025 87.0674 106.363C86.625 106.698 86.2021 106.206 85.7883 106.083C85.4018 105.969 85.0833 105.598 84.7578 105.315C84.2089 104.837 84.0035 103.703 84.3514 103.024C84.4305 102.87 84.346 102.607 84.713 102.572C84.9321 102.551 85.1392 102.202 85.3153 101.973C85.7767 101.376 86.181 101.307 86.6751 101.829C86.9978 102.17 87.3718 102.449 87.6021 102.906C87.8688 103.436 88.1683 103.917 88.0308 104.376" fill="#39808B"/>
<path fill-rule="evenodd" clip-rule="evenodd" d="M75.7214 78.6584C76.2097 79.1832 76.754 79.6367 77.0104 80.3753C77.3281 81.2898 77.1549 81.7889 76.3771 82.322C75.4907 82.9296 74.898 82.8244 74.1242 82.0354C74.019 81.9281 73.9122 81.8229 73.8272 81.7384C73.6988 81.3424 73.9929 80.8856 73.5717 80.5762C73.3377 79.5332 74.0426 78.6787 75.1552 78.6588C75.3428 78.6555 75.5304 78.6584 75.7214 78.6584" fill="#39808B"/>
<path fill-rule="evenodd" clip-rule="evenodd" d="M86.2233 67.0473C86.4267 66.8886 86.5509 66.7917 86.6752 66.6948C86.5298 66.5726 86.3844 66.45 86.2424 66.3307C86.3003 66.2661 86.3703 66.1878 86.4685 66.0789C86.2125 66.0225 85.9847 65.9728 85.7109 65.9132C86.0311 65.0537 86.8177 64.9912 87.434 64.7103C87.5545 64.6557 87.8143 64.8143 87.9634 64.9328C88.5677 65.4112 89.008 66.0225 89.3141 66.7283C89.3543 66.8215 89.4081 66.9901 89.37 67.0228C88.8365 67.478 89.5406 68.359 88.8415 68.6639C88.7044 68.7235 88.3966 68.3719 88.0284 68.3462C88.1779 68.5098 88.3266 68.6738 88.4969 68.8606C88.2227 69.0425 87.9638 69.2313 87.6863 69.3875C87.6014 69.436 87.4651 69.4041 87.3541 69.3916C87.2878 69.3842 87.1673 69.3341 87.1698 69.3179C87.2613 68.7007 86.5253 69.1593 86.4432 68.7542C86.4027 68.5537 86.2519 68.3702 86.2332 68.1714C86.1985 67.8003 86.2233 67.4238 86.2233 67.0473" fill="#39808B"/>
<path fill-rule="evenodd" clip-rule="evenodd" d="M87.8267 50.497V50H88.8332C89.3435 50.7663 90.0418 51.4924 89.7949 52.6467C89.6334 52.6571 89.4309 52.6695 89.1471 52.6873V51.7554C88.9661 51.7898 88.827 51.7749 88.776 51.8349C88.6907 51.9347 88.682 52.0963 88.6058 52.2073C88.4649 52.4119 88.3879 52.3659 88.199 52.0623C88.0715 51.8569 87.8963 51.6804 87.7202 51.4642C87.9518 51.3573 88.105 51.2869 88.2686 51.2115C87.7931 50.9767 87.8014 50.985 88.1932 50.5778C88.2612 50.5074 88.2226 50.3347 88.2409 50.1147C88.0727 50.2705 87.994 50.3425 87.8267 50.497" fill="#39808B"/>
<path fill-rule="evenodd" clip-rule="evenodd" d="M428.899 359.582C429.464 359.582 429.96 359.668 430.412 359.563C431.249 359.369 432.375 357.664 432.31 356.799C432.301 356.666 432.257 356.473 432.166 356.42C431.746 356.179 431.303 355.978 430.869 355.762C430.612 356.206 429.814 355.708 429.705 356.443C429.66 356.746 428.969 356.552 429.153 357.09C428.706 357.884 429.033 358.73 428.899 359.582M426.69 356.14C426.826 355.907 427.003 355.692 427.087 355.446C427.392 354.553 428.183 354.209 428.943 353.995C429.471 353.845 430.033 353.667 430.641 353.71C432.02 353.807 432.989 354.455 433.679 355.624C434.001 356.169 434.303 356.72 434.439 357.334C434.53 357.75 434.643 358.231 434.52 358.61C434.046 360.082 433.237 361.317 431.706 361.902C431.285 362.062 430.846 362.18 430.413 362.311C430.344 362.332 430.252 362.34 430.191 362.31C429.081 361.771 428.008 361.157 427.364 360.063C427.087 359.594 426.83 359.051 426.898 358.461C426.98 357.745 426.675 356.992 427.102 356.31C426.974 356.257 426.846 356.204 426.69 356.14" fill="#39808B"/>
<path fill-rule="evenodd" clip-rule="evenodd" d="M393.685 369.402C393.327 369.32 393.118 369.17 393.246 368.746C393.302 368.72 393.4 368.694 393.477 368.638C394.208 368.11 395.108 368.03 395.931 367.768C396.29 367.654 396.86 367.756 397.161 367.986C398.096 368.703 399.133 369.325 399.575 370.555C399.941 371.57 399.793 372.873 399.148 373.704C398.773 374.186 398.249 374.489 397.863 374.979C397.231 374.876 396.565 375.133 395.937 374.753C395.643 374.575 394.364 373.899 394.114 373.712C393.531 373.277 393.304 372.64 393.086 371.994C393.041 371.861 392.969 371.691 393.014 371.581C393.303 370.873 393.098 370.024 393.685 369.402" fill="#39808B"/>
<path fill-rule="evenodd" clip-rule="evenodd" d="M444.71 346.131C445.607 346.987 447.107 347.464 448.339 347.418C448.93 347.396 449.376 347.188 449.768 346.784C449.994 346.55 450.227 346.322 450.462 346.086C450.328 345.902 450.208 345.8 450.171 345.673C449.996 345.091 449.678 344.727 449.02 344.677C448.722 344.654 448.44 344.46 448.142 344.37C447.947 344.312 447.605 344.214 447.557 344.285C447.284 344.694 447.137 344.053 446.78 344.364C446.575 344.557 446.231 344.88 445.886 345.204C445.607 344.985 445.387 344.811 445.192 344.659C444.484 345.012 444.842 345.609 444.71 346.131M451.721 346.869C451.937 346.944 452.068 346.989 452.207 347.037C452.095 347.391 451.99 347.722 451.884 348.055C451.707 348.076 451.529 348.097 451.28 348.125C451.363 348.236 451.414 348.306 451.495 348.415C451.112 348.886 450.672 349.247 449.993 349.217C449.824 349.21 449.647 349.278 449.48 349.332C449.018 349.484 448.568 349.516 448.108 349.309C447.951 349.238 447.652 349.158 447.602 349.223C447.178 349.77 446.83 349.067 446.415 349.161C446.241 349.201 446.075 348.746 445.703 348.733C445.503 348.726 445.327 348.432 445.115 348.313C444.868 348.174 444.77 347.801 444.403 347.855C444.231 347.297 443.674 347.04 443.394 346.578C442.772 345.549 442.771 344.07 443.283 343.075C443.736 342.193 444.589 341.935 445.374 342.528C445.754 342.816 446.043 343.045 446.476 342.698C446.625 342.934 446.764 342.839 446.872 342.67C447.045 342.4 447.308 342.384 447.565 342.438C448.458 342.625 449.365 342.878 450.083 343.417C450.715 343.891 451.168 344.604 451.7 345.211C451.657 345.75 452.341 346.259 451.721 346.869" fill="#39808B"/>
<path fill-rule="evenodd" clip-rule="evenodd" d="M459.95 372.569C460.289 372.392 460.67 372.099 461.228 372.326C461.169 372.406 461.118 372.475 461.016 372.616C461.236 372.673 461.593 372.685 461.62 372.785C461.805 373.478 462.587 373.674 462.821 374.317C463.216 375.403 463.563 376.487 462.982 377.612C462.918 377.737 462.852 377.766 462.944 377.943C463.201 378.431 462.962 378.782 462.514 379.036C462.203 379.212 462.375 379.388 462.557 379.564C462.167 380.064 461.777 380.565 461.393 381.058H460.151C459.922 380.811 459.64 380.513 459.363 380.21C459.115 379.938 458.789 379.768 458.564 379.441C458.056 378.699 457.959 377.898 458.13 377.073C458.262 376.432 458.577 375.83 458.735 375.192C458.838 374.775 458.94 374.44 459.356 374.213C459.524 374.121 459.639 373.786 459.634 373.565C459.627 373.241 459.852 373.12 459.993 372.915C460.039 372.848 459.97 372.702 459.95 372.569" fill="#39808B"/>
<path fill-rule="evenodd" clip-rule="evenodd" d="M471.393 337.115C471.34 337.062 471.263 337.018 471.237 336.954C471.053 336.485 470.557 336.563 470.213 336.437C470.028 336.37 469.702 336.676 469.446 336.823C469.332 336.888 469.104 337.263 468.952 337.534C468.834 337.745 468.705 338.089 468.547 338.109C468.19 338.156 468.263 338.355 468.23 338.568C468.208 338.714 468.11 338.849 468.054 338.972C468.845 339.777 469.59 339.439 470.405 339.061C471.294 338.648 471.449 337.958 471.393 337.115M469.307 341.076C469.137 341.326 468.986 341.544 468.832 341.77C468.73 341.676 468.64 341.53 468.574 341.54C467.769 341.661 467.503 340.887 466.962 340.577C466.901 340.542 466.859 340.322 466.896 340.29C467.459 339.81 466.859 339.455 466.784 339.039C466.695 339.119 466.616 339.191 466.536 339.262C466.509 339.235 466.458 339.207 466.459 339.182C466.486 338.689 466.218 338.153 466.713 337.727C466.826 337.629 466.804 337.392 466.888 337.243C467.102 336.862 467.159 336.359 467.551 336.12C467.953 335.874 467.796 335.373 468.197 335.085C468.878 334.594 469.941 334.346 470.739 334.643C471.896 335.076 472.634 335.957 473.065 337.023C473.412 337.88 473.576 338.852 473.415 339.793C473.321 340.341 472.839 340.717 472.412 341.047C472.283 341.145 471.962 340.994 471.661 340.945C471.681 341.023 471.684 341.192 471.762 341.312C471.882 341.497 471.93 341.67 471.699 341.744C471.465 341.82 471.378 341.658 471.393 341.427C471.395 341.389 471.29 341.344 471.173 341.257C470.996 341.404 470.805 341.564 470.575 341.756C470.539 341.631 470.504 341.509 470.437 341.278C470.14 341.553 469.873 341.8 469.481 342.163C469.407 341.701 469.36 341.405 469.307 341.076" fill="#39808B"/>
<path fill-rule="evenodd" clip-rule="evenodd" d="M412.404 352.728C412.591 352.885 412.674 352.955 412.775 353.041C412.847 352.897 412.9 352.645 412.995 352.628C413.236 352.586 413.558 352.561 413.736 352.687C414.269 353.066 414.829 353.456 415.225 353.963C415.599 354.444 415.848 355.058 416.017 355.651C416.114 355.995 416.059 356.389 415.858 356.805C415.446 357.655 415.032 358.418 414.172 358.918C413.791 359.139 413.363 359.149 413.003 359.373C412.86 359.461 412.687 359.5 412.521 359.564C412.459 359.454 412.38 359.313 412.3 359.172C412.173 359.354 412.087 359.333 411.892 359.198C411.541 358.956 410.86 358.336 410.565 358.095C409.614 357.319 410.162 356.353 410.203 355.468C410.213 355.246 410.568 355.04 410.777 354.812C411.554 355.229 411.955 355.896 412.227 356.633C412.989 356.538 413.112 355.828 413.53 355.432C413.623 355.344 413.56 355.092 413.578 354.732C413.212 355.097 412.97 355.34 412.767 355.543C412.194 355.502 412.263 354.811 411.78 354.77C411.772 354.322 411.696 353.86 411.783 353.433C411.833 353.189 412.151 353.001 412.404 352.728" fill="#39808B"/>
<path fill-rule="evenodd" clip-rule="evenodd" d="M455.564 323.364C455.887 323.041 456.127 322.801 456.407 322.521H457.807C457.953 321.91 457.501 322.157 457.21 322.077C457.241 321.998 457.25 321.904 457.301 321.86C457.658 321.553 457.13 321.434 457.18 321.122C457.419 320.554 458.085 320.451 458.586 320.142C458.727 320.054 459.003 320.102 459.184 320.173C460.101 320.535 460.433 321.358 460.802 322.187C461.04 322.72 460.819 323.35 461.234 323.816C461.07 324.426 461.006 325.09 460.712 325.629C460.4 326.202 459.732 326.514 459.105 326.577C458.758 326.611 458.455 327.019 458.113 326.755C457.824 326.53 457.416 326.657 457.153 326.302C456.965 326.048 456.549 326.031 456.435 325.589C456.38 325.371 455.962 325.336 455.774 324.989C455.47 324.43 455.695 323.896 455.564 323.364" fill="#39808B"/>
<path fill-rule="evenodd" clip-rule="evenodd" d="M451.594 358.749C451.734 359.309 451.858 359.78 451.968 360.254C451.992 360.361 452.019 360.529 451.964 360.581C451.466 361.042 451.929 361.42 452.05 361.827C452.919 361.841 452.895 361.787 453.341 361.152C453.872 360.396 453.781 359.574 453.766 358.751C453.763 358.601 453.62 358.421 453.493 358.313C453.238 358.098 452.818 358.43 452.586 358.072L452.35 358.433C451.911 358.14 451.8 358.611 451.594 358.749M450.561 359.474C450.426 359.211 450.282 358.932 450.165 358.705C450.293 358.029 451.061 358.216 451.311 357.692C451.556 357.177 452.306 357.396 452.707 356.877C452.548 356.77 452.394 356.667 452.237 356.561C452.259 356.533 452.291 356.453 452.334 356.445C453.095 356.306 453.65 356.713 454.168 357.175C454.599 357.56 454.846 358.085 455.17 358.55C455.352 358.812 455.035 359.052 455.31 359.219C455.556 359.368 455.632 359.612 455.586 359.89C455.535 360.196 455.824 360.526 455.772 360.685C455.649 361.06 455.64 361.452 455.514 361.815C455.28 362.493 454.936 363.11 454.405 363.608C454.1 363.893 453.671 363.989 453.134 363.895C451.838 363.669 451.822 363.682 451.238 363.04C450.78 362.537 450.483 361.962 450.36 361.258C450.289 360.859 450.052 360.507 450.334 360.112C449.957 359.75 450.527 359.758 450.561 359.474" fill="#39808B"/>
<path fill-rule="evenodd" clip-rule="evenodd" d="M420.275 328.836C421.303 329.415 421.54 329.898 420.975 330.78C420.684 331.235 421.045 331.748 420.633 332.122C420.572 332.177 420.733 332.478 420.794 332.665C420.962 333.177 421.129 333.223 421.686 333.076C422.751 332.796 423.255 332.043 423.511 331.023C423.114 330.91 422.715 330.802 422.319 330.683C421.836 330.537 422.011 329.994 421.813 329.745C422.041 329.517 422.291 329.267 422.542 329.017C423.23 328.632 423.658 329.384 424.285 329.555C424.746 330.298 425.389 330.943 425.322 331.939C425.238 333.197 424.696 334.245 423.322 334.748C422.176 335.169 421.269 334.993 420.285 334.118C419.686 333.586 419.197 333.037 419.176 332.091C419.147 330.841 419.386 329.744 420.275 328.836" fill="#39808B"/>
<path fill-rule="evenodd" clip-rule="evenodd" d="M418.699 375.142C417.719 375.43 417.147 374.77 416.488 374.376C415.884 374.014 415.805 373.302 415.626 372.717C415.462 372.175 415.795 371.612 415.991 371.087C416.156 370.646 416.429 370.244 416.653 369.827C416.551 369.79 416.42 369.742 416.263 369.685C416.429 369.51 416.576 369.356 416.758 369.164C416.524 369.121 416.318 369.084 415.98 369.023C416.198 368.86 416.353 368.65 416.493 368.659C416.884 368.686 417.267 368.55 417.678 368.775C418.725 369.346 419.26 370.302 419.646 371.328C420.188 372.768 419.898 374.077 418.699 375.142" fill="#39808B"/>
<path fill-rule="evenodd" clip-rule="evenodd" d="M431.244 380.502C431.136 380.718 431.044 380.903 430.937 381.118C431.68 381.882 431.987 382.803 431.868 383.869C431.84 384.121 431.847 384.34 431.657 384.576C431.299 385.026 431.25 385.682 430.554 385.92C430.252 386.023 429.923 386.108 429.72 386.004C429.155 385.714 428.506 385.489 428.155 384.908C427.98 384.618 427.818 384.317 427.781 383.935C427.659 382.681 428.168 381.64 428.806 380.642C428.949 380.418 429.192 380.255 429.481 380.124C429.814 379.974 430.02 379.852 430.354 380.101C430.596 380.283 430.916 380.36 431.244 380.502" fill="#39808B"/>
<path fill-rule="evenodd" clip-rule="evenodd" d="M471.972 354.624C471.526 354.281 471.264 353.661 470.569 353.687C470.394 353.385 470.118 353.1 470.066 352.778C469.939 351.998 470.122 351.302 470.928 350.92C471.023 350.875 471.089 350.766 471.192 350.662C471.051 350.615 470.926 350.572 470.913 350.568C471.11 350.371 471.352 350.129 471.593 349.888C471.541 349.826 471.489 349.765 471.436 349.703C471.54 349.689 471.648 349.649 471.746 349.666C472.199 349.745 472.722 349.436 473.107 349.899C473.607 350.501 473.976 351.156 474.123 351.948C474.317 352.999 473.302 354.162 472.531 354.537C472.334 354.632 472.091 354.247 471.972 354.624" fill="#39808B"/>
<path fill-rule="evenodd" clip-rule="evenodd" d="M442.031 368.376C442.031 368.687 442.011 368.841 442.034 368.988C442.152 369.754 441.512 370.025 441.067 370.363C440.625 370.698 440.202 370.206 439.788 370.083C439.402 369.969 439.083 369.598 438.758 369.315C438.209 368.837 438.004 367.703 438.351 367.024C438.431 366.87 438.346 366.607 438.713 366.572C438.932 366.551 439.139 366.202 439.315 365.973C439.777 365.376 440.181 365.307 440.675 365.829C440.998 366.17 441.372 366.449 441.602 366.906C441.869 367.436 442.168 367.917 442.031 368.376" fill="#39808B"/>
<path fill-rule="evenodd" clip-rule="evenodd" d="M429.721 342.658C430.21 343.183 430.754 343.637 431.01 344.375C431.328 345.29 431.155 345.789 430.377 346.322C429.491 346.93 428.898 346.824 428.124 346.035C428.019 345.928 427.912 345.823 427.827 345.738C427.699 345.342 427.993 344.886 427.572 344.576C427.338 343.533 428.043 342.679 429.155 342.659C429.343 342.656 429.53 342.658 429.721 342.658" fill="#39808B"/>
<path fill-rule="evenodd" clip-rule="evenodd" d="M440.223 331.047C440.427 330.889 440.551 330.792 440.675 330.695C440.53 330.573 440.384 330.45 440.242 330.331C440.3 330.266 440.37 330.188 440.469 330.079C440.213 330.023 439.985 329.973 439.711 329.913C440.031 329.054 440.818 328.991 441.434 328.71C441.555 328.656 441.814 328.814 441.963 328.933C442.568 329.411 443.008 330.023 443.314 330.728C443.354 330.822 443.408 330.99 443.37 331.023C442.836 331.478 443.541 332.359 442.841 332.664C442.704 332.724 442.397 332.372 442.028 332.346C442.178 332.51 442.327 332.674 442.497 332.861C442.223 333.042 441.964 333.231 441.686 333.387C441.601 333.436 441.465 333.404 441.354 333.392C441.288 333.384 441.167 333.334 441.17 333.318C441.261 332.701 440.525 333.159 440.443 332.754C440.403 332.554 440.252 332.37 440.233 332.171C440.198 331.8 440.223 331.424 440.223 331.047" fill="#39808B"/>
<path fill-rule="evenodd" clip-rule="evenodd" d="M441.827 314.497V314H442.833C443.343 314.766 444.042 315.492 443.795 316.647C443.633 316.657 443.431 316.67 443.147 316.687V315.755C442.966 315.79 442.827 315.775 442.776 315.835C442.691 315.935 442.682 316.096 442.606 316.207C442.465 316.412 442.388 316.366 442.199 316.062C442.071 315.857 441.896 315.68 441.72 315.464C441.952 315.357 442.105 315.287 442.269 315.212C441.793 314.977 441.801 314.985 442.193 314.578C442.261 314.507 442.223 314.335 442.241 314.115C442.073 314.27 441.994 314.343 441.827 314.497" fill="#39808B"/>
<path d="M307.202 37.4635C307.086 36.1289 306.647 34.8427 305.922 33.7159C305.198 32.589 304.211 31.6554 303.045 30.9955C297.174 27.7107 289.649 34.0909 291.751 40.411C292.49 42.6102 294.25 44.2087 296.255 45.2713C299.95 47.2348 305.124 47.1193 306.879 42.6933L306.907 42.624C306.907 42.624 307.673 46.5002 311.743 46.6434C312.268 46.6805 312.796 46.6016 313.287 46.4123C313.779 46.223 314.223 45.9279 314.588 45.5479C314.953 45.168 315.23 44.7124 315.399 44.2135C315.568 43.7146 315.626 43.1846 315.568 42.661C319.069 46.2646 319.984 51.6515 318.339 56.3223C318.639 55.4815 320.649 55.6339 321.231 55.828C323.734 56.7012 325.069 59.6626 324.515 62.1759C323.993 64.5274 322.178 66.514 320.201 67.9555C320.032 68.0724 319.894 68.2285 319.799 68.4103C319.704 68.5922 319.654 68.7944 319.654 68.9996C319.654 69.2049 319.704 69.407 319.799 69.5889C319.894 69.7707 320.032 69.9268 320.201 70.0437C322.083 71.2539 324.313 71.8063 326.543 71.6145C329.246 71.392 331.751 70.1049 333.506 68.0361C335.261 65.9672 336.122 63.286 335.901 60.582L335.874 60.4526C337.658 60.0788 339.266 59.1183 340.441 57.724C341.616 56.3298 342.291 54.5822 342.357 52.7599C342.424 50.9375 341.878 49.1454 340.808 47.6693C339.737 46.1932 338.204 45.118 336.451 44.6152C336.977 43.6648 337.209 42.5792 337.116 41.4967C336.989 40.0282 336.286 38.6696 335.161 37.7174C334.036 36.7653 332.58 36.297 331.111 36.4147" stroke="black" stroke-width="4.72" stroke-linecap="round" stroke-linejoin="round"/>
</svg>
