<svg width="372" height="431" viewBox="0 0 372 431" fill="none" xmlns="http://www.w3.org/2000/svg">
<path d="M8.70498 382.548L3.12085 364.338L5.31606 351.771L106.7 362.083L181.287 366.275L234.427 361.855L268.701 355.775L272.13 363.524L262.924 374.114L291.604 380.69L365.138 377.402L367.566 391.678L340.86 395.066L355.791 401.503L355.659 415.024L308.882 404.255L225.313 400.48L153.255 395.383L169.198 419.991L157.008 427.154L112.345 400.48L66.7617 389.85L15.4019 385.211L8.7151 382.548H8.70498Z" fill="#7F3F00"/>
<path d="M366.172 373.956C365.059 373.301 360.83 373.321 356.794 373.986C343.35 376.231 316.785 377.761 303.603 377.046C296.441 376.659 290.078 376.519 289.461 376.738C288.085 377.235 270.675 373.45 269.259 372.347C268.682 371.9 269.845 369.704 271.828 367.459C275.349 363.466 275.379 363.247 273.427 358.061C270.635 350.7 268.763 349.905 260.832 352.716C244.585 358.478 222.431 361.697 195.178 362.254C160.206 362.959 142.827 362.393 128.937 360.068C124.011 359.243 118.659 358.647 117.041 358.737C115.422 358.826 111.558 358.608 108.452 358.24C105.346 357.872 99.7521 357.336 96.0091 357.058C75.2912 355.478 48.1596 352.796 29.0501 350.431C17.1231 348.961 6.15721 348.186 4.69037 348.713C1.15982 349.974 0.0470445 355.528 1.31157 365.462C2.3333 373.43 5.95489 384.566 7.98824 385.997C10.4971 387.755 22.5859 390.1 31.4578 390.547C36.5664 390.805 47.2087 391.719 55.1195 392.584C99.4992 397.422 130.455 408.121 148.826 424.99C154.653 430.335 156.463 431.408 158.456 430.692C162.27 429.331 169.291 423.371 170.494 420.48C171.516 418.016 171.314 417.539 166.994 412.055C160.024 403.213 157.758 399.061 159.549 398.415C160.368 398.127 166.074 398.405 172.214 399.041C178.365 399.677 184.728 400.134 186.347 400.054C187.965 399.965 193.509 400.362 198.678 400.938C211.101 402.299 238.232 403.869 260.013 404.465C278.535 404.982 300.295 406.641 311.696 408.399C320.275 409.73 346.324 415.88 352.626 418.066L357.381 419.715L358.888 416.784C360.466 413.714 360.577 403.72 359.08 399.677C358.605 398.375 356.845 396.905 355.175 396.418C353.152 395.812 352.808 395.484 354.154 395.405C355.256 395.335 359.262 394.839 363.056 394.292C369.217 393.408 370.087 393.041 371.098 390.895C372.606 387.735 369.095 375.655 366.172 373.956ZM364.745 387.139C364.037 387.745 358.504 388.381 352.454 388.54C340.335 388.878 333.294 390.716 333.244 393.557C333.183 397.233 336.43 399.915 342.55 401.246C353.294 403.581 355.135 404.813 354.204 409.015C353.658 411.479 349.723 411.181 338.069 407.783C318.474 402.081 294.367 399.379 254.125 398.365C241.146 398.038 223.26 397.143 214.399 396.369C205.527 395.604 192.436 394.521 185.294 393.964C178.152 393.408 167.743 392.564 162.169 392.107C147.288 390.865 146.974 392.742 158.932 411.3C162.553 416.923 163.251 418.632 162.644 420.311C161.319 423.947 157.222 424.453 153.904 421.404C146.479 414.569 135.705 407.813 124.729 403.114C102.625 393.647 86.7629 390.189 48.9588 386.573C33.3596 385.083 18.6001 383.156 16.152 382.281C11.9032 380.761 11.5997 380.384 9.07067 373.311C6.35954 365.731 6.0257 357.207 8.36254 355.22C9.02009 354.654 21.7867 355.657 36.7384 357.435C51.7002 359.223 74.3099 361.479 87.0057 362.462C99.6914 363.436 117.142 365.085 125.781 366.118C145.912 368.532 157.728 369.049 181.299 368.552C219.922 367.727 230.777 366.615 254.53 360.982C262.693 359.055 266.264 358.667 267.104 359.611C268.692 361.419 266.8 363.555 262.107 365.254C258.394 366.595 255.652 369.963 256.472 372.158C258.151 376.718 272.961 382.281 281.186 381.437C282.946 381.258 285.354 381.487 286.527 381.964C288.813 382.868 303.401 383.722 312.273 383.474C326.365 383.076 347.841 381.715 353.951 380.821C357.694 380.285 361.528 380.106 362.469 380.424C364.806 381.218 366.344 385.768 364.745 387.139ZM309.602 389.732C303.553 389.812 301.985 390.895 306.405 391.938C310.523 392.911 314.316 392.236 313.719 390.616C313.527 390.1 311.676 389.703 309.602 389.732ZM291.828 388.669C283.027 386.901 275.622 386.414 272.779 387.437C270.463 388.262 270.685 389.703 273.255 390.607C275.763 391.491 297.463 391.749 298.545 390.905C299.031 390.517 296.006 389.524 291.828 388.669ZM242.866 382.57C238.667 381.258 233.104 379.53 230.494 378.715C224.535 376.847 215.623 376.649 213.64 378.347C211.425 380.245 214.49 381.626 220.216 381.298C225.233 381.01 226.012 381.546 224.677 384.407C224.009 385.848 224.363 386.355 226.457 386.961C229.967 387.984 230.848 387.527 230.858 384.666C230.878 382.311 231.02 382.281 236.189 383.742C241.207 385.162 246.275 387.467 245.202 387.855C244.929 387.954 240.832 388.401 236.088 388.868C227.064 389.742 221.207 389.097 211.364 386.156C208.117 385.182 202.027 384.06 197.828 383.652C193.64 383.255 188.127 382.301 185.568 381.536C181.025 380.175 177.859 380.344 178.436 381.914C178.598 382.351 181.875 383.116 185.719 383.613C189.563 384.119 196.483 385.669 201.096 387.05C205.699 388.431 212.719 390.309 216.695 391.213C224.404 392.991 249.563 392.882 250.321 391.073C250.574 390.477 250.716 388.848 250.635 387.457C250.524 385.371 249.188 384.527 242.866 382.57ZM151.81 375.645C147.399 373.946 137.839 371.94 136.484 372.416C135.867 372.645 133.065 372.546 130.262 372.208C127.46 371.86 124.992 371.95 124.78 372.387C124.132 373.768 129.403 375.884 132.65 375.546C136.524 375.148 148.249 377.076 150.778 378.536C152.801 379.698 155.806 379.152 155.27 377.712C155.098 377.245 153.54 376.311 151.81 375.645ZM108.786 376.192C102.443 375.556 94.5726 375.089 91.295 375.168C88.0274 375.238 82.0387 374.384 77.9922 373.261C68.4627 370.608 63.4856 369.843 62.9595 370.936C61.9985 372.973 85.4883 378.337 94.9469 378.248C97.5973 378.228 103.111 378.586 107.208 379.053C111.305 379.51 116.09 379.728 117.83 379.54C124.162 378.834 120.065 377.314 108.786 376.192ZM54.7351 377.692C54.1989 377.602 51.6395 377.602 49.0397 377.702C46.4499 377.791 40.2285 376.887 35.2311 375.695C19.6623 371.979 18.7316 371.83 17.8717 372.913C17.4064 373.489 17.1737 374.364 17.3457 374.841C17.7605 375.943 24.8013 377.265 29.91 377.195C32.0344 377.165 36.3135 377.771 39.4091 378.536C46.4803 380.285 55.1499 380.543 55.4736 379.013C55.6051 378.377 55.2814 377.781 54.7351 377.692ZM33.1067 361.121C29.4042 360.128 26.7133 359.988 26.3491 360.773C25.9748 361.558 26.6425 362.393 28.0183 362.879C30.3045 363.684 38.7212 363.883 39.0753 363.148C39.1764 362.929 36.4855 362.015 33.1067 361.121Z" fill="black"/>
<path d="M294.632 98.5024C241.876 128.882 188.078 124.968 187.865 124.948H187.855C187.633 124.968 133.835 128.882 81.0892 98.5024C81.0892 98.5024 72.6118 160.722 85.51 204.047C85.51 204.047 113.37 140.446 187.855 124.948C262.341 140.446 290.191 204.047 290.191 204.047C303.099 160.722 294.632 98.5024 294.632 98.5024Z" fill="#39808B"/>
<path d="M75.199 216.285C75.199 155.188 125.628 105.655 187.843 105.655C250.067 105.655 300.496 155.188 300.496 216.285C300.496 277.392 250.067 365.124 187.843 365.124C125.628 365.124 75.199 277.392 75.199 216.285Z" fill="#57C7D4"/>
<path d="M269.03 176.828C263.79 155.37 245.742 139.783 226.117 139.783C223.244 139.783 220.381 140.12 217.589 140.776C206.532 143.379 197.428 150.731 191.965 161.48C190.063 165.205 188.697 169.189 187.858 173.322C187.008 169.189 185.642 165.205 183.74 161.48C178.268 150.731 169.173 143.379 158.116 140.776C155.324 140.12 152.451 139.783 149.578 139.783C129.953 139.783 111.916 155.37 106.675 176.828C103.762 188.73 105.026 200.93 110.246 211.182C115.719 221.931 124.824 229.283 135.871 231.876C138.663 232.531 141.536 232.869 144.409 232.869C164.044 232.869 182.081 217.292 187.332 195.823C187.524 195.028 187.696 194.234 187.858 193.439C188.009 194.234 188.181 195.028 188.374 195.823C193.614 217.292 211.671 232.869 231.297 232.869C234.17 232.869 237.032 232.531 239.835 231.876C250.882 229.283 259.976 221.931 265.449 211.182C270.669 200.93 271.943 188.73 269.03 176.828Z" fill="#39808B"/>
<path d="M260.638 183.034C265.676 203.639 255.449 223.716 237.806 227.879C220.174 232.031 201.782 218.689 196.755 198.075C191.727 177.471 201.944 157.394 219.587 153.241C237.219 149.088 255.611 162.42 260.638 183.034Z" fill="white"/>
<path d="M115.049 183.034C110.011 203.639 120.239 223.716 137.881 227.879C155.514 232.031 173.905 218.689 178.943 198.075C183.971 177.471 173.743 157.394 156.101 153.241C138.468 149.088 120.087 162.42 115.049 183.034Z" fill="white"/>
<path d="M226.114 156.284C224.222 156.284 222.33 156.502 220.489 156.939C213.084 158.678 206.913 163.745 203.119 171.195C199.215 178.865 198.284 188.094 200.51 197.194C204.424 213.218 217.363 224.842 231.293 224.842C233.185 224.842 235.076 224.623 236.918 224.186C244.323 222.438 250.483 217.381 254.277 209.93C258.192 202.261 259.113 193.022 256.887 183.922C252.982 167.907 240.044 156.284 226.114 156.284ZM231.293 232.432C213.843 232.432 197.738 218.355 192.993 198.972C190.353 188.134 191.496 177.057 196.22 167.798C201.046 158.31 209.027 151.833 218.698 149.558C221.116 148.982 223.625 148.694 226.114 148.694C243.564 148.694 259.669 162.761 264.393 182.153C267.054 192.982 265.9 204.059 261.186 213.328C256.361 222.815 248.379 229.282 238.708 231.567C236.29 232.144 233.792 232.432 231.293 232.432Z" fill="#231F20"/>
<path d="M149.575 156.284C135.666 156.284 122.717 167.907 118.802 183.922C116.586 193.022 117.507 202.261 121.412 209.93C125.205 217.381 131.376 222.438 138.781 224.186C140.622 224.623 142.514 224.842 144.406 224.842C158.326 224.842 171.275 213.218 175.179 197.194C177.405 188.094 176.484 178.865 172.569 171.195C168.776 163.745 162.605 158.678 155.2 156.939C153.359 156.502 151.467 156.284 149.575 156.284ZM144.406 232.432C141.907 232.432 139.409 232.144 136.981 231.567C127.32 229.282 119.338 222.815 114.503 213.328C109.788 204.059 108.645 192.982 111.296 182.153C116.03 162.761 132.125 148.694 149.575 148.694C152.074 148.694 154.573 148.982 157.001 149.558C166.662 151.833 174.643 158.31 179.479 167.798C184.203 177.067 185.346 188.134 182.696 198.972C177.961 218.355 161.856 232.432 144.406 232.432Z" fill="#231F20"/>
<path d="M227.115 192.214C223.736 193.009 220.226 190.466 219.265 186.532C218.901 185.022 218.962 183.551 219.356 182.24C217.727 181.902 216.048 181.872 214.379 182.27C207.318 183.939 203.221 191.976 205.234 200.231C207.247 208.477 214.612 213.832 221.683 212.163C228.744 210.494 232.841 202.457 230.818 194.201C230.534 193.009 230.099 191.896 229.604 190.843C228.906 191.489 228.066 191.986 227.115 192.214Z" fill="#231F20"/>
<path d="M148.582 192.214C151.961 193.009 155.461 190.466 156.422 186.532C156.796 185.022 156.725 183.551 156.331 182.24C157.96 181.902 159.649 181.872 161.308 182.27C168.379 183.939 172.476 191.976 170.453 200.231C168.44 208.477 161.075 213.832 154.014 212.163C146.943 210.494 142.866 202.457 144.869 194.201C145.163 193.009 145.588 191.896 146.093 190.843C146.781 191.489 147.621 191.986 148.582 192.214Z" fill="#231F20"/>
<path d="M207.288 226.538L187.845 258.656L168.401 226.538H207.288Z" fill="#FAB226"/>
<path d="M138.104 284.905C138.104 284.905 143.273 288.084 147.37 284.905C147.37 284.905 142.625 292.525 138.104 284.905Z" fill="#39808B"/>
<path d="M157.929 284.905C157.929 284.905 163.109 288.084 167.196 284.905C167.196 284.905 162.451 292.525 157.929 284.905Z" fill="#39808B"/>
<path d="M177.758 284.905C177.758 284.905 182.937 288.084 187.034 284.905C187.034 284.905 182.28 292.525 177.758 284.905Z" fill="#39808B"/>
<path d="M197.586 284.905C197.586 284.905 202.765 288.084 206.862 284.905C206.862 284.905 202.118 292.525 197.586 284.905Z" fill="#39808B"/>
<path d="M217.414 284.905C217.414 284.905 222.593 288.084 226.68 284.905C226.68 284.905 221.946 292.525 217.414 284.905Z" fill="#39808B"/>
<path d="M237.252 284.905C237.252 284.905 242.411 288.084 246.519 284.905C246.519 284.905 241.774 292.525 237.252 284.905Z" fill="#39808B"/>
<path d="M147.37 298.672C147.37 298.672 152.539 301.841 156.636 298.672C156.636 298.672 151.892 306.282 147.37 298.672Z" fill="#39808B"/>
<path d="M167.198 298.672C167.198 298.672 172.367 301.841 176.464 298.672C176.464 298.672 171.72 306.282 167.198 298.672Z" fill="#39808B"/>
<path d="M187.034 298.672C187.034 298.672 192.193 301.841 196.29 298.672C196.29 298.672 191.556 306.282 187.034 298.672Z" fill="#39808B"/>
<path d="M206.862 298.672C206.862 298.672 212.031 301.841 216.118 298.672C216.118 298.672 211.384 306.282 206.862 298.672Z" fill="#39808B"/>
<path d="M226.68 298.672C226.68 298.672 231.859 301.841 235.956 298.672C235.956 298.672 231.212 306.282 226.68 298.672Z" fill="#39808B"/>
<path d="M154.491 311.37C154.491 311.37 159.66 314.539 163.747 311.37C163.747 311.37 159.003 318.99 154.491 311.37Z" fill="#39808B"/>
<path d="M174.309 311.37C174.309 311.37 179.488 314.539 183.575 311.37C183.575 311.37 178.831 318.99 174.309 311.37Z" fill="#39808B"/>
<path d="M194.135 311.37C194.135 311.37 199.314 314.539 203.401 311.37C203.401 311.37 198.667 318.99 194.135 311.37Z" fill="#39808B"/>
<path d="M213.975 311.37C213.975 311.37 219.144 314.539 223.242 311.37C223.242 311.37 218.497 318.99 213.975 311.37Z" fill="#39808B"/>
<path d="M163.111 322.796C163.111 322.796 168.27 325.975 172.367 322.796C172.367 322.796 167.623 330.415 163.111 322.796Z" fill="#39808B"/>
<path d="M182.937 322.796C182.937 322.796 188.107 325.975 192.194 322.796C192.194 322.796 187.459 330.415 182.937 322.796Z" fill="#39808B"/>
<path d="M202.767 322.796C202.767 322.796 207.937 325.975 212.034 322.796C212.034 322.796 207.289 330.415 202.767 322.796Z" fill="#39808B"/>
<path d="M170.645 333.593C170.645 333.593 175.814 336.762 179.911 333.593C179.911 333.593 175.177 341.213 170.645 333.593Z" fill="#39808B"/>
<path d="M190.475 333.593C190.475 333.593 195.644 336.762 199.751 333.593C199.751 333.593 195.007 341.213 190.475 333.593Z" fill="#39808B"/>
<path d="M181.205 345.443C181.205 345.443 186.374 348.622 190.471 345.443C190.471 345.443 185.727 353.063 181.205 345.443Z" fill="#39808B"/>
<mask id="mask0_36_6" style="mask-type:luminance" maskUnits="userSpaceOnUse" x="44" y="-1" width="288" height="117">
<path d="M44.3457 -0.00854492H331.807V115.599H44.3457V-0.00854492Z" fill="white"/>
</mask>
<g mask="url(#mask0_36_6)">
<path d="M185.919 114.328L44.7576 52.9324L188.073 -0.00854492L331.389 52.9324L185.919 114.328Z" fill="#231F20"/>
</g>
<path d="M185.923 113.504L105.368 78.4648V140.585C113.977 130.77 126.713 124.561 140.946 124.561C157.314 124.561 179.317 132.797 187.723 145.274C196.13 132.797 218.507 124.561 234.885 124.561C249.301 124.561 262.179 130.929 270.798 140.953V77.6799L185.923 113.504Z" fill="#393536"/>
<path d="M107.35 154.157V80.7804L188.603 59.0537L187.561 55.2786L103.374 77.8001V154.157C100.268 156.342 94.6335 163.147 94.6335 183.781H116.09C116.09 163.157 110.455 156.342 107.35 154.157Z" fill="#FAB226"/>
<path d="M271.607 223.906C282.289 219.425 309.674 223.469 316.442 244.828C327.418 279.41 285.881 329.013 247.308 320.24C247.308 320.24 264.859 305.388 255.603 282.996C246.326 260.594 246.033 234.595 271.607 223.906Z" fill="#39808B"/>
<path d="M103.567 224.791C92.8237 220.44 65.4898 224.762 58.9547 246.19C48.3631 280.892 90.4261 330.048 128.918 320.858C128.918 320.858 111.205 306.205 120.218 283.713C129.242 261.221 129.242 235.213 103.567 224.791Z" fill="#39808B"/>
<mask id="mask1_36_6" style="mask-type:luminance" maskUnits="userSpaceOnUse" x="194" y="354" width="17" height="28">
<path d="M194.551 354.664H210.089V381.477H194.551V354.664Z" fill="white"/>
</mask>
<g mask="url(#mask1_36_6)">
<path d="M209.38 374.592C209.38 378.397 206.244 381.477 202.37 381.477C198.505 381.477 195.369 378.397 195.369 374.592V362.74C195.369 358.945 198.505 355.865 202.37 355.865C206.244 355.865 209.38 358.945 209.38 362.74V374.592Z" fill="#FAB226"/>
</g>
<path d="M222.706 367.438C222.706 371.243 219.56 374.323 215.706 374.323C211.831 374.323 208.705 371.243 208.705 367.438V355.586C208.705 351.781 211.831 348.712 215.706 348.712C219.56 348.712 222.706 351.781 222.706 355.586V367.438Z" fill="#FAB226"/>
<path d="M236.026 359.663C236.026 363.467 232.89 366.547 229.015 366.547C225.151 366.547 222.015 363.467 222.015 359.663V347.821C222.015 344.016 225.151 340.936 229.015 340.936C232.89 340.936 236.026 344.016 236.026 347.821V359.663Z" fill="#FAB226"/>
<mask id="mask2_36_6" style="mask-type:luminance" maskUnits="userSpaceOnUse" x="166" y="354" width="16" height="28">
<path d="M166.064 354.664H181.602V381.477H166.064V354.664Z" fill="white"/>
</mask>
<g mask="url(#mask2_36_6)">
<path d="M166.773 374.592C166.773 378.397 169.909 381.477 173.784 381.477C177.648 381.477 180.784 378.397 180.784 374.592V362.74C180.784 358.945 177.648 355.865 173.784 355.865C169.909 355.865 166.773 358.945 166.773 362.74V374.592Z" fill="#FAB226"/>
</g>
<path d="M153.451 367.438C153.451 371.243 156.587 374.323 160.452 374.323C164.326 374.323 167.452 371.243 167.452 367.438V355.586C167.452 351.781 164.326 348.712 160.452 348.712C156.587 348.712 153.451 351.781 153.451 355.586V367.438Z" fill="#FAB226"/>
<path d="M140.127 359.663C140.127 363.467 143.263 366.547 147.138 366.547C151.002 366.547 154.138 363.467 154.138 359.663V347.821C154.138 344.016 151.002 340.936 147.138 340.936C143.263 340.936 140.127 344.016 140.127 347.821V359.663Z" fill="#FAB226"/>
<path d="M196.364 192.115H179.956V181.366H196.364V192.115Z" fill="#231F20"/>
<path d="M298.06 187.526C298.06 190.407 295.672 192.741 292.739 192.741H264.747C261.814 192.741 259.436 190.407 259.436 187.526C259.436 184.654 261.814 182.32 264.747 182.32H292.739C295.672 182.32 298.06 184.654 298.06 187.526Z" fill="#231F20"/>
<path d="M117.202 187.526C117.202 190.407 114.825 192.741 111.891 192.741H83.8893C80.9556 192.741 78.5884 190.407 78.5884 187.526C78.5884 184.654 80.9556 182.32 83.8893 182.32H111.891C114.825 182.32 117.202 184.654 117.202 187.526Z" fill="#231F20"/>
</svg>
